<svg width="125" height="125" viewBox="0 0 125 125" fill="none" xmlns="http://www.w3.org/2000/svg">
    <path d="M116.588 1.95312H70.9121L64.4531 19.1758V56.6406H52.7344V54.8906C52.7344 51.7969 51.6699 48.7637 49.7383 46.3496L44.9219 40.3301V35.1562C44.9219 32.6133 43.2832 30.4648 41.0156 29.6562V27.3438C41.0156 24.8008 39.377 22.6523 37.1094 21.8438V7.8125C37.1094 4.58203 34.4805 1.95312 31.25 1.95312H23.4375C20.207 1.95312 17.5781 4.58203 17.5781 7.8125V21.8438C15.3105 22.6523 13.6719 24.8008 13.6719 27.3438V29.6562C11.4043 30.4648 9.76562 32.6133 9.76562 35.1562V40.3301L4.94922 46.3496C3.01758 48.7656 1.95312 51.7988 1.95312 54.8906V97.6562C1.95312 105.193 8.08594 111.328 15.625 111.328H27.3438V113.281C27.3438 118.666 31.7246 123.047 37.1094 123.047H87.8906C93.2754 123.047 97.6562 118.666 97.6562 113.281V111.328H109.375C116.914 111.328 123.047 105.193 123.047 97.6562V19.1758L116.588 1.95312ZM85.9375 5.85938H101.562V9.76562H85.9375V5.85938ZM73.6191 5.85938H82.0312V13.6719H105.469V5.85938H113.881L118.275 17.5781H69.2246L73.6191 5.85938ZM68.3594 41.0156V33.2031H72.2656V41.0156H68.3594ZM76.1719 33.2031H80.0781V41.0156H76.1719V33.2031ZM83.9844 33.2031H87.8906V41.0156H83.9844V33.2031ZM91.7969 33.2031H95.7031V41.0156H91.7969V33.2031ZM99.6094 33.2031H103.516V41.0156H99.6094V33.2031ZM107.422 33.2031H111.328V41.0156H107.422V33.2031ZM115.234 33.2031H119.141V41.0156H115.234V33.2031ZM68.3594 29.2969V21.4844H119.141V29.2969H68.3594ZM37.1094 68.3594H41.0156V72.2656H37.1094V68.3594ZM44.9219 68.3594H48.8281V72.2656H44.9219V68.3594ZM52.7344 68.3594H56.6406V72.2656H52.7344V68.3594ZM60.5469 68.3594H64.4531V72.2656H60.5469V68.3594ZM68.3594 68.3594H72.2656V72.2656H68.3594V68.3594ZM76.1719 68.3594H80.0781V72.2656H76.1719V68.3594ZM83.9844 68.3594H87.8906V72.2656H83.9844V68.3594ZM39.8711 64.4531L43.7773 60.5469H81.2227L85.1289 64.4531H39.8711ZM23.4375 5.85938H31.25C32.3262 5.85938 33.2031 6.73438 33.2031 7.8125V21.4844H21.4844V7.8125C21.4844 6.73438 22.3613 5.85938 23.4375 5.85938ZM19.5312 25.3906H35.1562C36.2324 25.3906 37.1094 26.2656 37.1094 27.3438V29.2969H17.5781V27.3438C17.5781 26.2656 18.4551 25.3906 19.5312 25.3906ZM15.625 107.422C10.2402 107.422 5.85938 103.041 5.85938 97.6562V54.8906C5.85938 52.6816 6.61914 50.5156 8 48.791L13.6719 41.7012V35.1562C13.6719 34.0781 14.5488 33.2031 15.625 33.2031H39.0625C40.1387 33.2031 41.0156 34.0781 41.0156 35.1562V41.7012L46.6875 48.793C48.0684 50.5156 48.8281 52.6836 48.8281 54.8906V56.6406H44.9219V52.7344H9.76562V99.6094H27.3438V107.422H15.625ZM29.2969 78.7773C28.0371 80.4551 27.3438 82.5371 27.3438 84.6348V95.7031H13.6719V56.6406H41.0156V57.7852L33.2031 65.5977V73.5684L29.2969 78.7773ZM93.75 113.281C93.75 116.512 91.1211 119.141 87.8906 119.141H37.1094C33.8789 119.141 31.25 116.512 31.25 113.281V84.6348C31.25 83.375 31.666 82.1289 32.4219 81.1191L36.1328 76.1719H88.8672L92.5762 81.1191C93.332 82.1289 93.748 83.375 93.748 84.6348V113.281H93.75ZM109.375 107.422H97.6562V84.6348C97.6562 82.5371 96.9629 80.4551 95.7031 78.7773L91.7969 73.5684V65.5977L82.8398 56.6406H68.3594V44.9219H119.141V97.6562C119.141 103.041 114.76 107.422 109.375 107.422Z" fill="#DB7D43"/>
    <path d="M27.3438 13.6719C28.4224 13.6719 29.2969 12.7974 29.2969 11.7188C29.2969 10.6401 28.4224 9.76562 27.3438 9.76562C26.2651 9.76562 25.3906 10.6401 25.3906 11.7188C25.3906 12.7974 26.2651 13.6719 27.3438 13.6719Z" fill="#DB7D43"/>
    <path d="M39.0625 111.328H85.9375V83.9844H39.0625V111.328ZM42.9688 87.8906H82.0312V107.422H42.9688V87.8906Z" fill="#DB7D43"/>
    <path d="M46.875 91.7969H50.7812V95.7031H46.875V91.7969Z" fill="#DB7D43"/>
    <path d="M54.6875 91.7969H78.125V95.7031H54.6875V91.7969Z" fill="#DB7D43"/>
    <path d="M46.875 99.6094H78.125V103.516H46.875V99.6094Z" fill="#DB7D43"/>
    <path d="M111.328 99.6094H107.422V103.516H111.328C113.482 103.516 115.234 101.764 115.234 99.6094V80.0781H111.328V99.6094Z" fill="#DB7D43"/>
    <path d="M111.328 72.2656H115.234V76.1719H111.328V72.2656Z" fill="#DB7D43"/>
</svg>