<svg width="125" height="125" viewBox="0 0 125 125" fill="none" xmlns="http://www.w3.org/2000/svg">
    <path d="M112.672 120.117H62.5205C30.7502 120.117 4.90332 94.2703 4.90332 62.5C4.90332 30.7297 30.7502 4.88281 62.5205 4.88281C75.0251 4.88281 87.0476 8.90552 96.9573 16.3059H94.2778C92.9297 16.3059 91.8364 17.3992 91.8364 18.7473C91.8364 20.0955 92.9297 21.1887 94.2778 21.1887H103.549C104.897 21.1887 105.99 20.0955 105.99 18.7473V9.47632C105.99 8.12817 104.897 7.03491 103.549 7.03491C102.201 7.03491 101.107 8.12817 101.107 9.47632V13.335C90.1301 4.70557 76.6069 0 62.5205 0C45.8262 0 30.1311 6.50122 18.3262 18.3057C6.52173 30.1106 0.0205078 45.8057 0.0205078 62.5C0.0205078 79.1943 6.52173 94.8894 18.3262 106.694C30.1311 118.499 45.8262 125 62.5205 125H112.672C114.02 125 115.113 123.907 115.113 122.559C115.113 121.21 114.02 120.117 112.672 120.117Z" fill="#DB7D43"/>
    <path d="M26.4351 36.9164C25.2948 36.1974 23.7869 36.5395 23.0679 37.6801C17.5255 46.4736 15.0792 57.0407 16.1805 67.4355C17.2979 77.986 22.0528 87.9357 29.5687 95.4518C38.6536 104.537 50.587 109.079 62.5206 109.079C74.4542 109.079 86.3875 104.537 95.4725 95.4518C113.642 77.2822 113.642 47.7177 95.4725 29.5483C87.9447 22.0207 77.9788 17.2643 67.411 16.1554C56.9974 15.0619 46.4178 17.5285 37.6209 23.0983C36.4818 23.8198 36.1429 25.3281 36.8641 26.4672C37.5855 27.6064 39.0938 27.945 40.233 27.2241C56.5562 16.8884 78.3363 19.318 92.0196 33.0014C108.285 49.2673 108.285 75.7336 92.0196 91.9994C83.8858 100.133 73.2052 104.2 62.5206 104.199C51.8387 104.198 41.1534 100.132 33.0216 91.9994C19.1463 78.1242 16.752 56.8581 27.1988 40.2841C27.9178 39.143 27.576 37.6354 26.4351 36.9164Z" fill="#DB7D43"/>
    <path d="M36.4682 51.2754C32.5712 51.2754 29.4011 54.4456 29.4011 58.3425C29.4011 59.6907 30.4943 60.7839 31.8425 60.7839C33.1906 60.7839 34.2839 59.6907 34.2839 58.3425C34.2839 57.1379 35.2638 56.1582 36.4682 56.1582C38.3932 56.1582 38.6528 57.2622 38.6528 58.3425C38.6528 61.8733 33.5873 66.9268 30.3962 69.2815C29.5463 69.9068 29.1938 71.0068 29.5226 72.0095C29.8517 73.012 30.7875 73.69 31.8425 73.69H41.0944C42.4426 73.69 43.5358 72.5967 43.5358 71.2486C43.5358 69.9004 42.4426 68.8071 41.0944 68.8071H38.2182C40.852 66.0007 43.5358 62.1958 43.5358 58.3428C43.5356 54.1155 40.6952 51.2754 36.4682 51.2754Z" fill="#DB7D43"/>
    <path d="M48.6797 51.2754C47.3315 51.2754 46.2383 52.3687 46.2383 53.7168V62.4902C46.2383 63.8384 47.3315 64.9316 48.6797 64.9316H54.6589V71.2832C54.6589 72.6313 55.7522 73.7246 57.1003 73.7246C58.4485 73.7246 59.5417 72.6313 59.5417 71.2832V53.717C59.5417 52.3689 58.4485 51.2756 57.1003 51.2756C55.7522 51.2756 54.6589 52.3689 54.6589 53.717V60.0491H51.1211V53.717C51.1211 52.3686 50.0278 51.2754 48.6797 51.2754Z" fill="#DB7D43"/>
    <path d="M67.176 73.6903C68.1032 73.6903 68.9897 73.1593 69.3991 72.2606L77.3852 54.7288C77.944 53.5018 77.4023 52.054 76.1755 51.495C74.9479 50.9359 73.5009 51.4776 72.9416 52.7047L64.9555 70.2364C64.3967 71.4635 64.9384 72.9112 66.1652 73.4703C66.4936 73.6197 66.8376 73.6903 67.176 73.6903Z" fill="#DB7D43"/>
    <path d="M87.2375 73.5869C87.4714 73.6572 87.7078 73.6907 87.9399 73.6907C88.9902 73.6907 89.96 73.0076 90.2773 71.95L95.5369 54.4182C95.7585 53.6792 95.6179 52.8784 95.157 52.2593C94.6963 51.6401 93.9702 51.2754 93.1985 51.2754H82.6794C81.3313 51.2754 80.238 52.3687 80.238 53.7168C80.238 55.0649 81.3313 56.1582 82.6794 56.1582H89.9172L85.6006 70.5471C85.2131 71.8384 85.946 73.1995 87.2375 73.5869Z" fill="#DB7D43"/>
    <path d="M31.2961 28.833C30.6516 28.833 30.0217 29.0942 29.5676 29.5486C29.1138 30.0024 28.8523 30.6323 28.8523 31.2744C28.8523 31.9165 29.1135 32.5464 29.5676 33.0005C30.0217 33.4546 30.6516 33.7158 31.2961 33.7158C31.9382 33.7158 32.5681 33.4548 33.0222 33.0005C33.4763 32.5461 33.7351 31.9165 33.7351 31.2744C33.7351 30.6323 33.4763 30.0024 33.0222 29.5486C32.5681 29.0942 31.9382 28.833 31.2961 28.833Z" fill="#DB7D43"/>
    <path d="M122.538 120.117H122.505C121.157 120.117 120.064 121.21 120.064 122.559C120.064 123.907 121.157 125 122.505 125H122.538C123.886 125 124.979 123.907 124.979 122.559C124.979 121.21 123.886 120.117 122.538 120.117Z" fill="#DB7D43"/>
</svg>