<svg width="125" height="125" viewBox="0 0 125 125" fill="none" xmlns="http://www.w3.org/2000/svg">
    <path d="M56.6406 80.0781H52.7344V83.9844H48.8281V95.7031H56.6406V99.6094H48.8281V103.516H52.7344V107.422H56.6406V103.516H60.5469V91.7969H52.7344V87.8906H60.5469V83.9844H56.6406V80.0781Z" fill="#DB7D43"/>
    <path d="M99.6094 115.234V72.2656H9.76562V115.234H99.6094ZM90.1211 111.328C90.832 108.596 92.9707 106.455 95.7031 105.746V111.328H90.1211ZM95.7031 81.7539C92.9707 81.043 90.8301 78.9043 90.1211 76.1719H95.7031V81.7539ZM86.1133 76.1719C86.9395 81.0684 90.8066 84.9336 95.7031 85.7617V101.74C90.8066 102.566 86.9414 106.434 86.1133 111.33H67C72.5371 107.438 76.1719 101.016 76.1719 93.75C76.1719 86.4844 72.5371 80.0625 67.002 76.1719H86.1133ZM54.6875 111.328C44.9941 111.328 37.1094 103.443 37.1094 93.75C37.1094 84.0566 44.9941 76.1719 54.6875 76.1719C64.3809 76.1719 72.2656 84.0566 72.2656 93.75C72.2656 103.443 64.3809 111.328 54.6875 111.328ZM19.2539 76.1719C18.5449 78.9043 16.4043 81.0449 13.6719 81.7539V76.1719H19.2539ZM13.6719 105.746C16.4043 106.455 18.5449 108.596 19.2539 111.328H13.6719V105.746ZM23.2617 111.328C22.4355 106.432 18.5684 102.566 13.6719 101.738V85.7617C18.5684 84.9355 22.4336 81.0684 23.2617 76.1719H42.375C36.8379 80.0625 33.2031 86.4844 33.2031 93.75C33.2031 101.016 36.8379 107.438 42.373 111.328H23.2617Z" fill="#DB7D43"/>
    <path d="M119.141 1.95312H48.8281C46.6738 1.95312 44.9219 3.70508 44.9219 5.85938V56.6406H29.2969V44.9219H21.4844C17.1758 44.9219 13.6719 48.4258 13.6719 52.7344V64.4531H1.95312V123.047H107.422V115.234H115.234V72.2656H119.141C121.295 72.2656 123.047 70.5137 123.047 68.3594V5.85938C123.047 3.70508 121.295 1.95312 119.141 1.95312ZM78.125 5.85938H89.8438V14.8164L87.8906 12.8633L83.9844 16.7695L80.0781 12.8633L78.125 14.8164V5.85938ZM48.8281 5.85938H74.2188V24.2461L80.0781 18.3867L83.9844 22.293L87.8906 18.3867L93.75 24.2461V5.85938H119.141V33.2031H87.8906V56.6406H48.8281V5.85938ZM21.4844 48.8281H25.3906V56.6406H21.4844C19.3301 56.6406 17.5781 54.8887 17.5781 52.7344C17.5781 50.5801 19.3301 48.8281 21.4844 48.8281ZM103.516 119.141H5.85938V68.3594H103.516V119.141ZM111.328 111.328H107.422V64.4531H17.5781V59.4609C18.7324 60.1328 20.0547 60.5469 21.4844 60.5469H111.328V111.328ZM115.234 68.3594V56.6406H91.7969V37.1094H119.141V68.3594H115.234Z" fill="#DB7D43"/>
    <path d="M95.7031 48.8281H115.234V52.7344H95.7031V48.8281Z" fill="#DB7D43"/>
    <path d="M95.7031 41.0156H99.6094V44.9219H95.7031V41.0156Z" fill="#DB7D43"/>
    <path d="M103.516 41.0156H115.234V44.9219H103.516V41.0156Z" fill="#DB7D43"/>
</svg>