<svg width="125" height="125" viewBox="0 0 125 125" fill="none" xmlns="http://www.w3.org/2000/svg">
    <g clip-path="url(#clip0)">
        <path d="M71.875 4.88758L69.4771 2.70841C65.5282 -0.910942 59.4677 -0.910942 55.5188 2.70841L53.125 4.88758C35.473 7.55518 19.8062 17.6492 10.0813 32.6204C0.356351 47.5916 -2.49704 66.0088 2.24169 83.2209C-0.16094 87.0605 -0.638435 91.8 0.950025 96.0417L8.28336 115.542C11.1184 123.079 19.5265 126.892 27.0646 124.058L33.2709 121.725C34.4433 123.144 36.189 123.963 38.0292 123.958C38.7814 123.958 39.5274 123.822 40.2313 123.556L48.0313 120.625C51.2613 119.409 52.8944 115.805 51.6792 112.575L35.5521 69.6813C34.9691 68.1289 33.793 66.8719 32.2828 66.1869C30.7726 65.502 29.0521 65.4452 27.5 66.0293L19.7021 68.9584C17.2185 69.8763 15.5973 72.2763 15.6729 74.923L13.3146 75.8105C12.7761 73.0653 12.5033 70.2747 12.5 67.4772C12.7936 49.6054 23.3294 33.4923 39.5834 26.0563V68.6605C39.5649 74.4356 44.225 79.1358 50 79.1668H75C80.7751 79.1358 85.4352 74.4356 85.4167 68.6605V26.0563C101.671 33.4926 112.207 49.6067 112.5 67.4792C112.498 70.2769 112.225 73.0678 111.683 75.8126L109.327 74.9272C109.405 72.2789 107.783 69.8768 105.298 68.9584L97.5 66.0293C94.2692 64.8158 90.6663 66.4508 89.4521 69.6813L73.3167 112.583C72.6796 114.301 72.832 116.212 73.7334 117.806C73.7851 117.918 73.8464 118.024 73.9167 118.125C74.6334 119.269 75.7045 120.147 76.9667 120.625L84.7646 123.558C85.4693 123.824 86.2159 123.96 86.9688 123.961H87.0709H87.098C88.7304 123.936 90.2856 123.261 91.4188 122.086C91.5875 121.998 91.75 121.902 91.9167 121.813L97.923 124.071C105.461 126.905 113.869 123.092 116.704 115.554L124.04 96.0543C125.633 91.8013 125.151 87.0483 122.735 83.2022C124.232 77.8177 124.994 72.2555 125 66.6667C124.899 35.8094 102.369 9.60925 71.875 4.88758ZM25.6 120.163C20.215 122.179 14.2136 119.458 12.1813 114.079L4.85003 94.5834C2.83243 89.1989 5.55368 83.1972 10.9334 81.1667L16.7854 78.9584L26.5209 104.856L31.4584 117.965L25.6 120.163ZM20 73.9584C20.225 73.4535 20.6441 73.0606 21.1625 72.8688L28.9584 69.9293C29.1936 69.8414 29.4427 69.7962 29.6938 69.7959C30.562 69.7962 31.339 70.335 31.6438 71.148L47.773 114.048C48.1782 115.124 47.6345 116.325 46.5584 116.731L38.7542 119.665C37.6773 120.068 36.4771 119.523 36.073 118.446L19.95 75.5459C19.7536 75.0314 19.7717 74.4596 20 73.9584ZM8.33336 67.4792C8.34156 70.7772 8.69063 74.0655 9.37503 77.2917C8.01007 77.8143 6.73179 78.5398 5.58336 79.4438C-1.23804 49.0576 17.0126 18.6717 47.0417 10.4188L43.0334 14.0647C40.9556 15.9751 39.7314 18.6395 39.6354 21.4605C20.5813 29.8126 8.33336 47.7084 8.33336 67.4792ZM75 75.0001H50C46.5252 74.9714 43.7292 72.1354 43.75 68.6605V21.8751C43.7503 20.0792 44.5065 18.3664 45.8334 17.1563L58.3334 5.7855C60.6954 3.62398 64.3171 3.62398 66.6792 5.7855L79.1792 17.1563C80.5015 18.3687 81.253 20.0812 81.25 21.8751V68.6605C81.2708 72.1354 78.4749 74.9714 75 75.0001ZM78.4334 116.731C77.3564 116.326 76.8117 115.125 77.2167 114.048L93.35 71.1459C93.755 70.069 94.9564 69.5242 96.0334 69.9293L103.833 72.8647C104.909 73.2697 105.454 74.4696 105.05 75.5459L93.5417 106.14L93.5313 106.163L88.9125 118.454C88.8514 118.58 88.7774 118.7 88.6917 118.811C88.0459 119.131 87.3813 119.448 86.7167 119.752C86.5523 119.744 86.3895 119.716 86.2313 119.671L78.4334 116.731ZM120.152 94.5834L112.819 114.083C110.787 119.463 104.785 122.183 99.4 120.167L93.5417 117.965L97.375 107.792L97.398 107.731L108.215 78.9584L112.433 80.5459C112.511 80.5887 112.591 80.6269 112.673 80.6605C112.706 80.6605 112.74 80.6605 112.775 80.673L114.067 81.1584C119.451 83.1889 122.174 89.1959 120.152 94.5834ZM119.406 79.4501C118.261 78.545 116.987 77.8174 115.625 77.2917C116.313 74.0661 116.662 70.7774 116.667 67.4792C116.667 47.7147 104.419 29.8126 85.375 21.4709C85.2791 18.6499 84.0549 15.9855 81.9771 14.0751L77.9688 10.4292C103.231 17.4713 120.739 40.4411 120.833 66.6667C120.833 70.9662 120.354 75.2523 119.406 79.4459V79.4501Z" fill="#DB7D43"/>
        <path d="M62.5001 11.7062C63.6507 11.7062 64.5834 10.7735 64.5834 9.62288C64.5834 8.47229 63.6507 7.53955 62.5001 7.53955C61.3495 7.53955 60.4167 8.47229 60.4167 9.62288C60.4167 10.7735 61.3495 11.7062 62.5001 11.7062Z" fill="#DB7D43"/>
        <path d="M60.4167 35.4167C60.4167 31.965 57.6185 29.1667 54.1667 29.1667C50.715 29.1667 47.9167 31.965 47.9167 35.4167C47.9167 38.8685 50.715 41.6667 54.1667 41.6667C57.6185 41.6667 60.4167 38.8685 60.4167 35.4167ZM52.0834 35.4167C52.0834 34.2662 53.0162 33.3334 54.1667 33.3334C55.3173 33.3334 56.2501 34.2662 56.2501 35.4167C56.2501 36.5673 55.3173 37.5001 54.1667 37.5001C53.0162 37.5001 52.0834 36.5673 52.0834 35.4167Z" fill="#DB7D43"/>
        <path d="M70.8333 47.9167C67.3815 47.9167 64.5833 50.715 64.5833 54.1667C64.5833 57.6185 67.3815 60.4167 70.8333 60.4167C74.285 60.4167 77.0833 57.6185 77.0833 54.1667C77.0833 50.715 74.285 47.9167 70.8333 47.9167ZM70.8333 56.2501C69.6827 56.2501 68.7499 55.3173 68.7499 54.1667C68.7499 53.0162 69.6827 52.0834 70.8333 52.0834C71.9838 52.0834 72.9166 53.0162 72.9166 54.1667C72.9166 55.3173 71.9838 56.2501 70.8333 56.2501Z" fill="#DB7D43"/>
        <path d="M74.3188 31.7917C73.91 31.4197 73.3702 31.2254 72.8181 31.2516C72.2659 31.2778 71.7469 31.5223 71.3751 31.9313L50.5418 54.848C50.0409 55.3988 49.8718 56.1749 50.0984 56.8841C50.3249 57.5933 50.9126 58.1278 51.64 58.2862C52.3675 58.4446 53.1242 58.2029 53.6251 57.6521L74.4584 34.7355C74.8304 34.3267 75.0247 33.7868 74.9985 33.2347C74.9724 32.6826 74.7279 32.1635 74.3188 31.7917Z" fill="#DB7D43"/>
    </g>
    <defs>
        <clipPath id="clip0">
            <rect width="125" height="125" fill="white"/>
        </clipPath>
    </defs>
</svg>