<svg width="125" height="125" viewBox="0 0 125 125" fill="none" xmlns="http://www.w3.org/2000/svg">
    <g clip-path="url(#clip0)">
        <path d="M26.8148 121.144L23.1393 115.967C22.359 114.868 20.8348 114.609 19.7352 115.39C18.6359 116.17 18.3771 117.694 19.1579 118.794L22.8334 123.971C23.3095 124.642 24.0619 124.999 24.8263 124.999C25.3151 124.999 25.8085 124.853 26.2374 124.548C27.3368 123.768 27.5956 122.244 26.8148 121.144Z" fill="#DB7D43"/>
        <path d="M54.9817 122.057L50.9817 102.992C49.0367 93.7217 43.6363 85.7056 35.776 80.4202L27.2357 74.6776C23.8112 72.3753 19.2082 72.8705 16.3459 75.7891V46.3713C16.3459 42.51 13.7133 39.2292 9.94381 38.3926C7.51096 37.852 5.00169 38.4375 3.05809 39.9968C1.11474 41.5561 0.000244141 43.8796 0.000244141 46.3713V84.2256C0.000244141 89.1848 1.51782 93.9439 4.38865 97.988L8.7424 104.121C9.21847 104.792 9.97091 105.149 10.7353 105.149C11.2241 105.149 11.7175 105.003 12.1464 104.698C13.2458 103.918 13.5046 102.394 12.7238 101.294L8.37008 95.1614C6.08884 91.9478 4.88304 88.1663 4.88304 84.2254V46.3713C4.88304 45.3684 5.33177 44.4331 6.11399 43.8051C6.89597 43.1775 7.90597 42.9419 8.88595 43.1594C10.4033 43.4961 11.4631 44.8169 11.4631 46.3713V76.4044C11.4631 80.6558 13.0251 84.7063 15.8627 87.8577C15.9843 88.0035 16.1093 88.1477 16.2414 88.2876C17.8627 90.0056 19.769 92.03 21.5644 93.9382L24.0778 96.6133C24.0858 96.6218 24.0946 96.6292 24.1029 96.6375C26.2531 98.9243 27.8388 100.613 27.872 100.648C28.7946 101.631 30.34 101.68 31.3229 100.757C32.3058 99.8335 32.3544 98.2886 31.431 97.3057C31.3866 97.2583 28.5287 94.2151 25.265 90.7461L19.6672 84.7884C19.653 84.7732 19.6401 84.7574 19.6259 84.7422C18.3134 83.1724 18.3298 80.8963 19.7055 79.3431C20.9225 77.9696 22.9889 77.7059 24.5116 78.7296L33.0514 84.4722C39.8502 89.0437 44.5208 95.9768 46.2029 103.995L50.2032 123.059C50.4446 124.21 51.4595 125 52.5901 125C52.7561 125 52.9248 124.983 53.0938 124.947C54.4134 124.671 55.2586 123.376 54.9817 122.057Z" fill="#DB7D43"/>
        <path d="M18.0881 108.851L18.0725 108.829C17.2888 107.732 15.7644 107.477 14.667 108.26C13.5696 109.043 13.3147 110.568 14.0976 111.665L14.1133 111.687C14.5898 112.355 15.3406 112.711 16.1028 112.711C16.5935 112.711 17.0888 112.564 17.5188 112.257C18.6159 111.474 18.8711 109.949 18.0881 108.851Z" fill="#DB7D43"/>
        <path d="M121.942 39.9971C119.998 38.4378 117.488 37.8533 115.056 38.3929C111.287 39.2293 108.654 42.5103 108.654 46.3716V75.7895C105.792 72.8708 101.188 72.3757 97.7641 74.6779L89.2238 80.4203C81.3633 85.7055 75.9631 93.7218 74.0181 102.992L70.0181 122.057C69.7412 123.376 70.5865 124.671 71.906 124.948C72.075 124.983 72.2439 125 72.4097 125C73.5405 125 74.5552 124.21 74.7966 123.059L78.7966 103.995C80.479 95.9769 85.1494 89.0436 91.9482 84.4723L100.488 78.7299C102.011 77.706 104.077 77.9697 105.295 79.3432C106.669 80.8944 106.687 83.1669 105.379 84.7367C105.364 84.7538 105.349 84.7714 105.333 84.7885C105.333 84.7885 93.6132 97.2589 93.569 97.3058C92.6459 98.2887 92.6945 99.8336 93.6772 100.757C94.6601 101.68 96.205 101.631 97.1281 100.648C97.1613 100.613 107.137 90.006 108.759 88.288C108.891 88.1481 109.016 88.0038 109.137 87.8581C111.975 84.7067 113.537 80.6562 113.537 76.4047V46.3714C113.537 44.8169 114.597 43.4961 116.114 43.1595C117.094 42.9422 118.104 43.1778 118.886 43.8052C119.669 44.4329 120.117 45.3682 120.117 46.3714V84.2257C120.117 88.1666 118.911 91.9481 116.63 95.1617L98.1852 121.145C97.4047 122.244 97.6632 123.768 98.7626 124.549C99.1918 124.853 99.685 125 100.174 125C100.938 125 101.691 124.642 102.167 123.971L120.612 97.9884C123.482 93.9442 125 89.1852 125 84.226V46.3714C124.999 43.8797 123.885 41.5565 121.942 39.9971Z" fill="#DB7D43"/>
        <path d="M93.422 46.7919L89.0785 45.7543V44.9755C91.9015 42.9979 93.7525 39.7233 93.7525 36.0226V30.3759C93.7525 24.3508 88.8509 19.4492 82.8258 19.4492C80.122 19.4492 77.6464 20.4384 75.7365 22.0713C73.61 16.8638 68.4934 13.1836 62.5305 13.1836C56.5603 13.1836 51.4382 16.8733 49.3167 22.0908C47.4038 20.4463 44.9192 19.4487 42.2044 19.4487C36.1793 19.4487 31.2777 24.3503 31.2777 30.3754V30.7507V36.0221C31.2777 39.7228 33.1287 42.9974 35.9517 44.975V45.7538L31.6082 46.7914C26.4222 48.0304 22.8002 52.6195 22.8002 57.9515V62.511C22.8002 63.8594 23.8934 64.9524 25.2416 64.9524H36.4603C36.4429 65.2486 36.431 65.5462 36.431 65.8462V74.625C36.431 75.9734 37.5242 77.0664 38.8724 77.0664H53.5476C54.8957 77.0664 55.989 75.9734 55.989 74.625C55.989 73.2766 54.8957 72.1836 53.5476 72.1836H51.0252V67.1385C51.0252 65.7901 49.9319 64.6971 48.5838 64.6971C47.2356 64.6971 46.1424 65.7901 46.1424 67.1385V72.1841H41.314V65.8467C41.314 61.138 44.5122 57.0831 49.0908 55.9859L55.7905 54.3805L60.2741 64.5811C60.6638 65.4676 61.5407 66.0401 62.5088 66.0401H62.509C63.4773 66.0401 64.3542 65.4678 64.7439 64.5813L69.2228 54.3958L75.9013 55.9913C80.4843 57.0863 83.6852 61.1417 83.6852 65.8538V72.1841H78.8568V67.1385C78.8568 65.7901 77.7636 64.6971 76.4154 64.6971C75.0673 64.6971 73.974 65.7901 73.974 67.1385V72.1841H71.2072C69.8591 72.1841 68.7658 73.2771 68.7658 74.6255C68.7658 75.9739 69.8591 77.0669 71.2072 77.0669H86.1268C87.475 77.0669 88.5682 75.9739 88.5682 74.6255V65.8538C88.5682 65.5513 88.556 65.2515 88.5384 64.9529H99.7889C101.137 64.9529 102.23 63.8599 102.23 62.5115V57.952C102.23 52.62 98.6082 48.0306 93.422 46.7919ZM82.8258 24.3315C86.0245 24.3315 88.6505 26.8293 88.8565 29.9767H85.4623C82.6088 29.9767 79.8007 29.2897 77.2765 27.9816C78.205 25.8361 80.3432 24.3315 82.8258 24.3315ZM76.7819 35.6657C76.7848 35.5468 76.7909 35.4284 76.7909 35.3088V33.1344C79.5304 34.2682 82.4764 34.8595 85.4623 34.8595H88.8697V36.0224C88.8697 39.3549 86.1586 42.0663 82.8258 42.0663C79.4931 42.0663 76.7819 39.3549 76.7819 36.0221V35.6657ZM53.1531 27.4438C53.1531 22.2732 57.3596 18.0664 62.5305 18.0664C67.1943 18.0664 71.0734 21.4887 71.7897 25.9536L67.6796 23.5388C66.6516 22.9348 65.3376 23.1616 64.5717 24.0759C62.5632 26.4728 59.6176 27.8476 56.4902 27.8476H53.1531V27.4438ZM42.2046 24.3315C44.6873 24.3315 46.8252 25.8364 47.7539 27.9814C45.2295 29.2895 42.4217 29.9765 39.5682 29.9765H36.1739C36.38 26.8293 39.0062 24.3315 42.2046 24.3315ZM36.1607 34.8593H39.5682C42.5572 34.8593 45.5064 34.2668 48.2486 33.1305V36.0219C48.2486 39.3544 45.5374 42.0658 42.2046 42.0658C38.8719 42.0658 36.1607 39.3549 36.1607 36.0221V34.8593ZM47.9531 51.2374C43.1499 52.3883 39.3751 55.7371 37.5784 60.0699H27.683V57.9517C27.683 54.8888 29.7635 52.2523 32.7428 51.5406L38.9605 50.0553C40.0594 49.7928 40.8348 48.8106 40.8348 47.6808V46.86C41.284 46.9164 41.7405 46.9488 42.2046 46.9488C42.6653 46.9488 43.1187 46.9169 43.5645 46.8612V47.5577C43.5628 47.5941 43.562 47.6305 43.5618 47.6669C43.5613 48.4679 43.9551 49.2525 44.6783 49.7203C44.9507 49.8968 45.2451 50.0116 45.5457 50.0689L49.1875 50.9415L47.9531 51.2374ZM54.7632 47.4474C54.136 47.1708 53.4822 46.9496 52.8084 46.7882L48.447 45.743V44.9823C49.2341 44.4323 49.9458 43.7821 50.563 43.0492C51.6533 44.7289 53.0859 46.1652 54.7632 47.2591V47.4474ZM65.3667 51.0345L62.5097 57.5323L59.6462 51.0179V49.2757C60.5781 49.4679 61.5427 49.5692 62.5305 49.5692C63.5014 49.5692 64.4497 49.4708 65.3667 49.285V51.0345ZM62.5305 44.6862C57.3596 44.6864 53.1531 40.4796 53.1531 35.3088V32.7301H56.4902C60.3618 32.7301 64.0429 31.2905 66.8642 28.7226L71.8989 31.6806V35.6659C71.7104 40.6715 67.5817 44.6862 62.5305 44.6862ZM70.2494 47.4552V47.2899C71.9404 46.1966 73.3857 44.7567 74.4845 43.0697C75.0976 43.7943 75.8031 44.4374 76.5827 44.9823V45.743L72.2211 46.7882C71.5414 46.9513 70.882 47.1752 70.2494 47.4552ZM97.3472 60.0699H87.4181C85.6198 55.7371 81.8422 52.3902 77.036 51.242L75.8102 50.9493L79.4716 50.0719C79.7763 50.0152 80.0756 49.899 80.3517 49.7203C81.0736 49.2533 81.4662 48.4686 81.4662 47.6676C81.4662 47.6485 81.466 47.6293 81.4655 47.6102V46.8612C81.9115 46.9169 82.3646 46.9488 82.8253 46.9488C83.2894 46.9488 83.746 46.9164 84.1952 46.86V47.6808C84.1952 48.8106 84.9706 49.7928 86.0694 50.0553L92.2872 51.5406C95.2664 52.2525 97.3472 54.8888 97.3472 57.9517V60.0699Z" fill="#DB7D43"/>
        <path d="M64.2256 72.8977C63.7693 72.4436 63.1418 72.1848 62.4997 72.1848C61.855 72.1848 61.2278 72.4436 60.7737 72.8977C60.3171 73.3542 60.0583 73.9817 60.0583 74.6262C60.0583 75.2683 60.3171 75.8957 60.7737 76.3523C61.2278 76.8064 61.8552 77.0676 62.4997 77.0676C63.1418 77.0676 63.7693 76.8064 64.2256 76.3523C64.6797 75.8957 64.9411 75.2683 64.9411 74.6262C64.9411 73.9817 64.6799 73.3542 64.2256 72.8977Z" fill="#DB7D43"/>
        <path d="M62.498 0C61.1499 0 60.0566 1.09301 60.0566 2.4414V6.09446C60.0566 7.44284 61.1499 8.53586 62.498 8.53586C63.8462 8.53586 64.9394 7.44284 64.9394 6.09446V2.4414C64.9394 1.09301 63.8464 0 62.498 0Z" fill="#DB7D43"/>
        <path d="M53.5049 7.96364L50.9439 5.40506C49.99 4.45194 48.4444 4.45267 47.4912 5.40652C46.5381 6.36038 46.5391 7.90627 47.4929 8.85915L50.0542 11.4177C50.5308 11.894 51.1553 12.1321 51.7796 12.1321C52.4048 12.1321 53.0298 11.8933 53.5066 11.4163C54.4592 10.4624 54.4587 8.91652 53.5049 7.96364Z" fill="#DB7D43"/>
        <path d="M77.4465 5.46744C76.4926 4.51456 74.9465 4.51505 73.9938 5.46914L71.4526 8.01284C70.4997 8.96669 70.5004 10.5126 71.4543 11.4655C71.9311 11.9418 72.5554 12.1798 73.1799 12.1798C73.8051 12.1798 74.4304 11.941 74.9069 11.4638L77.4482 8.92006C78.401 7.96621 78.4003 6.42031 77.4465 5.46744Z" fill="#DB7D43"/>
    </g>
    <defs>
        <clipPath id="clip0">
            <rect width="125" height="125" fill="white"/>
        </clipPath>
    </defs>
</svg>