<svg width="125" height="125" viewBox="0 0 125 125" fill="none" xmlns="http://www.w3.org/2000/svg">
    <g clip-path="url(#clip0)">
        <path d="M120.875 81.5488L109.247 36.7146C111.677 35.7981 113.41 33.4499 113.41 30.7036C113.41 27.7983 111.47 25.3386 108.818 24.5483V20.2456H111.636C114.329 20.2456 116.519 18.0552 116.519 15.3628C116.519 12.6704 114.329 10.48 111.636 10.48H108.812C108.742 9.53223 107.953 8.78467 106.988 8.78467C106.022 8.78467 105.233 9.53247 105.163 10.48H103.277C98.6973 10.48 94.5813 13.1958 92.7908 17.3989C91.3162 20.8611 88.8872 22.5439 85.365 22.5439C82.3289 22.5439 80.7476 21.6162 79.9553 20.8381C77.7842 18.7051 74.9316 17.5303 71.9233 17.5303H67.5793L67.551 16.5093C69.2122 15.0837 70.2673 12.9712 70.2673 10.6157C70.2673 6.33276 66.783 2.84839 62.5 2.84839C58.217 2.84839 54.7327 6.33276 54.7327 10.6157C54.7327 12.9714 55.7881 15.084 57.4495 16.5095L57.4211 17.5303H53.0767C50.0684 17.5303 47.2158 18.7051 45.0447 20.8381C44.2524 21.6165 42.6709 22.5439 39.6348 22.5439C36.1128 22.5439 33.6838 20.8608 32.209 17.3989C30.4187 13.1958 26.3025 10.48 21.7224 10.48H19.8364C19.7668 9.53223 18.9778 8.78467 18.0122 8.78467C17.0466 8.78467 16.2576 9.53247 16.188 10.48H13.3633C10.6709 10.48 8.48047 12.6704 8.48047 15.3628C8.48047 18.0552 10.6709 20.2456 13.3633 20.2456H16.1812V24.5486C13.5293 25.3389 11.5896 27.7986 11.5896 30.7036C11.5896 33.4499 13.3228 35.7983 15.7524 36.7146L4.12549 81.5488C1.80103 81.8567 0 83.8467 0 86.2539V87.4392C0 94.125 5.43921 99.5642 12.125 99.5642H23.8994C30.5852 99.5642 36.0244 94.125 36.0244 87.4392V86.2539C36.0244 83.8467 34.2234 81.8567 31.8989 81.5488L20.272 36.7144C22.7014 35.7978 24.4346 33.4497 24.4346 30.7034C24.4346 27.7981 22.4949 25.3386 19.843 24.5483V20.2454H21.7222C22.3809 20.2454 22.9705 20.6304 23.2241 21.2258C23.5193 21.9187 23.8533 22.6028 24.2168 23.259C24.707 24.1436 25.8213 24.4631 26.7058 23.9734C27.5903 23.4834 27.9102 22.3689 27.4202 21.4844C27.1174 20.9382 26.8394 20.3684 26.5933 19.7908C25.7632 17.8423 23.8511 16.5833 21.7219 16.5833H19.8428V14.1418H21.7219C24.8313 14.1418 27.6252 15.9836 28.8394 18.834C30.8938 23.6567 34.6267 26.2058 39.6343 26.2058C43.9082 26.2058 46.3308 24.7073 47.6106 23.4502C49.0928 21.9939 51.0337 21.1919 53.0762 21.1919H57.3186L57.2507 23.6333H53.0762C51.6777 23.6333 50.3442 24.1868 49.3218 25.1916C47.717 26.7681 44.7339 28.6472 39.6345 28.6472C37.0625 28.6472 34.7378 28.0796 32.7246 26.96C31.8406 26.468 30.7258 26.7864 30.2344 27.6702C29.7427 28.554 30.0608 29.6689 30.9446 30.1604C33.5085 31.5864 36.4321 32.3096 39.6345 32.3096C45.9719 32.3096 49.7961 29.8596 51.8882 27.8042C52.2219 27.4763 52.6438 27.2957 53.0762 27.2957H57.1487L56.0564 66.5347C53.9929 68.3352 52.6853 70.9812 52.6853 73.9285C52.6853 74.9827 52.8589 76.0176 53.1843 77.0032C51.2463 77.4077 49.7856 79.1287 49.7856 81.1851V84.3157C49.7856 86.6714 51.7024 88.5881 54.0581 88.5881H55.4426L55.0784 101.673H41.8691C38.8401 101.673 36.376 104.137 36.376 107.166V109.649H30.2156C27.8599 109.649 25.9431 111.565 25.9431 113.921V117.879C25.9431 120.235 27.8599 122.152 30.2156 122.152H94.7842C97.1399 122.152 99.0566 120.235 99.0566 117.879V113.921C99.0566 111.565 97.1399 109.649 94.7842 109.649H88.6238V107.166C88.6238 104.137 86.1594 101.673 83.1306 101.673H69.9214L69.5571 88.5881H70.9417C73.2974 88.5881 75.2141 86.6714 75.2141 84.3157V81.1851C75.2141 79.1287 73.7534 77.4077 71.8154 77.0032C72.1409 76.0176 72.3145 74.9824 72.3145 73.9282C72.3145 70.981 71.0068 68.335 68.9431 66.5344L68.7073 58.0613C68.6792 57.0503 67.8462 56.2542 66.8259 56.2817C65.8149 56.3098 65.0186 57.1521 65.0466 58.1631L65.2229 64.501C64.3577 64.2505 63.4446 64.1138 62.4998 64.1138C61.5549 64.1138 60.6418 64.2507 59.7766 64.501L61.0642 18.2476C61.5298 18.335 62.009 18.3828 62.4998 18.3828C62.9905 18.3828 63.47 18.335 63.9355 18.2476L64.8064 49.5264C64.834 50.52 65.6479 51.3066 66.6357 51.3066C66.6528 51.3066 66.6704 51.3064 66.6877 51.3059C67.6987 51.2778 68.4951 50.4355 68.467 49.4246L67.8511 27.2957H71.9233C72.3557 27.2957 72.7776 27.4761 73.1113 27.8042C75.2034 29.8594 79.0276 32.3096 85.365 32.3096C92.9023 32.3096 98.7305 28.3733 101.775 21.2263C102.029 20.6306 102.619 20.2456 103.277 20.2456H105.156V24.5486C102.505 25.3391 100.565 27.7986 100.565 30.7036C100.565 33.4499 102.298 35.7983 104.728 36.7146L93.1013 81.5488C90.7769 81.8567 88.9758 83.8467 88.9758 86.2539V87.4392C88.9758 94.125 94.415 99.5642 101.101 99.5642H112.875C119.561 99.5642 125 94.125 125 87.4392V86.2539C125 83.8467 123.199 81.8567 120.875 81.5488ZM18.0122 42.5891L28.1035 81.5027H7.92041L18.0122 42.5891ZM23.8994 95.9021H12.125C8.97095 95.9021 6.21631 94.1665 4.76074 91.6013H31.2634C29.8081 94.1665 27.0535 95.9021 23.8994 95.9021ZM32.3623 87.4392C32.3623 87.6072 32.356 87.7737 32.3462 87.9392H3.67822C3.66846 87.7737 3.66211 87.6072 3.66211 87.4392V86.2539C3.66211 85.6533 4.15063 85.1648 4.75122 85.1648H31.2732C31.8738 85.1648 32.3623 85.6533 32.3623 86.2539V87.4392ZM20.7725 30.7034C20.7725 32.2256 19.5342 33.4639 18.012 33.4639C16.4897 33.4639 15.2515 32.2256 15.2515 30.7034C15.2515 29.1814 16.4897 27.9429 18.012 27.9429C19.5342 27.9429 20.7725 29.1814 20.7725 30.7034ZM16.1812 16.5833H13.363C12.6899 16.5833 12.1423 16.0356 12.1423 15.3625C12.1423 14.6895 12.6899 14.1418 13.363 14.1418H16.1809V16.5833H16.1812ZM84.9617 107.166V109.649H52.917C51.9058 109.649 51.0859 110.468 51.0859 111.48C51.0859 112.491 51.9058 113.311 52.917 113.311H94.7842C95.1208 113.311 95.3945 113.585 95.3945 113.921V117.879C95.3945 118.216 95.1208 118.49 94.7842 118.49H30.2158C29.8794 118.49 29.6055 118.216 29.6055 117.879V113.921C29.6055 113.585 29.8794 113.311 30.2158 113.311H44.2756C45.2869 113.311 46.1067 112.491 46.1067 111.48C46.1067 110.468 45.2869 109.649 44.2756 109.649H40.0383V107.166C40.0383 106.156 40.8596 105.335 41.8694 105.335H83.1306C84.1404 105.335 84.9617 106.156 84.9617 107.166ZM66.2581 101.673H58.7422L59.1064 88.5881H65.894L66.2581 101.673ZM71.552 84.3154C71.552 84.6518 71.2783 84.9258 70.9417 84.9258H54.0583C53.7219 84.9258 53.448 84.6518 53.448 84.3154V81.1848C53.448 80.8484 53.7219 80.5745 54.0583 80.5745H70.9417C71.2783 80.5745 71.552 80.8484 71.552 81.1848V84.3154ZM68.6523 73.9282C68.6523 74.9802 68.3855 76.0034 67.8792 76.9126H57.1211C56.6147 76.0034 56.3477 74.9805 56.3477 73.9282C56.3477 70.5356 59.1077 67.7759 62.5 67.7759C65.8923 67.7759 68.6523 70.5359 68.6523 73.9282ZM58.3948 10.6155C58.3948 8.35181 60.2363 6.51025 62.5 6.51025C64.7637 6.51025 66.6052 8.35181 66.6052 10.6155C66.6052 12.8791 64.7634 14.7207 62.5 14.7207C60.2366 14.7207 58.3948 12.8791 58.3948 10.6155ZM112.857 15.3625C112.857 16.0356 112.31 16.5833 111.637 16.5833H108.819V14.1418H111.637C112.31 14.1418 112.857 14.6895 112.857 15.3625ZM103.277 16.5833C101.148 16.5833 99.2361 17.8423 98.406 19.7908C95.9377 25.5847 91.4282 28.6472 85.365 28.6472C80.2654 28.6472 77.2825 26.7681 75.6777 25.1919C74.6553 24.1868 73.3218 23.6333 71.9231 23.6333H67.749L67.6812 21.1919H71.9231C73.9656 21.1919 75.9065 21.9939 77.3889 23.4502C78.6685 24.7073 81.0911 26.2058 85.365 26.2058C90.3728 26.2058 94.1057 23.6567 96.1602 18.834C97.3743 15.9836 100.168 14.1418 103.277 14.1418H105.156V16.5833H103.277ZM117.079 81.5027H96.8965L106.988 42.5894L117.079 81.5027ZM106.988 27.9431C108.51 27.9431 109.749 29.1814 109.749 30.7036C109.749 32.2258 108.51 33.4641 106.988 33.4641C105.466 33.4641 104.227 32.2258 104.227 30.7036C104.227 29.1814 105.466 27.9431 106.988 27.9431ZM92.6377 86.2539C92.6377 85.6533 93.1262 85.1648 93.7268 85.1648H120.249C120.849 85.1648 121.338 85.6533 121.338 86.2539V87.4392C121.338 87.6072 121.332 87.7737 121.322 87.9392H92.6538C92.644 87.7737 92.6377 87.6072 92.6377 87.4392V86.2539ZM112.875 95.9021H101.101C97.9465 95.9021 95.1919 94.1665 93.7363 91.6013H120.239C118.784 94.1665 116.029 95.9021 112.875 95.9021Z" fill="#DB7D43"/>
    </g>
    <defs>
        <clipPath id="clip0">
            <rect width="125" height="125" fill="white"/>
        </clipPath>
    </defs>
</svg>