<svg width="125" height="125" viewBox="0 0 125 125" fill="none" xmlns="http://www.w3.org/2000/svg">
    <g clip-path="url(#clip0)">
        <path d="M119.633 76.929C119.011 75.9532 118.985 74.2992 119.909 73.1274C120.937 71.5239 121.244 69.5491 120.751 67.7093C120.258 65.8695 119.005 64.3127 117.313 63.4382C116.086 62.9663 114.926 61.4566 115.196 59.7728C115.285 57.8703 114.563 56.0066 113.217 54.6597C111.87 53.3128 110.006 52.5902 108.103 52.6798C106.805 52.8843 105.046 52.1563 104.439 50.5636C103.564 48.8715 102.007 47.6186 100.167 47.1255C98.3271 46.6323 96.3526 46.9392 94.7494 47.9673C93.7277 48.7939 91.8395 49.0434 90.5171 47.9673C88.9136 46.9395 86.9388 46.6328 85.099 47.1255C83.2592 47.6186 81.7024 48.8715 80.8274 50.5636C80.356 51.7909 78.8434 52.9495 77.1623 52.6795C75.2615 52.5914 73.3963 53.3128 72.0494 54.6594C70.7025 56.0063 69.9809 57.8698 70.0695 59.7723C70.2743 61.0709 69.5465 62.8301 67.9533 63.4377C66.2615 64.3124 65.0084 65.8693 64.5152 67.7091C64.0223 69.5489 64.3292 71.5236 65.357 73.1269C66.1836 74.149 66.4334 76.0367 65.357 77.3592C64.3292 78.9626 64.0223 80.9374 64.5152 82.7772C65.0084 84.617 66.2612 86.1738 67.9533 87.0486C69.1806 87.5202 70.3392 89.0302 70.0692 90.7137C69.9806 92.6163 70.7023 94.48 72.0491 95.8269C73.6743 97.5712 76.1157 97.8326 78.6007 97.8822H26.804C25.015 97.8822 23.5595 96.4267 23.5595 94.6377V70.8735H26.4514C27.4626 70.8735 28.2824 70.0537 28.2824 69.0425C28.2824 68.0313 27.4626 67.2115 26.4514 67.2115H23.5595V25.1936H26.4514C27.4626 25.1936 28.2824 24.3738 28.2824 23.3626C28.2824 22.3514 27.4626 21.5316 26.4514 21.5316H23.5595V6.90652C23.5595 5.11752 25.015 3.662 26.804 3.662H94.3775C96.1653 3.662 97.6196 5.11752 97.6196 6.90652V40.135C97.6196 41.1462 98.4394 41.966 99.4506 41.966C100.462 41.966 101.282 41.1462 101.282 40.135V6.90652C101.282 3.09829 98.1843 0 94.3775 0H26.804C22.9957 0 19.8975 3.09829 19.8975 6.90652V7.63648H18.3448C14.5365 7.63648 11.4382 10.7338 11.4382 14.5406V21.7159C7.21108 22.5723 4.01904 26.3161 4.01904 30.792C4.01904 35.2679 7.21108 39.0117 11.4382 39.8681V67.3963C7.21108 68.2528 4.01904 71.9965 4.01904 76.4725C4.01904 80.9484 7.21108 84.6922 11.4382 85.5486V102.274C11.4382 106.081 14.5365 109.178 18.3448 109.178H71.7005C72.7117 109.178 73.5315 108.359 73.5315 107.347C73.5315 106.336 72.7117 105.516 71.7005 105.516H18.3448C16.5558 105.516 15.1002 104.062 15.1002 102.274V70.874H19.8975V94.6382C19.8975 98.4464 22.9955 101.545 26.804 101.545H78.7994V120.453C78.7958 122.723 80.7081 124.981 83.3403 125C84.1445 125 84.9474 124.781 85.6745 124.344L92.632 120.166L99.59 124.344C101.012 125.197 102.722 125.219 104.164 124.402C105.606 123.586 106.467 122.109 106.467 120.453V97.9388C108.487 97.7526 111.493 97.8051 113.217 95.8269C114.564 94.48 115.285 92.6165 115.197 90.7142C114.992 89.4157 115.719 87.6562 117.313 87.0488C119.005 86.1741 120.258 84.6175 120.751 82.7777C121.244 80.9379 120.937 78.9631 119.909 77.3594L119.633 76.929ZM18.3448 11.2985H19.8975V21.5316H15.1002V14.5406C15.1002 12.7528 16.5558 11.2985 18.3448 11.2985ZM7.68104 76.4727C7.68104 74.0306 9.25325 71.9499 11.4382 71.1865V81.7587C9.25325 80.9953 7.68104 78.9148 7.68104 76.4727ZM15.1002 67.212V32.2617C15.1002 31.2505 14.2804 30.4307 13.2692 30.4307C12.258 30.4307 11.4382 31.2505 11.4382 32.2617V36.0782C9.25325 35.3148 7.68104 33.2343 7.68104 30.7923C7.68104 27.7049 10.1927 25.1936 13.2797 25.1936H19.8975V67.212H15.1002ZM102.36 121.216C102.226 121.292 101.871 121.442 101.475 121.205L93.5746 116.461C92.9945 116.113 92.2695 116.113 91.6894 116.461L83.789 121.205C83.3642 121.342 82.8237 121.58 82.4614 120.453V101.973C83.2204 102.619 84.1188 103.099 85.0988 103.361C86.9381 103.854 88.9131 103.548 90.5171 102.519C93.5556 100.155 96.4878 104.837 100.167 103.361C101.147 103.099 102.046 102.618 102.805 101.973V120.453C102.805 120.914 102.494 121.14 102.36 121.216ZM117.214 81.83C116.983 82.6893 116.421 83.3873 115.631 83.796C113.061 84.8977 111.181 87.8945 111.538 90.8846C111.58 91.7733 111.256 92.6089 110.627 93.2381C109.998 93.8672 109.165 94.1929 108.273 94.1494C105.533 93.8608 102.473 95.3276 101.185 98.2421C100.777 99.0323 100.078 99.5943 99.2189 99.8245C98.3594 100.055 97.4741 99.9171 96.7251 99.4371C94.4957 97.7972 91.092 97.5739 88.5401 99.4371C87.7911 99.9173 86.9056 100.055 86.0463 99.8245C85.1869 99.5943 84.4889 99.0323 84.0805 98.2423C82.9822 95.7509 80.1807 93.8098 76.9919 94.1497C76.1025 94.1897 75.2675 93.8672 74.6384 93.2383C74.0093 92.6094 73.6858 91.7735 73.7271 90.8846C74.0574 88.1086 72.4029 84.982 69.6344 83.7962C68.8442 83.3878 68.2822 82.6896 68.052 81.8302C67.8217 80.9709 67.9594 80.0854 68.4394 79.3364C70.1019 77.1194 70.2448 73.5619 68.4394 71.1511C67.9592 70.4023 67.8217 69.5166 68.052 68.6573C68.2822 67.7979 68.8442 67.1 69.6347 66.6913C72.2042 65.5895 74.0845 62.5928 73.7271 59.6029C73.6858 58.714 74.0095 57.8783 74.6384 57.2492C75.2675 56.6201 76.1071 56.2993 76.9916 56.3378C79.7677 56.6701 82.8948 55.0139 84.0805 52.2454C84.4889 51.4552 85.1872 50.8932 86.0465 50.663C86.9059 50.4323 87.7916 50.5704 88.5401 51.0502C90.7573 52.713 94.3148 52.8555 96.7254 51.0502C97.4741 50.5702 98.3596 50.432 99.2189 50.6627C100.078 50.8929 100.777 51.4549 101.185 52.2454C102.287 54.8145 105.282 56.6962 108.274 56.3378C109.164 56.298 109.998 56.6203 110.627 57.2492C111.256 57.8781 111.58 58.714 111.539 59.6029C111.208 62.3792 112.863 65.5055 115.631 66.6913C116.421 67.0997 116.983 67.7979 117.214 68.6573C117.444 69.5166 117.306 70.4021 116.826 71.1511C115.164 73.3681 115.02 76.9253 116.826 79.3359C117.306 80.0849 117.444 80.9706 117.214 81.83Z" fill="#DB7D43"/>
        <path d="M92.6328 55.5757C81.7879 55.5757 72.9647 64.3986 72.9647 75.2438C72.9647 86.0889 81.7879 94.9118 92.6328 94.9118C103.478 94.9118 112.301 86.0886 112.301 75.2438C112.301 64.3989 103.478 55.5757 92.6328 55.5757ZM92.6328 91.2496C83.8072 91.2496 76.6267 84.0692 76.6267 75.2435C76.6267 66.4179 83.8072 59.2374 92.6328 59.2374C101.458 59.2374 108.639 66.4176 108.639 75.2435C108.639 84.0694 101.458 91.2496 92.6328 91.2496Z" fill="#DB7D43"/>
        <path d="M100.369 70.84L97.1188 69.8286L95.2368 66.992C94.6809 66.1539 93.7486 65.6449 92.743 65.6297C91.7391 65.6151 90.7904 66.0958 90.2099 66.9165L88.2434 69.6953L84.9639 70.6088C83.9952 70.8786 83.2228 71.608 82.8978 72.5597C82.5729 73.5113 82.7377 74.5606 83.339 75.3665L85.3741 78.0954L85.2293 81.4967C85.1866 82.5013 85.6414 83.4609 86.4461 84.0642C87.2505 84.6674 88.2995 84.8349 89.2519 84.5122L92.4761 83.4199L95.666 84.6086C96.3237 84.8525 97.4025 84.9301 98.4838 84.2449C99.306 83.666 99.7896 82.7202 99.777 81.7147L99.7345 78.311L101.851 75.6443C102.476 74.8565 102.672 73.8126 102.375 72.8517C102.079 71.8905 101.329 71.1386 100.369 70.84ZM96.7304 76.2056C96.2961 76.7529 96.0617 77.4392 96.0703 78.1379L96.1045 80.8636L93.5496 79.9117C93.2076 79.7845 92.8467 79.7206 92.4857 79.7206C92.1551 79.7206 91.8243 79.774 91.5084 79.8812L88.9265 80.7559L89.0424 78.0319C89.072 77.3337 88.8581 76.6408 88.4406 76.081L86.811 73.8958L89.4362 73.1646C90.11 72.9771 90.7033 72.5594 91.1068 71.9891L92.6815 69.7639L94.1887 72.0355C94.575 72.6175 95.155 73.0526 95.822 73.2603H95.8225L98.4254 74.0704L96.7304 76.2056Z" fill="#DB7D43"/>
        <path d="M86.1929 40.0529C87.2041 40.0529 88.0239 39.2331 88.0239 38.2219C88.0239 37.2107 87.2041 36.3909 86.1929 36.3909H83.0455L83.9566 19.3524C84.0116 18.3253 83.6373 17.3085 82.9298 16.5622C82.2223 15.8159 81.2267 15.3879 80.1985 15.3879H70.8636C69.8353 15.3879 68.8397 15.8159 68.1322 16.5625C67.4247 17.309 67.0504 18.3258 67.1054 19.3527L67.517 27.0502C65.8019 25.7399 63.6616 24.9592 61.3416 24.9592H49.6186C43.9982 24.9592 39.4256 29.5318 39.4256 35.1522V36.3912H34.8818C33.8706 36.3912 33.0508 37.211 33.0508 38.2222C33.0508 39.2334 33.8706 40.0532 34.8818 40.0532H86.1929V40.0529ZM70.8636 19.0499H80.1985C80.1931 19.0602 80.2922 19.0443 80.3 19.1569L79.3784 36.3907H71.6838L70.7625 19.1566C70.7622 19.0663 70.8518 19.0499 70.8636 19.0499ZM43.0878 36.3909V35.152C43.0878 31.5508 46.0177 28.6209 49.6189 28.6209H61.3419C64.9431 28.6209 67.8729 31.5508 67.8729 35.152V36.3909H43.0878Z" fill="#DB7D43"/>
        <path d="M34.882 55.4635H51.0832C52.0944 55.4635 52.9142 54.6437 52.9142 53.6325C52.9142 52.6213 52.0944 51.8015 51.0832 51.8015H34.882C33.8708 51.8015 33.051 52.6213 33.051 53.6325C33.051 54.6437 33.8708 55.4635 34.882 55.4635Z" fill="#DB7D43"/>
        <path d="M58.3535 67.2122H34.882C33.8708 67.2122 33.051 68.032 33.051 69.0432C33.051 70.0544 33.8708 70.8742 34.882 70.8742H58.3535C59.3647 70.8742 60.1845 70.0544 60.1845 69.0432C60.1845 68.032 59.3647 67.2122 58.3535 67.2122Z" fill="#DB7D43"/>
        <path d="M58.3535 74.4629H34.882C33.8708 74.4629 33.051 75.2827 33.051 76.2939C33.051 77.3051 33.8708 78.1249 34.882 78.1249H58.3535C59.3647 78.1249 60.1845 77.3051 60.1845 76.2939C60.1845 75.2827 59.3647 74.4629 58.3535 74.4629Z" fill="#DB7D43"/>
        <path d="M58.3534 81.7139H47.2636C46.2524 81.7139 45.4326 82.5337 45.4326 83.5449C45.4326 84.5561 46.2524 85.3759 47.2636 85.3759H58.3534C59.3646 85.3759 60.1844 84.5561 60.1844 83.5449C60.1844 82.5337 59.3646 81.7139 58.3534 81.7139Z" fill="#DB7D43"/>
        <path d="M34.8821 81.7139C33.8708 81.7139 33.051 82.5337 33.051 83.5449C33.051 84.5562 33.8708 85.376 34.8821 85.376H38.7197C39.731 85.376 40.5508 84.5562 40.5508 83.5449C40.5508 82.5337 39.731 81.7139 38.7197 81.7139H34.8821Z" fill="#DB7D43"/>
        <path d="M51.9433 21.4203C52.6882 20.6754 52.6882 19.4681 51.9433 18.7233C51.1987 17.9786 49.9911 17.9786 49.2463 18.7233C48.5014 19.4681 48.5014 20.6754 49.2463 21.4203C49.9911 22.1649 51.1987 22.1649 51.9433 21.4203Z" fill="#DB7D43"/>
        <path d="M58.2477 21.4203C58.9926 20.6754 58.9926 19.4681 58.2477 18.7233C57.5031 17.9786 56.2956 17.9786 55.5507 18.7233C54.8058 19.4681 54.8058 20.6754 55.5507 21.4203C56.2953 22.1649 57.5029 22.1649 58.2477 21.4203Z" fill="#DB7D43"/>
    </g>
    <defs>
        <clipPath id="clip0">
            <rect width="125" height="125" fill="white"/>
        </clipPath>
    </defs>
</svg>