<svg width="125" height="125" viewBox="0 0 125 125" fill="none" xmlns="http://www.w3.org/2000/svg">
    <path d="M113.77 103.534H104.248V51.3332H111.328C111.687 51.3333 112.036 51.2206 112.327 51.0111C112.618 50.8016 112.836 50.5058 112.95 50.1657C113.063 49.8256 113.067 49.4583 112.96 49.116C112.854 48.7736 112.642 48.4734 112.355 48.258L64.4531 12.258C64.1611 12.0388 63.8066 11.9187 63.4415 11.9154C63.0764 11.912 62.7198 12.0256 62.4238 12.2394L42.9688 26.3185V18.2619C42.9688 17.8086 42.7887 17.374 42.4682 17.0535C42.1477 16.733 41.713 16.5529 41.2598 16.5529H29.2969C28.8436 16.5529 28.4089 16.733 28.0884 17.0535C27.7679 17.374 27.5879 17.8086 27.5879 18.2619V37.4465L12.6699 48.2424C12.3784 48.4545 12.1615 48.7533 12.0501 49.0962C11.9387 49.439 11.9386 49.8083 12.0498 50.1512C12.1609 50.4941 12.3777 50.7931 12.669 51.0054C12.9604 51.2177 13.3114 51.3324 13.6719 51.3332H20.752V103.534H11.2305C10.7772 103.534 10.3425 103.714 10.022 104.035C9.70154 104.355 9.52148 104.79 9.52148 105.243C9.52148 105.697 9.70154 106.131 10.022 106.452C10.3425 106.772 10.7772 106.952 11.2305 106.952H54.6875V111.376C54.6875 111.829 54.8676 112.264 55.188 112.585C55.5085 112.905 55.9432 113.085 56.3965 113.085H94.4824C94.9357 113.085 95.3704 112.905 95.6909 112.585C96.0114 112.264 96.1914 111.829 96.1914 111.376V106.952H113.77C114.223 106.952 114.657 106.772 114.978 106.452C115.298 106.131 115.479 105.697 115.479 105.243C115.479 104.79 115.298 104.355 114.978 104.035C114.657 103.714 114.223 103.534 113.77 103.534ZM31.0059 19.9718H39.5508V28.7912L31.0059 34.9738V19.9718ZM33.4473 103.534V61.1427H60.791V71.5822H56.3965C55.9434 71.5822 55.5089 71.7621 55.1884 72.0824C54.8679 72.4027 54.6878 72.8371 54.6875 73.2902V103.534H33.4473ZM92.7734 109.668H58.1055V75.0002H68.8477V85.9865C68.8476 86.3084 68.9385 86.6238 69.1098 86.8963C69.2811 87.1689 69.5259 87.3875 69.8161 87.527C70.1062 87.6665 70.4298 87.7212 70.7497 87.6848C71.0695 87.6485 71.3726 87.5225 71.624 87.3215L75.4395 84.2677L79.2549 87.3195C79.5062 87.5205 79.8092 87.6465 80.129 87.6829C80.4488 87.7193 80.7723 87.6646 81.0624 87.5252C81.3525 87.3859 81.5973 87.1674 81.7687 86.895C81.9401 86.6226 82.0311 86.3074 82.0312 85.9855V75.0002H92.7734V109.668ZM72.2656 75.0002H78.6133V82.4308L76.5068 80.7453C76.2039 80.5028 75.8275 80.3707 75.4395 80.3707C75.0514 80.3707 74.675 80.5028 74.3721 80.7453L72.2656 82.4299V75.0002ZM94.4824 71.5822H64.209V59.4338C64.209 58.9805 64.0289 58.5458 63.7084 58.2253C63.3879 57.9048 62.9533 57.7248 62.5 57.7248H31.7383C31.285 57.7248 30.8503 57.9048 30.5298 58.2253C30.2094 58.5458 30.0293 58.9805 30.0293 59.4338V103.534H24.1699V49.6281C24.1704 49.4033 24.1266 49.1807 24.041 48.9729C23.9553 48.7651 23.8295 48.5762 23.6708 48.4171C23.512 48.258 23.3234 48.1318 23.1158 48.0457C22.9082 47.9595 22.6857 47.9152 22.4609 47.9152H18.9453L63.4062 15.7472L106.206 47.9152H102.539C102.086 47.9152 101.651 48.0953 101.331 48.4158C101.01 48.7363 100.83 49.1709 100.83 49.6242V103.53H96.1914V73.2902C96.1911 72.8371 96.011 72.4027 95.6905 72.0824C95.37 71.7621 94.9355 71.5822 94.4824 71.5822Z" fill="#DB7D43"/>
    <path d="M39.4287 80.6289H37.2314C36.7782 80.6289 36.3435 80.809 36.023 81.1295C35.7025 81.4499 35.5225 81.8846 35.5225 82.3379C35.5225 82.7911 35.7025 83.2258 36.023 83.5463C36.3435 83.8668 36.7782 84.0469 37.2314 84.0469H39.4287C39.882 84.0469 40.3166 83.8668 40.6371 83.5463C40.9576 83.2258 41.1377 82.7911 41.1377 82.3379C41.1377 81.8846 40.9576 81.4499 40.6371 81.1295C40.3166 80.809 39.882 80.6289 39.4287 80.6289Z" fill="#DB7D43"/>
    <path d="M62.5 29.3857C61.3411 29.3857 60.2083 29.7294 59.2447 30.3732C58.2811 31.0171 57.5301 31.9322 57.0866 33.0028C56.6432 34.0735 56.5271 35.2516 56.7532 36.3882C56.9793 37.5248 57.5374 38.5689 58.3568 39.3883C59.1762 40.2078 60.2203 40.7658 61.3569 40.9919C62.4935 41.218 63.6716 41.102 64.7423 40.6585C65.813 40.215 66.7281 39.464 67.3719 38.5004C68.0157 37.5368 68.3594 36.404 68.3594 35.2451C68.3576 33.6917 67.7397 32.2024 66.6412 31.1039C65.5428 30.0055 64.0535 29.3876 62.5 29.3857ZM62.5 37.6865C62.0171 37.6865 61.5451 37.5433 61.1436 37.2751C60.7421 37.0068 60.4292 36.6255 60.2444 36.1794C60.0597 35.7333 60.0113 35.2424 60.1055 34.7688C60.1997 34.2952 60.4322 33.8602 60.7737 33.5188C61.1151 33.1773 61.5501 32.9448 62.0237 32.8506C62.4973 32.7564 62.9882 32.8048 63.4343 32.9895C63.8804 33.1743 64.2617 33.4873 64.53 33.8887C64.7982 34.2902 64.9414 34.7623 64.9414 35.2451C64.9414 35.8926 64.6842 36.5136 64.2263 36.9715C63.7685 37.4293 63.1475 37.6865 62.5 37.6865Z" fill="#DB7D43"/>
</svg>