<svg width="48" height="48" viewBox="0 0 48 48" fill="none" xmlns="http://www.w3.org/2000/svg">
    <path d="M42.8438 9.46875H33.4511L32.5377 6.72844C31.9625 5.00297 30.354 3.84375 28.5353 3.84375H19.4647C17.646 3.84375 16.0375 5.00297 15.4624 6.72844L14.5489 9.46875H12.2812V7.125C12.2812 5.31572 10.8093 3.84375 9 3.84375H7.125C5.31572 3.84375 3.84375 5.31572 3.84375 7.125V9.63862C1.63425 10.2206 0 12.2353 0 14.625V39C0 41.8432 2.31309 44.1562 5.15625 44.1562H42.8438C45.6869 44.1562 48 41.8432 48 39V14.625C48 11.7818 45.6869 9.46875 42.8438 9.46875ZM6.65625 7.125C6.65625 6.86653 6.86653 6.65625 7.125 6.65625H9C9.25847 6.65625 9.46875 6.86653 9.46875 7.125V9.46875H6.65625V7.125ZM45.1875 39C45.1875 40.2923 44.1361 41.3438 42.8438 41.3438H5.15625C3.86391 41.3438 2.8125 40.2923 2.8125 39V14.625C2.8125 13.3327 3.86391 12.2812 5.15625 12.2812H15.5625C16.1677 12.2812 16.7051 11.894 16.8966 11.3197L18.1305 7.61784C18.3223 7.04269 18.8584 6.65625 19.4647 6.65625H28.5353C29.1416 6.65625 29.6778 7.04269 29.8694 7.61775L31.1033 11.3197C31.2949 11.894 31.8323 12.2812 32.4375 12.2812H42.8438C44.1361 12.2812 45.1875 13.3327 45.1875 14.625V39Z" fill="#DB7D43"/>
    <path d="M40.875 17.9062C41.6517 17.9062 42.2812 17.2767 42.2812 16.5C42.2812 15.7233 41.6517 15.0938 40.875 15.0938C40.0983 15.0938 39.4688 15.7233 39.4688 16.5C39.4688 17.2767 40.0983 17.9062 40.875 17.9062Z" fill="#DB7D43"/>
    <path d="M9.9375 15.0938H7.125C6.34837 15.0938 5.71875 15.7234 5.71875 16.5C5.71875 17.2766 6.34837 17.9062 7.125 17.9062H9.9375C10.7141 17.9062 11.3438 17.2766 11.3438 16.5C11.3438 15.7234 10.7141 15.0938 9.9375 15.0938Z" fill="#DB7D43"/>
    <path d="M24 38.5312C17.0213 38.5312 11.3438 32.8537 11.3438 25.875C11.3438 18.8963 17.0213 13.2188 24 13.2188C30.9787 13.2188 36.6562 18.8963 36.6562 25.875C36.6562 32.8537 30.9787 38.5312 24 38.5312ZM24 16.0312C18.5722 16.0312 14.1562 20.4472 14.1562 25.875C14.1562 31.3028 18.5722 35.7188 24 35.7188C29.4278 35.7188 33.8438 31.3028 33.8438 25.875C33.8438 20.4472 29.4278 16.0312 24 16.0312Z" fill="#DB7D43"/>
    <path d="M24 32.9062C20.123 32.9062 16.9688 29.752 16.9688 25.875C16.9688 21.998 20.123 18.8438 24 18.8438C27.877 18.8438 31.0312 21.998 31.0312 25.875C31.0312 29.752 27.877 32.9062 24 32.9062ZM24 21.6562C21.6738 21.6562 19.7812 23.5488 19.7812 25.875C19.7812 28.2012 21.6738 30.0938 24 30.0938C26.3262 30.0938 28.2188 28.2012 28.2188 25.875C28.2188 23.5488 26.3262 21.6562 24 21.6562Z" fill="#DB7D43"/>
</svg>