<svg width="48" height="48" viewBox="0 0 48 48" fill="none" xmlns="http://www.w3.org/2000/svg">
<g clip-path="url(#clip0)">
<path d="M48 26.25C48 22.3442 45.2297 19.1371 41.7321 18.8647C41.3172 17.4667 40.1963 16.3697 38.784 15.9892C37.8422 8.247 31.5553 2.34375 24 2.34375C16.4447 2.34375 10.1578 8.247 9.21609 15.9892C7.80375 16.3697 6.68278 17.4666 6.26803 18.8647C6.14653 18.8742 6.02597 18.8872 5.90634 18.9037V9.75C5.90634 8.97337 5.27672 8.34375 4.50009 8.34375C3.72347 8.34375 3.09384 8.97337 3.09384 9.75V20.0293C1.23412 21.3497 0 23.6439 0 26.25C0 30.1558 2.77031 33.3629 6.26794 33.6353C6.68147 35.0289 7.79653 36.1231 9.20259 36.507C9.80166 39.9939 12.8448 42.6562 16.5 42.6562H16.8252C17.4136 44.3981 19.0621 45.6562 21 45.6562H27C29.4296 45.6562 31.4062 43.6796 31.4062 41.25C31.4062 38.8204 29.4296 36.8438 27 36.8438H21C19.0621 36.8438 17.4136 38.1019 16.8252 39.8438H16.5C14.3735 39.8438 12.5803 38.391 12.0594 36.426C13.7139 35.8553 14.9062 34.2834 14.9062 32.4375V20.0625C14.9062 18.2101 13.7057 16.6339 12.0422 16.0682C12.9206 9.85669 17.9621 5.15625 24 5.15625C30.0379 5.15625 35.0794 9.85669 35.9578 16.0682C34.2943 16.6339 33.0938 18.2101 33.0938 20.0625V32.4375C33.0938 34.7637 34.9863 36.6562 37.3125 36.6562H37.6875C39.5977 36.6562 41.2145 35.3797 41.7321 33.6353C45.2297 33.3629 48 30.1558 48 26.25ZM21 39.6562H27C27.8788 39.6562 28.5938 40.3712 28.5938 41.25C28.5938 42.1288 27.8788 42.8438 27 42.8438H21C20.1212 42.8438 19.4062 42.1288 19.4062 41.25C19.4062 40.3712 20.1212 39.6562 21 39.6562ZM2.8125 26.25C2.8125 24.02 4.25859 22.0999 6.09375 21.7231V30.7768C4.25859 30.4001 2.8125 28.48 2.8125 26.25ZM12.0938 32.4375C12.0938 33.2129 11.4629 33.8438 10.6875 33.8438H10.3125C9.53709 33.8438 8.90625 33.2129 8.90625 32.4375C8.90625 27.9249 8.90625 24.234 8.90625 20.0625C8.90625 19.2871 9.53709 18.6562 10.3125 18.6562H10.6875C11.4629 18.6562 12.0938 19.2871 12.0938 20.0625V32.4375ZM39.0938 32.4375C39.0938 33.2129 38.4629 33.8438 37.6875 33.8438H37.3125C36.5371 33.8438 35.9062 33.2129 35.9062 32.4375V20.0625C35.9062 19.2871 36.5371 18.6562 37.3125 18.6562H37.6875C38.4629 18.6562 39.0938 19.2871 39.0938 20.0625V32.4375ZM41.9062 30.7769V21.7232C43.7414 22.1 45.1875 24.0201 45.1875 26.2501C45.1875 28.4801 43.7414 30.4001 41.9062 30.7769Z" fill="#DB7D43"/>
</g>
<defs>
<clipPath id="clip0">
<rect width="48" height="48" fill="white"/>
</clipPath>
</defs>
</svg>
