<svg width="48" height="48" viewBox="0 0 48 48" fill="none" xmlns="http://www.w3.org/2000/svg">
<path d="M44.9678 13.8512C44.8546 13.4282 44.5833 13.0745 44.2039 12.8555L42.8243 12.059C42.4449 11.84 42.0029 11.7817 41.5796 11.8953C41.1566 12.0084 40.8029 12.2798 40.5839 12.6592L39.7606 14.0848C39.4113 13.9208 39.019 13.8845 38.6415 13.9856C38.2185 14.0991 37.8647 14.3705 37.6458 14.7499L37.5938 14.8396V8.76562C37.5938 6.8269 36.0168 5.25 34.0781 5.25H28.9501C28.8354 4.45642 28.1528 3.84375 27.3281 3.84375H24.9375V2.10938C24.9375 0.946289 23.9912 0 22.8281 0H17.6719C16.5088 0 15.5625 0.946289 15.5625 2.10938V3.84375H13.1719C12.3472 3.84375 11.6642 4.45642 11.5499 5.25H6.42188C4.48315 5.25 2.90625 6.8269 2.90625 8.76562V44.4844C2.90625 46.4231 4.48315 48 6.42188 48H28.3638C28.752 48 29.0669 47.6854 29.0669 47.2969C29.0669 46.9083 28.752 46.5938 28.3638 46.5938H6.42188C5.25879 46.5938 4.3125 45.6475 4.3125 44.4844V8.76562C4.3125 7.60254 5.25879 6.65625 6.42188 6.65625H11.5312V10.0781C11.5312 10.9827 12.2673 11.7188 13.1719 11.7188H27.3281C28.2327 11.7188 28.9688 10.9827 28.9688 10.0781V9.42188H33.4219V22.0657L26.2672 34.4579C26.0087 34.9054 25.8915 35.4144 25.9285 35.9301L26.2419 40.3224C26.2694 40.7065 26.484 41.0526 26.8158 41.2482C26.9989 41.3558 27.2043 41.4104 27.4109 41.4104C27.5786 41.4104 27.7467 41.3741 27.9034 41.3016L31.9457 39.427C32.4298 39.2025 32.8268 38.8396 33.0934 38.3778L33.4219 37.8091V43.8281H7.07812V9.42188H8.95312C9.34131 9.42188 9.65625 9.1073 9.65625 8.71875C9.65625 8.3302 9.34131 8.01562 8.95312 8.01562H6.84375C6.19739 8.01562 5.67188 8.54114 5.67188 9.1875V44.0625C5.67188 44.7089 6.19739 45.2344 6.84375 45.2344H33.6562C34.3022 45.2344 34.8281 44.7089 34.8281 44.0625V35.373L36.1875 33.0187V44.4844C36.1875 45.6475 35.2412 46.5938 34.0781 46.5938H31.6447C31.2565 46.5938 30.9415 46.9083 30.9415 47.2969C30.9415 47.6851 31.2565 48 31.6447 48H34.0781C36.0165 48 37.5938 46.4227 37.5938 44.4844V30.583L43.5256 20.3086L44.4628 18.6855C44.6818 18.3062 44.74 17.8641 44.6265 17.4412C44.5254 17.0636 44.298 16.7424 43.9808 16.5216L44.8041 15.0959C45.0231 14.7166 45.0813 14.2745 44.9678 13.8512ZM41.8015 13.3623C41.866 13.2506 42.0092 13.2122 42.1212 13.2766L43.5007 14.0731C43.5736 14.1152 43.6003 14.1804 43.6099 14.2152C43.619 14.2504 43.6285 14.3196 43.5864 14.3928L42.7665 15.8126L40.9819 14.7825L41.8015 13.3623ZM38.8634 15.453C38.9055 15.3801 38.9707 15.3534 39.0055 15.3442C39.0406 15.3344 39.1099 15.3252 39.1827 15.3673L43.1591 17.6631C43.2323 17.7052 43.259 17.77 43.2682 17.8052C43.2777 17.84 43.2869 17.9095 43.2448 17.9824L42.6592 18.9965L38.2782 16.467L38.8634 15.453ZM16.9688 2.10938C16.9688 1.72156 17.2841 1.40625 17.6719 1.40625H22.8281C23.2159 1.40625 23.5312 1.72156 23.5312 2.10938V3.84375H16.9688V2.10938ZM27.5625 10.0781C27.5625 10.2074 27.4574 10.3125 27.3281 10.3125H13.1719C13.0426 10.3125 12.9375 10.2074 12.9375 10.0781V5.48438C12.9375 5.3551 13.0426 5.25 13.1719 5.25H27.3281C27.4574 5.25 27.5625 5.3551 27.5625 5.48438V10.0781ZM33.6562 8.01562H28.9688V6.65625H34.0781C35.2412 6.65625 36.1875 7.60254 36.1875 8.76562V17.2756L34.8281 19.63V9.1875C34.8281 8.54114 34.3026 8.01562 33.6562 8.01562ZM37.5751 17.6851L41.9561 20.2145L33.3362 35.1449L28.9548 32.6155L37.5751 17.6851ZM31.8757 37.6747C31.7545 37.8845 31.574 38.0493 31.3542 38.1511V38.1515L27.6204 39.8829L27.3311 35.8301C27.3142 35.5957 27.3677 35.3646 27.4852 35.1614L28.2517 33.8331L32.6331 36.3625L31.8757 37.6747Z" fill="#DB7D43"/>
<path d="M10.1689 39.2286C10.3026 39.3477 10.4696 39.4059 10.6355 39.4059C10.8296 39.4059 11.0226 39.326 11.1614 39.1697L12.5555 37.6001L13.6348 38.8873C13.8512 39.1459 14.1687 39.2982 14.5056 39.3063C14.8429 39.3121 15.1666 39.1766 15.3948 38.9287L16.6926 37.5195L18.1311 39.1477C18.3886 39.4388 18.8328 39.4663 19.1235 39.2092C19.4147 38.9521 19.4421 38.5079 19.1851 38.2168L17.5745 36.3938C17.3551 36.1455 17.0394 36.0012 16.7084 35.9979C16.7044 35.9976 16.7003 35.9976 16.6963 35.9976C16.3693 35.9976 16.0558 36.1349 15.8342 36.3755L14.5411 37.7795L13.4586 36.4886C13.2396 36.2275 12.9185 36.0748 12.5772 36.0697C12.2358 36.062 11.911 36.2085 11.6847 36.4634L10.1104 38.2358C9.85218 38.5262 9.87854 38.9708 10.1689 39.2286Z" fill="#DB7D43"/>
<path d="M30.9141 15.5156C30.9141 15.1271 30.5991 14.8125 30.2109 14.8125H10.2422C9.854 14.8125 9.53906 15.1271 9.53906 15.5156C9.53906 15.9042 9.854 16.2188 10.2422 16.2188H30.2109C30.5991 16.2188 30.9141 15.9042 30.9141 15.5156Z" fill="#DB7D43"/>
<path d="M10.3359 19.9688H18.6797C19.0679 19.9688 19.3828 19.6542 19.3828 19.2656C19.3828 18.8771 19.0679 18.5625 18.6797 18.5625H10.3359C9.94775 18.5625 9.63281 18.8771 9.63281 19.2656C9.63281 19.6542 9.94775 19.9688 10.3359 19.9688Z" fill="#DB7D43"/>
<path d="M25.9453 19.2656C25.9453 18.8771 25.6304 18.5625 25.2422 18.5625H21.9609C21.5728 18.5625 21.2578 18.8771 21.2578 19.2656C21.2578 19.6542 21.5728 19.9688 21.9609 19.9688H25.2422C25.6304 19.9688 25.9453 19.6542 25.9453 19.2656Z" fill="#DB7D43"/>
<path d="M10.3359 23.7188H17.0859C17.4741 23.7188 17.7891 23.4042 17.7891 23.0156C17.7891 22.6271 17.4741 22.3125 17.0859 22.3125H10.3359C9.94775 22.3125 9.63281 22.6271 9.63281 23.0156C9.63281 23.4042 9.94775 23.7188 10.3359 23.7188Z" fill="#DB7D43"/>
<path d="M23.2734 22.3125H20.0859C19.6978 22.3125 19.3828 22.6271 19.3828 23.0156C19.3828 23.4042 19.6978 23.7188 20.0859 23.7188H23.2734C23.6616 23.7188 23.9766 23.4042 23.9766 23.0156C23.9766 22.6271 23.6616 22.3125 23.2734 22.3125Z" fill="#DB7D43"/>
<path d="M10.3359 27.4688H15.2109C15.5991 27.4688 15.9141 27.1542 15.9141 26.7656C15.9141 26.3771 15.5991 26.0625 15.2109 26.0625H10.3359C9.94775 26.0625 9.63281 26.3771 9.63281 26.7656C9.63281 27.1542 9.94775 27.4688 10.3359 27.4688Z" fill="#DB7D43"/>
<path d="M23.9766 26.7656C23.9766 26.3771 23.6616 26.0625 23.2734 26.0625H18.2109C17.8228 26.0625 17.5078 26.3771 17.5078 26.7656C17.5078 27.1542 17.8228 27.4688 18.2109 27.4688H23.2734C23.6616 27.4688 23.9766 27.1542 23.9766 26.7656Z" fill="#DB7D43"/>
<path d="M10.3359 31.2188H15.2109C15.5991 31.2188 15.9141 30.9042 15.9141 30.5156C15.9141 30.1271 15.5991 29.8125 15.2109 29.8125H10.3359C9.94775 29.8125 9.63281 30.1271 9.63281 30.5156C9.63281 30.9042 9.94775 31.2188 10.3359 31.2188Z" fill="#DB7D43"/>
</svg>
