<svg width="21" height="24" viewBox="0 0 21 24" fill="none" xmlns="http://www.w3.org/2000/svg">
    <g clip-path="url(#clip0)">
        <path d="M10.1129 22.5769C10.9891 22.5769 11.6994 21.7668 11.6994 20.7675C11.6994 19.7683 10.9891 18.9582 10.1129 18.9582C9.23667 18.9582 8.52637 19.7683 8.52637 20.7675C8.52637 21.7668 9.23667 22.5769 10.1129 22.5769Z" fill="white"/>
        <path d="M16.4644 22.5769C17.3406 22.5769 18.0509 21.7668 18.0509 20.7675C18.0509 19.7683 17.3406 18.9582 16.4644 18.9582C15.5882 18.9582 14.8779 19.7683 14.8779 20.7675C14.8779 21.7668 15.5882 22.5769 16.4644 22.5769Z" fill="white"/>
        <path d="M20.6488 5.29559C20.3014 4.89764 19.6175 4.91029 19.6175 4.91029H5.65402L5.19271 2.71567C5.02785 1.92904 4.40981 1.37259 3.69936 1.37259H0L0.716363 3.12542L2.97265 3.11699C3.48497 3.1153 3.9278 3.5259 4.03204 4.09921L6.08945 15.3927C6.33046 16.7181 7.35362 17.6708 8.54017 17.6708C11.4936 17.6708 16.7114 17.6708 17.603 17.6708C18.8576 17.6708 18.9352 16.0942 18.9352 16.0942C18.9352 16.0942 11.5697 16.0942 8.94603 16.0942C8.43001 16.0942 7.82676 16.1759 7.44382 14.4796C7.30187 13.8515 6.96994 11.9452 6.96994 11.9452L19.4793 11.9267C20.0293 11.9047 20.4973 11.4301 20.5601 10.7868L20.9874 6.34863C21.0251 5.94057 20.9978 5.69101 20.6488 5.29559ZM19.1732 10.1494H6.63504L6.02883 6.92195H19.4808L19.1732 10.1494Z" fill="white"/>
    </g>
    <defs>
        <clipPath id="clip0">
            <rect width="21" height="23.9494" fill="white"/>
        </clipPath>
    </defs>
</svg>