<svg width="30" height="34" viewBox="0 0 30 34" fill="none" xmlns="http://www.w3.org/2000/svg">
    <path d="M29.8424 32.8847L27.2997 8.32623C27.2464 7.81211 26.8191 7.42173 26.3094 7.42173H21.5303V6.3166C21.5303 2.87178 18.7669 0.0689697 15.3704 0.0689697C11.9737 0.0689697 9.21029 2.87178 9.21029 6.3166V7.42173H4.43122C3.92152 7.42173 3.49425 7.81211 3.4409 8.32623L0.898228 32.8847C0.868876 33.1692 0.959996 33.4532 1.14862 33.666C1.33749 33.8785 1.60651 33.9999 1.88855 33.9999H28.8518C29.1341 33.9999 29.4031 33.8785 29.5918 33.666C29.7809 33.4532 29.8718 33.1692 29.8424 32.8847ZM11.2017 6.3166C11.2017 3.98545 13.0718 2.08869 15.3704 2.08869C17.6689 2.08869 19.539 3.98545 19.539 6.3166V7.42173H11.2017V6.3166ZM2.99424 31.9802L5.32787 9.44146H9.21029V11.667C9.21029 12.2246 9.65619 12.6768 10.206 12.6768C10.7558 12.6768 11.2017 12.2246 11.2017 11.667V9.44146H19.539V11.667C19.539 12.2246 19.9849 12.6768 20.5347 12.6768C21.0844 12.6768 21.5303 12.2246 21.5303 11.667V9.44146H25.4128L27.7464 31.9802H2.99424Z" fill="black"/>
</svg>