<svg width="24" height="24" viewBox="0 0 24 24" fill="none" xmlns="http://www.w3.org/2000/svg">
    <g clip-path="url(#clip0)">
        <path d="M22.6667 1.3125H1.33325C0.598633 1.3125 0 1.91113 0 2.64575V5.3125C0 6.04712 0.598633 6.64575 1.33325 6.64575H22.6667C23.4014 6.64575 24 6.04712 24 5.3125V2.64575C24 1.91113 23.4014 1.3125 22.6667 1.3125Z" fill="white"/>
        <path d="M22.6667 9.3125H1.33325C0.598633 9.3125 0 9.91113 0 10.6458V13.3125C0 14.0471 0.598633 14.6458 1.33325 14.6458H22.6667C23.4014 14.6458 24 14.0471 24 13.3125V10.6458C24 9.91113 23.4014 9.3125 22.6667 9.3125Z" fill="white"/>
        <path d="M22.6667 17.3125H1.33325C0.598633 17.3125 0 17.9111 0 18.6458V21.3125C0 22.0471 0.598633 22.6458 1.33325 22.6458H22.6667C23.4014 22.6458 24 22.0471 24 21.3125V18.6458C24 17.9111 23.4014 17.3125 22.6667 17.3125Z" fill="white"/>
    </g>
    <defs>
        <clipPath id="clip0">
            <rect width="24" height="24" fill="white"/>
        </clipPath>
    </defs>
</svg>