<svg width="18" height="18" viewBox="0 0 18 18" fill="none" xmlns="http://www.w3.org/2000/svg">
    <path d="M2.0437 7.52322C2.62238 7.52322 3.14509 7.17577 3.36893 6.64197C4.29315 4.43999 6.46635 2.88813 8.99987 2.88813C10.3962 2.88813 11.6764 3.36674 12.7027 4.16054L11.8983 4.28508C11.6235 4.32768 11.4097 4.54568 11.3725 4.82121C11.3352 5.09658 11.4836 5.36376 11.737 5.47762L16.1609 7.46784C16.3548 7.55492 16.5794 7.53818 16.7582 7.42332C16.9366 7.30828 17.045 7.11086 17.0462 6.89843L17.0691 2.02399C17.0707 1.74669 16.8899 1.50146 16.6249 1.42063C16.3595 1.33979 16.0727 1.44239 15.9191 1.67321L15.3094 2.58959C13.6837 0.989274 11.4561 0 8.99987 0C5.27563 0 2.07362 2.27432 0.707966 5.5068C0.518298 5.95485 0.566103 6.46789 0.834645 6.87323C1.10319 7.27873 1.55711 7.52322 2.0437 7.52322Z" fill="#DB7D43"/>
    <path d="M17.1652 11.1268C16.8966 10.7213 16.4427 10.4768 15.9561 10.4768C15.3774 10.4768 14.8547 10.8243 14.6309 11.3581C13.7066 13.5601 11.5334 15.1119 8.99996 15.1119C7.60356 15.1119 6.3234 14.6333 5.29703 13.8395L6.10151 13.715C6.37626 13.6724 6.59002 13.4544 6.62733 13.1788C6.66461 12.9035 6.5162 12.6363 6.26281 12.5224L1.83897 10.5322C1.64501 10.4452 1.4204 10.4618 1.24163 10.5767C1.06323 10.6918 0.954798 10.8892 0.953653 11.1016L0.930674 15.976C0.929122 16.2533 1.10985 16.4985 1.37488 16.5794C1.64032 16.6602 1.92712 16.5576 2.08065 16.3267L2.69041 15.4103C4.31607 17.0107 6.54373 18 8.99992 18C12.7242 18 15.9261 15.7257 17.2917 12.4932C17.4815 12.0452 17.4337 11.5322 17.1652 11.1268Z" fill="#DB7D43"/>
</svg>