<svg width="41" height="41" viewBox="0 0 41 41" fill="none" xmlns="http://www.w3.org/2000/svg">
    <path d="M38.0086 5.94741C35.9864 3.65285 33.181 2.38922 30.1094 2.38922C25.7893 2.38922 23.0543 4.96934 21.5206 7.13385C21.1227 7.69552 20.7842 8.25871 20.5 8.78866C20.2158 8.25871 19.8774 7.69552 19.4794 7.13385C17.9457 4.96934 15.2107 2.38922 10.8906 2.38922C7.81899 2.38922 5.01361 3.65293 2.99132 5.94749C1.0624 8.13635 0 11.0678 0 14.2019C0 17.6135 1.33194 20.7866 4.19169 24.1877C6.74754 27.2274 10.4245 30.3607 14.6823 33.989C16.2689 35.341 17.9096 36.7392 19.6564 38.2675L19.7088 38.3135C19.9353 38.5117 20.2176 38.6108 20.5 38.6108C20.7824 38.6108 21.0647 38.5117 21.2912 38.3135L21.3436 38.2675C23.0904 36.7392 24.7311 35.3411 26.3179 33.9888C30.5755 30.3608 34.2525 27.2275 36.8083 24.1877C39.6681 20.7865 41 17.6135 41 14.2019C41 11.0678 39.9376 8.13635 38.0086 5.94741ZM24.7596 32.1605C23.3919 33.326 21.9842 34.5254 20.5 35.8157C19.0158 34.5256 17.6081 33.326 16.2402 32.1603C7.90731 25.0596 2.40234 20.3685 2.40234 14.2019C2.40234 11.6531 3.25157 9.28563 4.79364 7.53584C6.3534 5.7662 8.51863 4.79156 10.8906 4.79156C14.1842 4.79156 16.3132 6.82058 17.5192 8.52272C18.6009 10.0493 19.1654 11.5883 19.3579 12.179C19.519 12.6735 19.98 13.0081 20.5 13.0081C21.02 13.0081 21.481 12.6735 21.6421 12.179C21.8346 11.5883 22.3991 10.0493 23.4808 8.52264C24.6868 6.82058 26.8158 4.79156 30.1094 4.79156C32.4814 4.79156 34.6466 5.7662 36.2063 7.53584C37.7484 9.28563 38.5977 11.6531 38.5977 14.2019C38.5977 20.3685 33.0927 25.0596 24.7596 32.1605Z" fill="black"/>
</svg>