<svg width="22" height="20" viewBox="0 0 22 20" fill="none" xmlns="http://www.w3.org/2000/svg">
    <path d="M20.223 2.36138C19.071 1.23008 17.5459 0.611763 15.9182 0.611763C14.2904 0.611763 12.7606 1.23466 11.6086 2.36596L11.007 2.95679L10.396 2.3568C9.24402 1.2255 7.70957 0.598022 6.08184 0.598022C4.45878 0.598022 2.929 1.22092 1.78166 2.34764C0.629661 3.47893 -0.00463843 4.98122 2.55386e-05 6.57968C2.55386e-05 8.17815 0.638989 9.67586 1.79099 10.8072L10.5499 19.4087C10.6712 19.5277 10.8344 19.5919 10.993 19.5919C11.1516 19.5919 11.3148 19.5323 11.4361 19.4132L20.2137 10.8255C21.3657 9.69418 22 8.19189 22 6.59342C22.0046 4.99496 21.375 3.49267 20.223 2.36138ZM19.3275 9.95067L10.993 18.1033L2.67714 9.93693C1.76301 9.03922 1.2593 7.84838 1.2593 6.57968C1.2593 5.31099 1.75834 4.12015 2.67248 3.22702C3.58195 2.3339 4.79459 1.83924 6.08184 1.83924C7.37376 1.83924 8.59106 2.3339 9.5052 3.2316L10.5593 4.26671C10.8064 4.50946 11.2029 4.50946 11.4501 4.26671L12.4948 3.24076C13.4089 2.34306 14.6262 1.8484 15.9135 1.8484C17.2007 1.8484 18.4134 2.34306 19.3275 3.23618C20.2417 4.13389 20.7407 5.32473 20.7407 6.59342C20.7454 7.86212 20.2417 9.05296 19.3275 9.95067Z" fill="white"/>
</svg>