<svg width="258" height="153" viewBox="0 0 258 153" fill="none" xmlns="http://www.w3.org/2000/svg">
    <path fill-rule="evenodd" clip-rule="evenodd" d="M78.6494 150.601C78.5148 150.616 78.3712 150.629 78.2196 150.64C78.0661 150.649 77.9091 150.655 77.7494 150.655C77.4201 150.655 77.1096 150.601 76.8198 150.491C76.5299 150.383 76.2778 150.218 76.0615 149.995C75.8444 149.774 75.6748 149.496 75.5501 149.161C75.4236 148.827 75.3625 148.433 75.3625 147.983C75.3625 147.554 75.4245 147.167 75.5501 146.823C75.6748 146.48 75.8498 146.188 76.0786 145.948C76.3074 145.71 76.5802 145.527 76.8951 145.398C77.2128 145.27 77.5618 145.205 77.9441 145.205C78.0518 145.205 78.1693 145.209 78.2967 145.217C78.4241 145.225 78.5426 145.239 78.6494 145.259V144.435H80.0716V145.284C80.2062 145.257 80.3515 145.239 80.5095 145.225C80.6683 145.212 80.8262 145.205 80.9868 145.205C81.3188 145.205 81.6311 145.263 81.9236 145.377C82.2152 145.494 82.4674 145.664 82.6809 145.889C82.8945 146.115 83.0614 146.395 83.1852 146.73C83.3082 147.064 83.3692 147.451 83.3692 147.888C83.3692 148.334 83.301 148.726 83.1628 149.071C83.0228 149.415 82.8389 149.704 82.6074 149.939C82.3767 150.172 82.1076 150.35 81.8007 150.472C81.4956 150.593 81.1717 150.654 80.8325 150.654C80.7724 150.654 80.7078 150.652 80.6396 150.649C80.5714 150.645 80.5014 150.641 80.4314 150.637C80.3614 150.632 80.295 150.624 80.2313 150.615C80.1685 150.605 80.1156 150.594 80.0707 150.585V151.525H78.6485V150.601H78.6494ZM80.6279 146.33C80.5301 146.33 80.4287 146.334 80.3228 146.34C80.2152 146.347 80.1147 146.361 80.0177 146.379V149.511C80.077 149.524 80.1541 149.531 80.2484 149.531C80.3417 149.531 80.4305 149.531 80.5175 149.531C80.7087 149.531 80.8872 149.499 81.0577 149.437C81.2264 149.375 81.3754 149.278 81.501 149.145C81.6275 149.011 81.728 148.843 81.8016 148.637C81.8752 148.43 81.912 148.184 81.912 147.899C81.912 147.403 81.7962 147.018 81.5656 146.744C81.4525 146.608 81.3161 146.504 81.1564 146.434C80.9958 146.364 80.8208 146.33 80.6279 146.33ZM78.1397 149.53C78.1684 149.53 78.2079 149.53 78.2537 149.528C78.2994 149.527 78.3506 149.523 78.4035 149.519C78.4564 149.516 78.5112 149.512 78.5659 149.504C78.6206 149.499 78.67 149.491 78.714 149.48V146.359C78.6368 146.348 78.5516 146.34 78.4618 146.335C78.3694 146.33 78.2779 146.328 78.1837 146.328C77.9979 146.328 77.8221 146.36 77.6569 146.424C77.4909 146.488 77.3465 146.585 77.22 146.72C77.0925 146.853 76.9929 147.023 76.9203 147.231C76.8467 147.437 76.8099 147.683 76.8099 147.971C76.8099 148.474 76.9328 148.86 77.1751 149.129C77.2998 149.264 77.4434 149.365 77.6049 149.431C77.7682 149.498 77.9459 149.53 78.1397 149.53ZM84.8075 144.628H89.7678V145.875H86.2414V147.333H89.4932V148.579H86.2414V150.088H89.8136V151.333H84.8075V144.628ZM97.5205 152.518H96.5075L96.3468 151.333H91.951L91.7957 152.518H90.7809V150.088H91.4664C91.4987 150.043 91.5463 149.958 91.6082 149.838C91.6692 149.718 91.7374 149.557 91.811 149.352C91.8846 149.146 91.9572 148.899 92.0308 148.605C92.1044 148.311 92.169 147.969 92.2255 147.581C92.2821 147.191 92.3242 146.752 92.3538 146.263C92.3817 145.773 92.3879 145.228 92.3709 144.628H96.5963V150.088H97.5205V152.518ZM95.1588 150.088V145.875H93.6836C93.6756 146.189 93.6549 146.529 93.6271 146.897C93.5984 147.267 93.5553 147.64 93.4979 148.018C93.4378 148.396 93.3615 148.763 93.2637 149.121C93.1686 149.479 93.0475 149.801 92.9039 150.088H95.1588ZM98.6699 144.628H103.63V145.875H100.104V147.333H103.356V148.579H100.104V150.088H103.676V151.333H98.6699V144.628ZM105.366 144.701C105.657 144.647 105.974 144.606 106.317 144.58C106.658 144.551 107.004 144.537 107.359 144.537C107.548 144.537 107.743 144.546 107.94 144.565C108.137 144.583 108.332 144.612 108.521 144.654C108.711 144.695 108.891 144.75 109.062 144.821C109.23 144.892 109.384 144.981 109.52 145.086C109.751 145.264 109.935 145.493 110.075 145.773C110.215 146.052 110.285 146.387 110.285 146.776C110.285 147.191 110.206 147.547 110.051 147.843C109.894 148.141 109.684 148.383 109.424 148.571C109.163 148.758 108.863 148.897 108.526 148.982C108.187 149.07 107.839 149.114 107.479 149.114C107.445 149.114 107.397 149.112 107.335 149.11C107.274 149.108 107.21 149.106 107.144 149.103C107.076 149.099 107.011 149.096 106.948 149.091C106.885 149.086 106.835 149.08 106.798 149.074V151.332H105.366V144.701ZM107.448 145.783C107.308 145.783 107.184 145.787 107.077 145.795C106.969 145.803 106.876 145.815 106.799 145.827V147.82C106.826 147.827 106.865 147.833 106.916 147.839C106.969 147.846 107.022 147.852 107.079 147.857C107.137 147.863 107.191 147.865 107.244 147.867C107.297 147.869 107.339 147.869 107.368 147.869C107.56 147.869 107.738 147.854 107.906 147.822C108.075 147.792 108.222 147.734 108.349 147.655C108.476 147.574 108.576 147.464 108.651 147.328C108.726 147.191 108.763 147.017 108.763 146.807C108.763 146.612 108.729 146.449 108.66 146.317C108.592 146.186 108.498 146.081 108.381 146.002C108.261 145.923 108.123 145.867 107.963 145.833C107.803 145.8 107.632 145.783 107.448 145.783ZM114.444 149.906L115.055 151.333H116.572L113.6 144.578H112.547L109.585 151.333H111.019L111.632 149.906H114.444ZM112.117 148.781L112.717 147.392L113.026 146.518H113.067L113.37 147.384L113.965 148.781H112.117ZM121.969 145.875H120.191C120.157 146.484 120.119 147.033 120.079 147.521C120.036 148.008 119.982 148.446 119.914 148.833C119.845 149.22 119.758 149.564 119.654 149.866C119.548 150.168 119.419 150.436 119.262 150.674C119.154 150.819 119.037 150.939 118.909 151.034C118.781 151.13 118.652 151.205 118.521 151.261C118.39 151.315 118.258 151.352 118.131 151.373C118.002 151.396 117.883 151.405 117.774 151.405C117.642 151.405 117.517 151.394 117.405 151.368C117.291 151.344 117.181 151.308 117.075 151.257L117.229 150.074C117.299 150.098 117.382 150.109 117.479 150.109C117.589 150.109 117.699 150.084 117.808 150.033C117.919 149.981 118.015 149.898 118.098 149.783C118.202 149.645 118.296 149.442 118.381 149.179C118.464 148.916 118.54 148.577 118.603 148.161C118.665 147.746 118.717 147.246 118.758 146.665C118.797 146.083 118.824 145.404 118.838 144.629H123.399V151.334H121.97V145.875H121.969ZM125.446 144.628H126.88V147.012C126.912 147.005 126.967 146.998 127.043 146.99C127.121 146.982 127.206 146.973 127.299 146.964C127.392 146.956 127.489 146.949 127.585 146.943C127.684 146.938 127.773 146.936 127.853 146.936C128.003 146.936 128.165 146.945 128.34 146.962C128.514 146.977 128.689 147.004 128.863 147.043C129.039 147.08 129.21 147.131 129.376 147.191C129.542 147.253 129.692 147.326 129.825 147.416C129.954 147.502 130.074 147.603 130.183 147.72C130.291 147.836 130.384 147.968 130.463 148.114C130.542 148.262 130.601 148.42 130.645 148.592C130.687 148.763 130.71 148.947 130.71 149.144C130.71 149.53 130.643 149.861 130.511 150.14C130.376 150.418 130.174 150.656 129.905 150.854C129.638 151.051 129.32 151.197 128.952 151.287C128.581 151.377 128.154 151.422 127.668 151.422C127.574 151.422 127.436 151.42 127.255 151.415C127.073 151.41 126.877 151.402 126.666 151.39C126.454 151.379 126.24 151.363 126.021 151.343C125.803 151.323 125.612 151.298 125.445 151.264V144.628H125.446ZM127.693 150.179C127.888 150.179 128.073 150.164 128.256 150.134C128.436 150.104 128.597 150.052 128.735 149.975C128.873 149.899 128.983 149.797 129.068 149.666C129.151 149.536 129.193 149.37 129.193 149.17C129.193 148.962 129.15 148.795 129.063 148.667C128.976 148.538 128.862 148.438 128.721 148.368C128.579 148.297 128.419 148.248 128.24 148.222C128.059 148.196 127.878 148.183 127.694 148.183C127.645 148.183 127.578 148.184 127.494 148.189C127.41 148.194 127.329 148.2 127.246 148.209C127.165 148.217 127.089 148.226 127.019 148.236C126.949 148.246 126.902 148.255 126.879 148.262V150.133C126.919 150.14 126.97 150.145 127.031 150.15C127.093 150.156 127.161 150.161 127.236 150.165C127.311 150.171 127.389 150.173 127.467 150.175C127.549 150.179 127.623 150.179 127.693 150.179ZM136.637 148.568H133.639V151.333H132.211V144.628H133.639V147.323H136.637V144.628H138.07V151.333H136.637V148.568ZM144.178 149.906H141.367L140.753 151.333H139.319L142.281 144.578H143.335L146.307 151.333H144.789L144.178 149.906ZM141.851 148.781H143.699L143.104 147.384L142.801 146.518H142.76L142.451 147.392L141.851 148.781ZM152.796 151.333H151.368V148.716L150.399 148.893L148.502 151.334H146.788L148.57 149.145L149.035 148.645C148.892 148.61 148.736 148.548 148.563 148.458C148.393 148.368 148.233 148.25 148.084 148.1C147.936 147.95 147.812 147.768 147.713 147.552C147.612 147.336 147.563 147.081 147.563 146.787C147.563 146.568 147.59 146.363 147.645 146.174C147.699 145.987 147.776 145.816 147.872 145.661C147.969 145.505 148.085 145.367 148.222 145.248C148.36 145.128 148.51 145.023 148.677 144.934C148.809 144.861 148.956 144.801 149.116 144.752C149.277 144.703 149.446 144.662 149.622 144.63C149.802 144.6 149.984 144.576 150.171 144.561C150.361 144.546 150.55 144.539 150.739 144.539C150.855 144.539 150.999 144.541 151.169 144.544C151.34 144.548 151.518 144.556 151.708 144.57C151.899 144.581 152.088 144.6 152.277 144.62C152.469 144.643 152.641 144.669 152.798 144.703V151.333H152.796ZM150.503 145.783C150.317 145.783 150.137 145.795 149.965 145.821C149.795 145.846 149.645 145.895 149.518 145.971C149.392 146.047 149.287 146.147 149.204 146.269C149.121 146.393 149.078 146.554 149.078 146.755C149.078 146.948 149.119 147.111 149.199 147.248C149.279 147.385 149.386 147.491 149.523 147.571C149.663 147.653 149.822 147.711 150.002 147.741C150.182 147.773 150.372 147.788 150.572 147.788H151.366V145.817C151.326 145.812 151.271 145.805 151.201 145.8C151.131 145.795 151.055 145.791 150.972 145.79C150.888 145.789 150.805 145.787 150.721 145.785C150.639 145.783 150.566 145.783 150.503 145.783ZM163.292 150.822C163.087 150.938 162.879 151.036 162.665 151.118C162.45 151.197 162.238 151.264 162.03 151.317C161.822 151.369 161.621 151.408 161.43 151.431C161.239 151.453 161.063 151.465 160.903 151.465C160.683 151.465 160.453 151.456 160.214 151.438C159.974 151.42 159.737 151.384 159.5 151.328C159.263 151.274 159.034 151.198 158.812 151.099C158.591 151.001 158.388 150.87 158.2 150.709C158.032 150.563 157.877 150.398 157.737 150.214C157.597 150.028 157.475 149.824 157.377 149.598C157.276 149.371 157.199 149.123 157.143 148.853C157.089 148.583 157.062 148.287 157.062 147.969C157.062 147.464 157.147 146.999 157.319 146.577C157.492 146.155 157.751 145.775 158.097 145.437C158.262 145.274 158.448 145.135 158.652 145.017C158.855 144.897 159.071 144.801 159.301 144.724C159.53 144.649 159.772 144.591 160.023 144.554C160.274 144.515 160.531 144.496 160.795 144.496C161.218 144.496 161.626 144.541 162.018 144.628C162.412 144.716 162.803 144.852 163.193 145.042L162.779 146.251C162.462 146.084 162.144 145.956 161.827 145.87C161.509 145.784 161.183 145.742 160.85 145.742C160.546 145.742 160.254 145.78 159.97 145.855C159.687 145.932 159.438 146.073 159.222 146.281C159.029 146.468 158.873 146.708 158.756 146.997C158.64 147.287 158.582 147.611 158.582 147.97C158.582 148.347 158.641 148.688 158.764 148.994C158.885 149.301 159.056 149.544 159.275 149.725C159.402 149.831 159.529 149.916 159.658 149.98C159.786 150.044 159.92 150.092 160.06 150.128C160.2 150.162 160.348 150.186 160.507 150.199C160.665 150.212 160.836 150.219 161.018 150.219C161.179 150.219 161.34 150.206 161.504 150.178C161.667 150.151 161.83 150.112 161.991 150.061C162.153 150.013 162.309 149.953 162.462 149.885C162.613 149.818 162.755 149.745 162.888 149.666L163.292 150.822ZM164.892 144.628H169.852V145.875H166.326V147.333H169.577V148.579H166.326V150.088H169.898V151.333H164.892V144.628ZM177.141 145.875H174.792V151.333H173.359V145.875H171.016V144.628H177.141V145.875ZM178.54 144.628H179.973V147.012C180.006 147.005 180.061 146.998 180.137 146.99C180.214 146.982 180.298 146.973 180.393 146.964C180.485 146.956 180.582 146.949 180.679 146.943C180.777 146.938 180.866 146.936 180.947 146.936C181.097 146.936 181.259 146.945 181.434 146.962C181.608 146.977 181.783 147.004 181.957 147.043C182.133 147.08 182.304 147.131 182.471 147.191C182.636 147.253 182.787 147.326 182.919 147.416C183.049 147.502 183.169 147.603 183.277 147.72C183.385 147.836 183.478 147.968 183.556 148.114C183.635 148.262 183.695 148.42 183.739 148.592C183.782 148.763 183.804 148.947 183.804 149.144C183.804 149.53 183.738 149.861 183.605 150.14C183.47 150.418 183.269 150.656 182.999 150.854C182.734 151.051 182.414 151.197 182.046 151.287C181.677 151.377 181.249 151.422 180.762 151.422C180.668 151.422 180.53 151.42 180.349 151.415C180.167 151.41 179.971 151.402 179.76 151.39C179.549 151.379 179.334 151.363 179.116 151.343C178.898 151.323 178.707 151.298 178.54 151.264V144.628ZM180.786 150.179C180.981 150.179 181.167 150.164 181.349 150.134C181.529 150.104 181.69 150.052 181.828 149.975C181.966 149.899 182.077 149.797 182.16 149.666C182.244 149.536 182.285 149.37 182.285 149.17C182.285 148.962 182.243 148.795 182.156 148.667C182.069 148.538 181.955 148.438 181.813 148.368C181.671 148.297 181.511 148.248 181.332 148.222C181.152 148.196 180.97 148.183 180.786 148.183C180.737 148.183 180.671 148.184 180.586 148.189C180.503 148.194 180.421 148.2 180.34 148.209C180.258 148.217 180.183 148.226 180.113 148.236C180.043 148.246 179.995 148.255 179.973 148.262V150.133C180.012 150.14 180.063 150.145 180.124 150.15C180.186 150.156 180.254 150.161 180.329 150.165C180.404 150.171 180.482 150.173 180.56 150.175C180.642 150.179 180.716 150.179 180.786 150.179Z" fill="#201600"/>
    <path fill-rule="evenodd" clip-rule="evenodd" d="M7.97162 108.998V95.5913L8.88597 95.1649V94.4685H2.17236V95.1649L3.51742 95.5913V134.906L2.17236 135.333V136.029H8.88597V135.333L7.97162 134.906V116.372C8.91737 117.881 10.2624 118.952 12.0274 119.607V134.906L11.1131 135.333V136.029H17.8365V135.333L16.5023 134.906V119.94C16.8702 119.856 17.2371 119.732 17.5943 119.545L17.1636 118.692C16.4071 118.931 15.6085 119.056 14.7678 119.056C12.9606 119.056 11.3957 118.463 10.0614 117.256C8.71638 116.165 8.01289 114.718 7.97072 112.929C8.01289 110.86 8.71638 109.247 10.0614 108.083C11.3957 106.907 12.9615 106.325 14.7678 106.325C15.6507 106.325 16.4484 106.47 17.1636 106.782L17.5943 105.95C17.2793 105.752 16.9114 105.627 16.5023 105.586V95.5904L17.8365 95.164V94.4676H11.1131V95.164L12.0274 95.5904V105.825C10.2624 106.502 8.91737 107.562 7.97162 108.998ZM31.0008 119.762C31.0008 118.212 30.7065 116.247 30.108 113.875L28.2901 106.699C28.038 105.773 27.9016 105.055 27.9016 104.567C27.8702 104.026 28.0487 103.714 28.4588 103.631V103.152C26.9666 103.308 25.6852 103.869 24.6139 104.826C23.4788 105.825 22.5761 107.114 21.9031 108.695C20.5266 111.992 19.8438 115.591 19.8438 119.491C19.8438 121.541 20.1803 123.859 20.8631 126.439L22.6595 133.605C22.8381 134.281 22.9224 134.822 22.9224 135.228C22.9224 135.851 22.7331 136.184 22.3652 136.226V136.653C24.1302 136.247 25.5587 135.488 26.6516 134.364C27.7759 133.273 28.658 131.941 29.2996 130.37C30.4759 127.001 31.043 123.465 31.0008 119.762ZM25.2545 105.388C25.0446 106.044 24.9494 106.844 24.9494 107.801C24.9494 108.519 25.0123 109.184 25.128 109.818L27.775 121.072C28.0801 122.435 28.2479 124.328 28.2901 126.741C28.2901 128.103 28.0801 129.497 27.6494 130.922C27.208 132.389 26.4937 133.564 25.5058 134.438C25.7579 133.762 25.8844 133.034 25.8844 132.233C25.8844 131.484 25.6951 130.278 25.3173 128.604L23.1746 119.607C22.7439 117.537 22.5339 115.415 22.5339 113.262C22.533 109.923 23.4474 107.302 25.2545 105.388ZM40.1309 103.578V104.826C39.3637 103.869 38.2717 103.391 36.853 103.391C36.0966 103.391 35.3716 103.671 34.6995 104.212C33.9009 104.743 33.4917 105.637 33.4917 106.896C33.4917 107.468 33.6595 107.967 33.996 108.394C34.311 108.872 34.6995 109.122 35.1518 109.122C36.2761 109.08 36.8647 108.519 36.8961 107.448C36.8647 106.283 36.3389 105.711 35.3303 105.711C34.7004 105.753 34.3325 105.992 34.2589 106.438L34.0696 106.376C34.3953 104.972 35.3411 104.255 36.8961 104.213C37.8733 104.213 38.6611 104.484 39.291 105.014C39.8473 105.596 40.1309 106.303 40.1309 107.146C40.1309 108.051 39.8366 108.737 39.2587 109.184C38.6701 109.652 37.8401 110.089 36.8001 110.494C35.9495 110.755 35.2137 111.15 34.573 111.68C33.8587 112.273 33.4909 113.24 33.4909 114.572C33.4909 115.352 33.7116 116.111 34.1423 116.86C34.5524 117.651 35.3088 118.046 36.3909 118.046C37.4201 118.046 38.2089 117.828 38.7338 117.381C39.291 116.996 39.7531 116.444 40.1309 115.737C39.2381 119.939 37.1366 122.061 33.8067 122.102C33.5546 122.102 33.3132 122.019 33.061 121.863L32.8825 122.497L33.4917 122.924V135.144L32.3782 135.54V136.028H37.6104V135.602L36.8961 135.144V122.164C38.304 121.478 39.3753 120.271 40.1318 118.566V135.144L39.4175 135.602V136.028H44.2288V135.54L43.5146 135.144V122.154C44.9225 121.467 45.9938 120.271 46.7503 118.565V135.143L46.036 135.539V136.027H51.2045V135.539L50.1537 135.143V104.441L51.2045 104.045V103.577H46.036V104.066L46.7503 104.461V115.736C46.2253 118.315 45.1531 120.134 43.5146 121.185V104.461L44.2288 104.066V103.577H40.1309V103.578ZM40.1309 109.756V113.75C40.0788 114.302 39.8895 114.842 39.5422 115.373C39.09 115.997 38.6279 116.309 38.155 116.309C37.9029 116.351 37.6301 116.237 37.3465 115.945C37.0522 115.685 36.8952 115.196 36.8952 114.489V113.938C36.8952 113.024 37.1159 112.337 37.5466 111.869C37.9558 111.422 38.4924 110.985 39.1537 110.558C39.5844 110.308 39.9101 110.048 40.1309 109.756ZM57.0028 115.737V104.463L57.7171 104.068V103.579H52.5477V104.068L53.6191 104.463V135.145L52.5477 135.54V136.029H57.7171V135.54L57.0028 135.145V118.109L60.2385 112.628V135.146L59.5242 135.541V136.03H64.6828V135.541L63.6428 135.146V104.464L64.6828 104.068V103.58H59.5242V104.068L60.2385 104.464V110.184L57.0028 115.737ZM73.1408 119.804L72.9514 120.418L73.5921 120.844V130.018C73.2036 129.487 72.8249 129.009 72.4579 128.582C72.0694 128.176 71.7221 127.698 71.4278 127.147C71.1443 126.616 70.9029 125.899 70.6822 124.983C70.4722 124.11 70.3565 122.944 70.3565 121.478V106.875C70.3565 106.168 70.4722 105.533 70.6822 104.992C70.8607 104.462 71.2708 104.191 71.9429 104.191C72.7415 104.191 73.2242 104.482 73.3929 105.044C73.5194 105.678 73.5921 106.614 73.5921 107.852V109.037L73.0035 109.317V109.744H77.5313V109.317L76.9956 109.047V107.737C76.9956 106.458 76.6385 105.407 75.9242 104.576C75.1364 103.785 73.8541 103.39 72.0685 103.39C70.2093 103.39 68.8849 103.827 68.097 104.7C67.2985 105.574 66.9306 106.78 66.9727 108.33V121.424C66.9727 123.338 67.4456 124.888 68.412 126.083C69.3362 127.384 70.4713 128.58 71.8262 129.651C72.457 130.161 72.877 130.618 73.0869 131.023C73.2449 131.45 73.3283 131.949 73.3283 132.51C73.2861 134.445 72.4463 135.433 70.7961 135.475C70.0711 135.475 69.4098 135.236 68.7898 134.768C68.517 134.529 68.2855 134.248 68.0755 133.946C67.9077 133.707 67.792 133.436 67.7076 133.155H67.8234C67.9391 133.602 68.2855 133.842 68.8526 133.883C69.819 133.883 70.3232 133.3 70.3547 132.146C70.3232 131.075 69.7346 130.513 68.6211 130.472C68.1697 130.472 67.7803 130.67 67.4653 131.086C67.1298 131.554 66.9718 132.095 66.9718 132.698C66.9718 133.884 67.4232 134.757 68.3375 135.329C69.1254 135.963 70.0182 136.275 71.0061 136.275C73.2126 136.233 74.7775 135.61 75.681 134.413C76.5532 133.227 76.9947 131.761 76.9947 130.013V120.84L77.5932 120.351L77.3518 119.8H73.1408V119.804ZM86.4935 119.804L86.3042 120.418L86.9449 120.844V130.018C86.5563 129.487 86.1777 129.009 85.8098 128.582C85.4212 128.176 85.0749 127.698 84.7806 127.147C84.497 126.616 84.2556 125.899 84.0349 124.983C83.8249 124.11 83.7092 122.944 83.7092 121.478V106.875C83.7092 106.168 83.8249 105.533 84.0349 104.992C84.2135 104.462 84.6235 104.191 85.2956 104.191C86.0942 104.191 86.577 104.482 86.7457 105.044C86.8722 105.678 86.9457 106.614 86.9457 107.852V109.037L86.3571 109.317V109.744H90.8849V109.317L90.3492 109.047V107.737C90.3492 106.458 89.9921 105.407 89.2778 104.576C88.49 103.785 87.2078 103.39 85.4221 103.39C83.562 103.39 82.2385 103.827 81.4507 104.7C80.6521 105.574 80.2842 106.78 80.3264 108.33V121.424C80.3264 123.338 80.7992 124.888 81.7656 126.083C82.6898 127.384 83.8249 128.58 85.1799 129.651C85.8098 130.161 86.2306 130.618 86.4406 131.023C86.5985 131.45 86.6819 131.949 86.6819 132.51C86.6398 134.445 85.7999 135.433 84.1498 135.475C83.4247 135.475 82.7625 135.236 82.1434 134.768C81.8706 134.529 81.6391 134.248 81.4291 133.946C81.2613 133.707 81.1456 133.436 81.0612 133.155H81.177C81.2928 133.602 81.6391 133.842 82.2062 133.883C83.1726 133.883 83.6769 133.3 83.7083 132.146C83.6769 131.075 83.0883 130.513 81.9747 130.472C81.5225 130.472 81.1339 130.67 80.819 131.086C80.4834 131.554 80.3255 132.095 80.3255 132.698C80.3255 133.884 80.7768 134.757 81.6912 135.329C82.479 135.963 83.3718 136.275 84.3597 136.275C86.5662 136.233 88.1311 135.61 89.0347 134.413C89.9068 133.227 90.3474 131.761 90.3474 130.013V120.84L90.9459 120.351L90.7045 119.8H86.4935V119.804ZM97.0619 115.737V104.463L97.7762 104.068V103.579H92.6068V104.068L93.6782 104.463V135.145L92.6068 135.54V136.029H97.7762V135.54L97.0619 135.145V118.109L100.298 112.628V135.146L99.5833 135.541V136.03H104.742V135.541L103.702 135.146V104.464L104.742 104.068V103.58H99.5833V104.068L100.298 104.464V110.184L97.0619 115.737ZM117.685 119.762C117.685 118.212 117.391 116.247 116.793 113.875L114.975 106.699C114.723 105.773 114.586 105.055 114.586 104.567C114.555 104.026 114.733 103.714 115.143 103.631V103.152C113.651 103.308 112.369 103.869 111.298 104.826C110.163 105.825 109.26 107.114 108.587 108.695C107.21 111.992 106.528 115.591 106.528 119.491C106.528 121.541 106.864 123.859 107.547 126.439L109.343 133.605C109.522 134.281 109.606 134.822 109.606 135.228C109.606 135.851 109.417 136.184 109.05 136.226V136.653C110.815 136.247 112.243 135.488 113.336 134.364C114.461 133.273 115.343 131.941 115.983 130.37C117.161 127.001 117.728 123.465 117.685 119.762ZM111.938 105.388C111.728 106.044 111.633 106.844 111.633 107.801C111.633 108.519 111.696 109.184 111.812 109.818L114.459 121.072C114.764 122.435 114.932 124.328 114.974 126.741C114.974 128.103 114.764 129.497 114.333 130.922C113.892 132.389 113.177 133.564 112.19 134.438C112.443 133.762 112.569 133.034 112.569 132.233C112.569 131.484 112.38 130.278 112.002 128.604L109.858 119.607C109.428 117.537 109.218 115.415 109.218 113.262C109.218 109.923 110.132 107.302 111.938 105.388ZM123.768 104.463L124.483 104.068V103.579H119.313V104.068L120.385 104.463V135.145L119.313 135.54V136.029H124.483V135.54L123.768 135.145V112.627L127.004 118.108V135.144L126.29 135.54V136.028H131.448V135.54L130.408 135.144V104.462L131.448 104.067V103.578H126.29V104.067L127.004 104.462V115.736L123.768 110.183V104.463ZM137.121 104.463L137.835 104.068V103.579H132.667V104.068L133.738 104.463V135.145L132.667 135.54V136.029H137.835V135.54L137.121 135.145V112.627L140.357 118.108V135.144L139.642 135.54V136.028H144.801V135.54L143.761 135.144V104.462L144.801 104.067V103.578H139.642V104.067L140.357 104.462V115.736L137.121 110.183V104.463ZM153.71 103.578V104.826C152.943 103.869 151.861 103.391 150.443 103.391C149.687 103.391 148.962 103.671 148.29 104.212C147.491 104.743 147.092 105.637 147.092 106.896C147.092 107.468 147.25 107.967 147.585 108.394C147.9 108.872 148.29 109.122 148.741 109.122C149.855 109.08 150.443 108.519 150.475 107.448C150.443 106.283 149.918 105.711 148.91 105.711C148.279 105.753 147.912 105.992 147.838 106.438L147.649 106.376C147.975 104.972 148.921 104.255 150.476 104.213C151.453 104.213 152.241 104.484 152.871 105.014C153.428 105.596 153.711 106.303 153.711 107.146C153.711 108.051 153.417 108.737 152.85 109.184C152.251 109.652 151.431 110.089 150.381 110.494C149.541 110.755 148.806 111.15 148.165 111.68C147.451 112.273 147.094 113.24 147.094 114.572C147.094 115.352 147.304 116.111 147.734 116.86C148.143 117.651 148.89 118.046 149.982 118.046C151.012 118.046 151.789 117.828 152.325 117.381C152.871 116.996 153.333 116.444 153.711 115.737C152.828 119.939 150.717 122.061 147.397 122.102C147.145 122.102 146.903 122.019 146.661 121.863L146.472 122.497L147.092 122.924V135.144L145.967 135.54V136.028H151.189V135.602L150.475 135.144V122.164C151.883 121.478 152.954 120.271 153.71 118.566V135.144L152.996 135.602V136.028H158.155V135.54L157.115 135.144V104.4L158.155 104.067V103.578H153.71ZM153.71 109.705V113.688C153.657 114.218 153.469 114.759 153.122 115.31C152.67 115.934 152.207 116.257 151.734 116.257C151.482 116.299 151.209 116.173 150.925 115.883C150.631 115.623 150.474 115.134 150.474 114.427V113.876C150.474 112.961 150.694 112.275 151.125 111.807C151.535 111.36 152.071 110.923 152.732 110.496C153.164 110.246 153.49 109.985 153.71 109.705ZM167.063 120.73V135.145L166.349 135.54V136.029H171.507V135.54L170.467 135.145V107.75C170.499 104.92 168.807 103.475 165.362 103.392C163.86 103.392 162.682 103.725 161.811 104.401C160.897 105.108 160.445 106.148 160.445 107.511V108.998C160.445 109.83 160.593 110.506 160.908 111.005C161.108 111.494 161.391 111.889 161.769 112.201C162.157 112.44 162.578 112.627 163.03 112.752C163.46 112.908 163.86 113.127 164.228 113.386C164.984 113.75 165.667 114.312 166.255 115.06C166.791 115.809 167.065 116.724 167.065 117.806C167.023 119.304 166.498 120.521 165.489 121.436C164.449 122.34 163.209 122.798 161.77 122.798C161.15 122.798 160.53 122.704 159.889 122.496L159.584 123.172C159.868 123.329 160.151 123.411 160.445 123.411V135.143L159.374 135.539V136.027H164.543V135.539L163.829 135.143V123.224C165.235 122.695 166.307 121.863 167.063 120.73ZM167.063 114.988C166.842 114.479 166.559 114.063 166.222 113.74C165.854 113.407 165.497 113.095 165.15 112.793C164.32 112.221 163.879 111.41 163.826 110.35V106.241C163.826 105.753 163.921 105.357 164.089 105.055C164.215 104.764 164.373 104.567 164.541 104.442C164.909 104.275 165.244 104.192 165.539 104.192C165.906 104.192 166.264 104.275 166.61 104.442C166.904 104.68 167.062 105.284 167.062 106.24V114.988H167.063ZM195.545 103.578V104.826C194.778 103.869 193.686 103.391 192.247 103.391C191.479 103.391 190.776 103.661 190.114 104.212C189.315 104.743 188.916 105.627 188.916 106.885C188.916 107.457 189.074 107.946 189.389 108.372C189.714 108.861 190.103 109.101 190.555 109.101C191.69 109.07 192.278 108.508 192.32 107.426C192.278 106.271 191.774 105.69 190.797 105.69C190.177 105.731 189.819 105.97 189.746 106.418L189.567 106.366C189.914 104.961 190.859 104.234 192.414 104.192C193.297 104.192 194.043 104.462 194.642 104.993C195.241 105.576 195.545 106.252 195.545 107.001C195.503 108.832 195.146 110.35 194.463 111.546C193.749 112.805 192.93 114.011 192.004 115.176C191.09 116.289 190.271 117.661 189.557 119.295C188.758 120.917 188.359 123.081 188.359 125.785V135.146L187.287 135.541V136.03H192.446V135.541L191.741 135.146V125.234C191.836 121.271 192.698 117.642 194.357 114.355L195.544 111.848V135.146L194.808 135.541V136.03H199.978V135.541L198.948 135.146V104.464L199.978 104.068V103.58H195.545V103.578ZM208.919 103.578V104.826C208.151 103.869 207.069 103.391 205.651 103.391C204.895 103.391 204.17 103.671 203.498 104.212C202.699 104.743 202.3 105.637 202.3 106.896C202.3 107.468 202.458 107.967 202.794 108.394C203.108 108.872 203.498 109.122 203.949 109.122C205.063 109.08 205.651 108.519 205.683 107.448C205.651 106.283 205.127 105.711 204.118 105.711C203.487 105.753 203.12 105.992 203.047 106.438L202.857 106.376C203.183 104.972 204.129 104.255 205.684 104.213C206.661 104.213 207.449 104.484 208.08 105.014C208.636 105.596 208.92 106.303 208.92 107.146C208.92 108.051 208.626 108.737 208.059 109.184C207.46 109.652 206.64 110.089 205.59 110.494C204.749 110.755 204.014 111.15 203.373 111.68C202.659 112.273 202.302 113.24 202.302 114.572C202.302 115.352 202.512 116.111 202.942 116.86C203.352 117.651 204.098 118.046 205.19 118.046C206.22 118.046 206.997 117.828 207.533 117.381C208.08 116.996 208.542 116.444 208.919 115.737C208.036 119.939 205.925 122.061 202.605 122.102C202.353 122.102 202.112 122.019 201.869 121.863L201.68 122.497L202.3 122.924V135.144L201.176 135.54V136.028H206.397V135.602L205.683 135.144V122.164C207.091 121.478 208.162 120.271 208.919 118.566V135.144L208.204 135.602V136.028H213.363V135.54L212.323 135.144V104.4L213.363 104.067V103.578H208.919ZM208.919 109.705V113.688C208.866 114.218 208.677 114.759 208.33 115.31C207.879 115.934 207.416 116.257 206.943 116.257C206.691 116.299 206.417 116.173 206.133 115.883C205.839 115.623 205.682 115.134 205.682 114.427V113.876C205.682 112.961 205.903 112.275 206.333 111.807C206.743 111.36 207.279 110.923 207.941 110.496C208.373 110.246 208.699 109.985 208.919 109.705ZM226.716 136.029V135.551L225.676 135.166V123.424C225.948 123.424 226.243 123.34 226.537 123.185L226.201 122.509C225.591 122.717 224.96 122.811 224.331 122.811C222.891 122.811 221.673 122.353 220.674 121.438C219.581 120.533 219.035 119.316 219.035 117.819C219.035 116.737 219.36 115.822 219.991 115.073C220.527 114.324 221.158 113.763 221.882 113.398C222.355 113.128 222.795 112.92 223.205 112.753C223.636 112.628 224.035 112.451 224.403 112.203C224.771 111.901 225.097 111.506 225.36 111.017C225.57 110.507 225.675 109.842 225.675 108.999V107.512C225.59 104.808 223.952 103.435 220.748 103.393C217.312 103.476 215.611 104.933 215.652 107.751V135.167L214.58 135.552V136.03H226.716V136.029ZM219.036 120.73C219.792 121.874 220.874 122.706 222.271 123.236V135.229H219.036V120.73ZM219.036 114.998V106.24C219.036 105.284 219.235 104.68 219.624 104.442C219.939 104.275 220.254 104.192 220.559 104.192C220.948 104.192 221.316 104.275 221.684 104.442C222.03 104.68 222.219 105.284 222.272 106.24V110.359C222.272 110.911 222.156 111.369 221.946 111.732C221.726 112.117 221.442 112.47 221.074 112.803C220.728 113.105 220.381 113.417 220.045 113.749C219.635 114.073 219.298 114.489 219.036 114.998ZM232.389 114.947V104.463L233.103 104.068V103.579H227.934V104.068L229.005 104.463V135.145L227.934 135.54V136.029H233.103V135.54L232.389 135.145V120.677C233.146 121.852 234.228 122.705 235.625 123.236V135.144L234.911 135.602V136.028H240.069V135.54L239.029 135.144V123.412C239.302 123.412 239.596 123.329 239.891 123.173L239.554 122.497C238.945 122.705 238.314 122.809 237.684 122.809C236.245 122.809 235.026 122.352 234.029 121.437C232.936 120.522 232.389 119.315 232.389 117.807C232.389 116.34 232.936 115.134 234.029 114.187C235.026 113.272 236.245 112.815 237.684 112.815C238.398 112.857 239.018 112.971 239.554 113.179L239.891 112.565C239.639 112.44 239.344 112.347 239.029 112.263V104.525L240.069 104.161V103.578H234.911V104.067L235.625 104.524V112.439C234.228 112.928 233.146 113.761 232.389 114.947ZM255.66 95.5904L256.994 95.164V94.4676H251.184V96.0168C250.26 94.7376 248.863 94.1238 247.013 94.1656C246.089 94.1656 245.143 94.5191 244.177 95.2262C243.211 95.9751 242.716 97.1192 242.675 98.6373C242.675 99.3862 242.896 100.042 243.337 100.592C243.768 101.216 244.261 101.529 244.829 101.529C246.289 101.467 247.057 100.738 247.13 99.3346C247.099 97.8787 246.416 97.1192 245.103 97.0881C244.325 97.1192 243.863 97.463 243.716 98.0866L243.537 98.0244C243.653 97.192 244.073 96.5267 244.798 96.0168C245.47 95.5282 246.258 95.2893 247.13 95.2893C248.328 95.2893 249.305 95.6428 250.082 96.3499C250.818 97.0464 251.185 97.9205 251.185 98.9704C251.185 99.8854 250.975 100.593 250.565 101.071C250.134 101.581 249.756 101.914 249.42 102.08C248.664 102.527 247.896 102.881 247.14 103.152C246.299 103.432 245.554 103.786 244.923 104.212C244.198 104.618 243.662 105.159 243.284 105.825C242.874 106.501 242.675 107.395 242.675 108.508C242.612 109.548 242.854 110.547 243.41 111.493C243.967 112.45 244.954 112.949 246.373 112.991C247.686 112.991 248.705 112.71 249.42 112.138C250.123 111.586 250.712 110.879 251.185 110.006C250.061 115.404 247.382 118.129 243.148 118.17C242.717 118.17 242.402 118.066 242.202 117.869L241.898 118.629L242.675 119.243V134.906L241.33 135.333V136.029H248.044V135.333L247.129 134.906V118.233C247.948 117.9 248.747 117.287 249.514 116.372C250.25 115.539 250.806 114.603 251.185 113.564V134.906L250.271 135.333V136.029H256.994V135.333L255.66 134.906V95.5904ZM251.184 102.31V107.437C251.142 108.186 250.879 108.904 250.396 109.569C250.144 109.86 249.892 110.099 249.64 110.307C249.346 110.566 249.031 110.702 248.673 110.702C248.337 110.702 248.011 110.547 247.696 110.245C247.318 109.954 247.129 109.34 247.129 108.383V107.676C247.129 106.2 247.56 105.118 248.421 104.451C249.241 103.818 250.155 103.111 251.184 102.31Z" fill="#201600"/>
    <path fill-rule="evenodd" clip-rule="evenodd" d="M32.9651 147.986H68.7378V149.006H32.9651V147.986ZM188.202 147.986H223.973V149.006H188.202V147.986Z" fill="#201600"/>
    <path fill-rule="evenodd" clip-rule="evenodd" d="M101.452 19.0115V50.4932C101.452 54.3138 101.787 58.0181 102.753 61.4923C103.711 64.9434 105.295 68.1884 107.794 71.1233C109.159 72.7259 110.719 74.1649 112.383 75.4823C114.052 76.8032 115.843 78.0113 117.658 79.1483C120.96 81.2172 124.405 83.1093 127.838 84.9943L129.583 85.9537L131.32 84.9988C134.757 83.112 138.203 81.219 141.507 79.1483C143.322 78.0122 145.113 76.8032 146.782 75.4823C148.447 74.1649 150.007 72.7259 151.371 71.1233C153.87 68.1884 155.453 64.9434 156.412 61.4923C157.378 58.0181 157.714 54.3138 157.714 50.4932V19.0115C152.697 19.628 147.987 19.4947 143.417 18.5513C138.702 17.5786 134.151 15.7469 129.583 12.9932C125.014 15.7469 120.463 17.5786 115.749 18.5513C111.179 19.4947 106.468 19.6288 101.452 19.0115Z" fill="#DB7D43"/>
    <path fill-rule="evenodd" clip-rule="evenodd" d="M134.121 10.2724C142.653 14.8685 151.393 15.9612 162.363 13.5414V50.4942C162.459 75.0374 148.503 80.6213 129.584 91.2269V87.9188L132.163 86.4984C135.627 84.5965 139.101 82.6893 142.433 80.6018C144.281 79.4452 146.118 78.2024 147.863 76.822C149.612 75.4371 151.254 73.9226 152.697 72.2277C155.371 69.0866 157.063 65.6231 158.085 61.9437C159.101 58.2883 159.454 54.4392 159.454 50.4942V17.0396L158.462 17.1799C153.27 17.9146 148.436 17.8337 143.771 16.8708C140.117 16.1175 136.557 14.8188 132.998 12.9445C128.618 10.6375 127.314 4.65031 132.332 1.73665C133.29 1.18056 134.349 0.902524 135.416 0.881204C138.511 0.811916 140.94 3.47951 140.799 6.12934C140.667 8.59707 138.171 10.5265 135.666 9.72878C133.748 9.12029 132.718 6.94126 134.952 5.89039C135.579 5.59725 135.433 4.67607 134.706 4.33051C132.348 3.21568 129.885 7.99124 134.121 10.2724ZM131.237 3.56124C134.856 0.363319 141.408 3.06112 138.802 8.16002C140.723 6.79114 140.359 4.09334 138.423 2.69869C136.313 1.17612 132.805 1.63449 131.237 3.56124Z" fill="#201600"/>
    <path fill-rule="evenodd" clip-rule="evenodd" d="M125.044 10.2724C116.514 14.8685 107.774 15.9612 96.8035 13.5414V50.4942C96.7075 75.0374 110.662 80.6213 129.584 91.2269L130.214 89.3712L129.584 87.9188L127.004 86.4984C123.54 84.5965 120.066 82.6893 116.735 80.6018C114.888 79.4452 113.05 78.2024 111.305 76.822C109.556 75.4371 107.914 73.9226 106.471 72.2277C103.797 69.0866 102.106 65.6231 101.083 61.9437C100.067 58.2883 99.7134 54.4392 99.7134 50.4942V17.0396L100.705 17.1799C105.898 17.9146 110.731 17.8337 115.396 16.8708C119.05 16.1175 122.611 14.8188 126.169 12.9445C130.549 10.6375 131.853 4.65031 126.835 1.73665C125.877 1.18056 124.818 0.902524 123.751 0.881204C120.656 0.811916 118.227 3.47951 118.368 6.12934C118.5 8.59707 120.997 10.5265 123.502 9.72878C125.419 9.12029 126.449 6.94126 124.215 5.89039C123.588 5.59725 123.735 4.67607 124.462 4.33051C126.817 3.21568 129.281 7.99124 125.044 10.2724ZM127.929 3.56124C124.309 0.363319 117.757 3.06112 120.364 8.16002C118.443 6.79114 118.805 4.09334 120.742 2.69869C122.853 1.17612 126.361 1.63449 127.929 3.56124Z" fill="#201600"/>
    <path fill-rule="evenodd" clip-rule="evenodd" d="M182.883 73.7918C190.156 71.5906 193.805 65.6238 192.943 59.1054C192.228 53.6964 186.914 54.4222 188.087 58.4836C189.922 64.8465 186.916 70.3736 182.883 73.7918ZM172.119 14.5068C167.827 19.8429 170.31 25.7395 175.006 31.0152C180.305 36.9687 187.899 43.3965 185.378 53.986C182.949 43.1531 172.694 41.7416 167.756 35.8094C162.081 28.9916 164.167 18.5415 172.119 14.5068ZM166.929 22.753C163.054 33.7272 176.869 39.0731 183.116 46.0845C177.084 36.9269 165.014 34.206 166.929 22.753ZM180.44 40.7067C178.816 37.0486 169.88 30.9681 168.534 27.9585C169.285 32.5022 176.496 36.6586 180.44 40.7067ZM152.548 79.04C157.481 76.1334 163.256 74.3834 167.997 72.1458C175.658 68.5304 182.813 61.3315 180.578 54.6549C179.796 52.3169 178.075 49.9611 175.687 48.8143C171.59 46.8449 166.077 47.5253 163.947 51.4011C162.003 54.9374 162.915 60.0958 167.759 61.5926C161.411 58.9277 163.452 50.2667 168.778 49.7737C166.474 51.3753 164.591 55.1631 166.562 57.6237C165.199 53.8208 169.332 47.9482 174.24 51.0653C165.637 53.4495 170.849 64.2949 175.016 60.6661C172.766 60.6652 171.319 57.732 172.167 55.8968C172.929 54.2463 174.898 53.5188 176.567 54.273C179.587 55.6392 178.954 59.665 176.914 61.6282C173.331 65.0775 165.166 64.3162 162.176 59.2404C156.756 50.0348 166.37 40.5779 175.801 43.957C185.5 47.4312 189.498 64.1439 180.387 74.6872C183.24 74.5709 185.483 75.4263 185.483 75.4263C177.274 85.8871 158.58 81.9243 147.682 87.4345C153.661 85.482 163.73 84.2428 168.7 87.8325C167.672 88.2331 167.057 88.3459 166.542 88.3495C166.815 88.6444 167.07 88.9686 167.305 89.323C167.996 90.3686 168.386 91.5225 168.493 92.6844C168.803 96.0591 166.017 98.7063 163.06 98.5526C160.305 98.4087 157.972 95.6869 158.668 92.9571C159.202 90.866 161.546 89.7441 162.884 92.179C163.374 93.0762 164.708 92.9944 165.044 92.0821C165.365 91.2125 164.745 89.5522 163.056 88.6861C158.661 86.4289 147.139 87.2169 140.457 94.7258C141.635 87.8182 146.645 82.5141 152.548 79.04ZM151.424 83.4531C161.585 78.8694 173.446 79.0462 177.869 72.7161C169.308 79.0924 159.92 77.2562 151.424 83.4531ZM149.635 83.096C155.366 78.1055 163.106 76.3102 169.335 73.6142C175.78 70.8249 181.245 67.3604 183.144 59.2866C182.467 67.8694 176.659 71.7674 170.27 74.6162C163.721 77.5352 155.925 79.0782 149.635 83.096ZM178.513 77.6915C175.724 79.2985 170.406 79.8519 165.687 80.6336C161.486 81.3309 154.087 82.2148 149 85.7885C153.435 83.3545 160.494 82.6225 165.87 81.7307C168.605 81.2776 176.036 79.7986 178.513 77.6915ZM177.178 59.1782C178.969 57.2781 177.317 54.1433 174.683 54.583C173.795 54.7313 173.075 55.283 172.686 56.0149C173.088 55.5877 173.629 55.2839 174.256 55.179C175.771 54.9259 177.205 55.9368 177.461 57.4353C177.566 58.0563 177.454 58.6621 177.178 59.1782ZM175.299 45.7638C171.62 43.4995 165.385 45.3241 163.579 48.8942C166.207 45.5169 171.185 44.7787 175.299 45.7638ZM181.322 52.1872C178.967 46.5002 170.837 44.7858 166.623 47.5067C172.481 45.7443 178.155 47.7625 181.322 52.1872ZM189.283 91.6202C188.524 92.9323 186.086 93.3418 185.102 91.9853C184.69 96.0849 193.641 94.4895 191.35 88.2589C195.412 89.8569 193.604 94.915 190.668 95.7544C193.044 95.8672 194.552 93.077 194.532 90.9886C196.556 94.4157 192.116 99.4311 187.703 96.7662C192.838 100.6 199.501 93.0859 194.265 88.512C192.443 86.9211 189.756 86.1411 186.212 86.0674C179.395 85.9235 169.993 86.7274 163.023 85.124C177.401 84.6159 194.158 76.8965 196.767 61.9151C200.201 63.5709 200.366 67.1801 199.758 69.9579C200.965 69.3654 202.141 69.313 202.141 69.313C202.328 74.7716 198.424 77.0288 194.298 78.4084C196.332 78.507 198.392 78.9618 200.488 79.8972C205.32 82.0531 208.959 86.5826 209.569 92.0653C201.823 91.5731 201.055 89.2848 199.271 86.858C198.068 85.2217 196.374 83.7782 194.5 83.0009C201.337 82.4955 206.334 89.077 206.334 89.077C202.418 82.5159 196.347 80.2552 189.471 82.7682C193.348 82.4955 198.055 85.84 198.573 89.88C199.115 94.0968 195.979 98.6965 191.593 99.1069C188.645 99.3814 185.61 97.6536 184.194 95.1619C183.056 93.157 182.967 90.1376 184.847 88.528C186.003 87.5375 187.561 87.5411 188.563 88.2198C189.588 88.9162 190.036 90.318 189.283 91.6202ZM185.352 84.5768C189.91 84.4764 195.19 86.4049 196.867 91.2969C195.258 85.5904 190.097 83.3483 185.352 84.5768ZM184.578 89.9768C184.794 89.5487 185.149 89.1845 185.618 88.9571C186.751 88.409 188.118 88.8727 188.673 89.9955C188.903 90.4592 188.958 90.9629 188.861 91.4328C189.168 90.8243 189.195 90.0852 188.87 89.4279C188.315 88.305 186.947 87.8413 185.814 88.3903C185.15 88.711 184.713 89.3097 184.578 89.9768ZM197.345 93.7397C199.413 90.2229 195.805 84.3041 191.839 83.8351C195.272 85.3203 198.554 89.7548 197.345 93.7397ZM178.541 84.5395C184.876 81.7227 195.22 78.4723 201.945 81.8914C194.494 76.7757 184.028 81.4126 178.541 84.5395ZM188.251 77.4286C193.573 75.1403 198.504 72.1156 198.139 65.415C199.959 71.9015 193.734 76.4088 188.251 77.4286ZM181.178 81.736C184.589 79.8234 187.109 78.8658 189.212 78.1978C194.99 76.359 198.624 75.5338 201.168 70.5246C200.061 75.8696 194.896 77.266 189.166 78.8383C187.159 79.3882 184.698 80.1646 181.178 81.736ZM165.33 88.2393L165.29 88.2358C168.979 92.2021 166.466 99.1948 160.649 96.378C162.316 98.4718 165.287 98.0765 166.693 95.9658C168.196 93.7131 167.486 89.9964 165.33 88.2393ZM190.593 57.6308C192.908 60.7345 192.019 66.1355 188.916 69.1229C191.168 65.8521 191.829 61.3937 190.593 57.6308Z" fill="#201600"/>
    <path fill-rule="evenodd" clip-rule="evenodd" d="M76.2839 73.7918C69.0095 71.5906 65.3602 65.6238 66.2234 59.1054C66.9386 53.6964 72.2515 54.4222 71.0796 58.4836C69.2428 64.8465 72.2497 70.3736 76.2839 73.7918ZM87.048 14.5068C91.3398 19.8429 88.8569 25.7395 84.1605 31.0152C78.8619 36.9687 71.2671 43.3965 73.7886 53.986C76.2175 43.1531 86.4737 41.7416 91.4106 35.8094C97.0843 28.9916 94.9999 18.5415 87.048 14.5068ZM92.2362 22.753C96.1116 33.7272 82.2968 39.0731 76.0506 46.0845C82.0823 36.9269 94.1519 34.206 92.2362 22.753ZM78.7255 40.7067C80.3505 37.0486 89.2858 30.9681 90.6327 27.9585C89.8807 32.5022 82.67 36.6586 78.7255 40.7067ZM106.619 79.04C101.686 76.1334 95.9106 74.3834 91.1702 72.1458C83.509 68.5304 76.3539 61.3315 78.5882 54.6549C79.3707 52.3169 81.0908 49.9611 83.4794 48.8143C87.5765 46.8449 93.0886 47.5253 95.2197 51.4011C97.1623 54.9374 96.2516 60.0958 91.4071 61.5926C97.7555 58.9277 95.7141 50.2667 90.3886 49.7737C92.6911 51.3753 94.5745 55.1631 92.6041 57.6237C93.9671 53.8208 89.8332 47.9482 84.9268 51.0653C93.5292 53.4495 88.3176 64.2949 84.1506 60.6661C86.4001 60.6652 87.8475 57.732 86.9995 55.8968C86.2368 54.2463 84.2672 53.5188 82.5992 54.273C79.5797 55.6392 80.2123 59.665 82.2519 61.6282C85.8348 65.0775 93.9994 64.3162 96.9892 59.2404C102.411 50.0348 92.7961 40.5779 83.3645 43.957C73.6665 47.4312 69.6672 64.1439 78.7784 74.6872C75.9268 74.5709 73.6845 75.4263 73.6845 75.4263C81.893 85.8871 100.586 81.9243 111.485 87.4345C105.505 85.482 95.4368 84.2428 90.4667 87.8325C91.495 88.2331 92.1105 88.3459 92.6256 88.3495C92.3519 88.6444 92.0971 88.9686 91.862 89.323C91.1711 90.3686 90.7816 91.5225 90.6749 92.6844C90.3653 96.0591 93.1505 98.7063 96.1071 98.5526C98.8627 98.4087 101.196 95.6869 100.499 92.9571C99.9655 90.866 97.6218 89.7441 96.283 92.179C95.7922 93.0762 94.4597 92.9944 94.1223 92.0821C93.8019 91.2125 94.422 89.5522 96.1116 88.6861C100.507 86.4289 112.029 87.2169 118.71 94.7258C117.531 87.8182 112.521 82.5141 106.619 79.04ZM107.742 83.4531C97.5805 78.8694 85.7191 79.0462 81.2972 72.7161C89.8583 79.0924 99.2468 77.2562 107.742 83.4531ZM109.531 83.096C103.801 78.1055 96.0596 76.3102 89.8314 73.6142C83.3852 70.8249 77.9215 67.3604 76.0219 59.2866C76.6985 67.8694 82.5076 71.7674 88.8955 74.6162C95.4449 77.5352 103.242 79.0782 109.531 83.096ZM80.6538 77.6915C83.4426 79.2985 88.76 79.8519 93.4789 80.6336C97.6801 81.3309 105.078 82.2148 110.164 85.7885C105.731 83.3545 98.6707 82.6225 93.295 81.7307C90.5618 81.2776 83.1304 79.7986 80.6538 77.6915ZM81.9872 59.1782C80.1962 57.2781 81.849 54.1433 84.4835 54.583C85.3718 54.7313 86.0905 55.283 86.4809 56.0149C86.078 55.5877 85.5378 55.2839 84.9097 55.179C83.396 54.9259 81.9612 55.9368 81.7054 57.4353C81.6005 58.0563 81.7126 58.6621 81.9872 59.1782ZM83.867 45.7638C87.546 43.4995 93.7786 45.3241 95.5867 48.8942C92.9594 45.5169 87.9812 44.7787 83.867 45.7638ZM77.8435 52.1872C80.1989 46.5002 88.3293 44.7858 92.5421 47.5067C86.6846 45.7443 81.0118 47.7625 77.8435 52.1872ZM69.8835 91.6202C70.6426 92.9323 73.0806 93.3418 74.0631 91.9853C74.4759 96.0849 65.5253 94.4895 67.8161 88.2589C63.754 89.8569 65.5621 94.915 68.4981 95.7544C66.1229 95.8672 64.6145 93.077 64.6352 90.9886C62.6118 94.4157 67.0498 99.4311 71.4636 96.7662C66.3284 100.6 59.6659 93.0859 64.9017 88.512C66.7223 86.9211 69.4115 86.1411 72.955 86.0674C79.7727 85.9235 89.1746 86.7274 96.143 85.124C81.7665 84.6159 65.0094 76.8965 62.4 61.9151C58.9651 63.5709 58.8027 67.1801 59.4075 69.9579C58.2024 69.3654 57.0252 69.313 57.0252 69.313C56.8385 74.7716 60.7445 77.0288 64.8694 78.4084C62.8343 78.507 60.7732 78.9618 58.6789 79.8972C53.8469 82.0531 50.2093 86.5826 49.5991 92.0653C57.3437 91.5731 58.1127 89.2848 59.8974 86.858C61.1007 85.2217 62.793 83.7782 64.6666 83.0009C57.8292 82.4955 52.8321 89.077 52.8321 89.077C56.7497 82.5159 62.8182 80.2552 69.6969 82.7682C65.8187 82.4955 61.1115 85.84 60.5937 89.88C60.0518 94.0968 63.1887 98.6965 67.5756 99.1069C70.5215 99.3814 73.5571 97.6536 74.973 95.1619C76.1117 93.157 76.2005 90.1376 74.3207 88.528C73.1631 87.5375 71.6063 87.5411 70.6049 88.2198C69.5784 88.9162 69.1307 90.318 69.8835 91.6202ZM73.8146 84.5768C69.2554 84.4764 63.9748 86.4049 62.2986 91.2969C63.9084 85.5904 69.0705 83.3483 73.8146 84.5768ZM74.588 89.9768C74.3727 89.5487 74.0174 89.1845 73.549 88.9571C72.4157 88.409 71.0473 88.8727 70.4937 89.9955C70.264 90.4592 70.2092 90.9629 70.3052 91.4328C69.9975 90.8243 69.9714 90.0852 70.2963 89.4279C70.8508 88.305 72.2192 87.8413 73.3525 88.3903C74.0165 88.711 74.4535 89.3097 74.588 89.9768ZM61.8222 93.7397C59.753 90.2229 63.3619 84.3041 67.3253 83.8351C63.894 85.3203 60.6108 89.7548 61.8222 93.7397ZM80.6251 84.5395C74.2892 81.7227 63.9461 78.4723 57.2208 81.8914C64.6711 76.7757 75.1381 81.4126 80.6251 84.5395ZM70.9136 77.4286C65.5935 75.1403 60.6619 72.1156 61.0262 65.415C59.2065 71.9015 65.4338 76.4088 70.9136 77.4286ZM77.9879 81.736C74.5764 79.8234 72.0559 78.8658 69.9535 78.1978C64.1749 76.359 60.5426 75.5338 57.9988 70.5246C59.1042 75.8696 64.27 77.266 69.9993 78.8383C72.0065 79.3882 74.4687 80.1646 77.9879 81.736ZM93.8369 88.2393L93.8764 88.2358C90.1885 92.2021 92.7019 99.1948 98.5173 96.378C96.8501 98.4718 93.8791 98.0765 92.473 95.9658C90.9692 93.7131 91.6798 89.9964 93.8369 88.2393ZM68.5725 57.6308C66.2575 60.7345 67.1449 66.1355 70.2505 69.1229C67.9983 65.8521 67.337 61.3937 68.5725 57.6308Z" fill="#201600"/>
    <path fill-rule="evenodd" clip-rule="evenodd" d="M117.425 39.8958V24.3264L118.487 23.8307V23.0215H110.69V23.8307L112.252 24.3264V69.9838L110.69 70.4795V71.2887H118.487V70.4795L117.425 69.9838V48.46C118.524 50.2118 120.085 51.4554 122.135 52.2167V69.9847L121.074 70.4804V71.2896H128.882V70.4804L127.332 69.9847V52.6031C127.76 52.5063 128.187 52.3615 128.601 52.1447L128.101 51.1543C127.223 51.4323 126.295 51.5771 125.32 51.5771C123.221 51.5771 121.403 50.8887 119.853 49.4878C118.292 48.2193 117.474 46.5404 117.425 44.4626C117.474 42.0588 118.291 40.1872 119.853 38.8343C121.403 37.4698 123.221 36.7929 125.32 36.7929C126.344 36.7929 127.272 36.9617 128.101 37.3241L128.601 36.3577C128.235 36.1276 127.808 35.9828 127.332 35.9348V24.3264L128.882 23.8307V23.0215H121.074V23.8307L122.135 24.3264V36.212C120.086 36.9972 118.524 38.2293 117.425 39.8958ZM142.926 23.0223V24.8105C141.852 23.3244 140.229 22.6119 138.057 22.6608C136.983 22.6608 135.885 23.0712 134.763 23.8929C133.64 24.775 133.054 26.0915 133.006 27.8548C133.006 28.7244 133.274 29.4848 133.823 30.1253C134.299 30.8501 134.872 31.2126 135.556 31.2126C137.239 31.1397 138.131 30.2941 138.253 28.664C138.204 26.9727 137.423 26.0915 135.91 26.0426C134.983 26.0906 134.458 26.4894 134.312 27.2143L134.104 27.1423C134.251 26.1758 134.739 25.403 135.569 24.8114C136.362 24.2438 137.265 23.9542 138.302 23.9542C139.558 23.9542 140.656 24.353 141.596 25.1259C142.426 25.9351 142.877 26.8892 142.926 28.0004C142.877 30.7542 142.34 33.0611 141.315 34.8973C140.217 36.697 138.985 38.4488 137.63 40.1756C136.276 41.8306 135.055 43.8595 133.982 46.2632C132.86 48.7398 132.286 51.9884 132.237 55.9991V69.9865L130.712 70.5781V71.2905H138.471V70.65L137.41 69.9856V55.1774C137.508 49.3554 138.764 43.9687 141.18 39.0404L142.926 35.3201V69.9865L141.876 70.6509V71.2914H149.672V70.5763L148.123 69.9847V24.266L149.672 23.8307V23.0215H142.926V23.0223Z" fill="white"/>
    <path fill-rule="evenodd" clip-rule="evenodd" d="M116.266 38.6167V23.0473L117.327 22.5516V21.7424H109.531V22.5516L111.093 23.0473V68.7047L109.531 69.2004V70.0096H117.327V69.1995L116.266 68.7038V47.1801C117.364 48.9318 118.926 50.1754 120.976 50.9367V68.7047L119.914 69.2004V70.0096H127.723V69.1995L126.173 68.7038V51.3231C126.6 51.2263 127.027 51.0815 127.442 50.8648L126.942 49.8743C126.064 50.1523 125.136 50.2971 124.16 50.2971C122.062 50.2971 120.244 49.6087 118.694 48.2078C117.133 46.9393 116.315 45.2604 116.266 43.1835C116.314 40.7798 117.132 38.9072 118.694 37.5543C120.244 36.1899 122.062 35.513 124.16 35.513C125.185 35.513 126.113 35.6826 126.942 36.0442L127.442 35.0777C127.076 34.8485 126.649 34.7037 126.173 34.6549V23.0473L127.723 22.5516V21.7424H119.914V22.5516L120.976 23.0473V34.9329C118.926 35.7173 117.364 36.9494 116.266 38.6167ZM141.766 21.7424V23.5306C140.692 22.0444 139.07 21.332 136.898 21.38C135.824 21.38 134.727 21.7904 133.604 22.612C132.482 23.4941 131.896 24.8106 131.848 26.5739C131.848 27.4436 132.116 28.204 132.665 28.8444C133.141 29.5693 133.714 29.9317 134.398 29.9317C136.081 29.8589 136.972 29.0132 137.094 27.3832C137.046 25.6918 136.264 24.8106 134.751 24.7618C133.824 24.8097 133.299 25.2086 133.153 25.9334L132.946 25.8615C133.092 24.895 133.58 24.1222 134.41 23.5306C135.203 22.9629 136.106 22.6733 137.143 22.6733C138.4 22.6733 139.498 23.0722 140.437 23.845C141.267 24.6543 141.719 25.6083 141.767 26.7196C141.719 29.4734 141.181 31.7803 140.157 33.6164C139.058 35.4162 137.826 37.1679 136.471 38.8948C135.117 40.5497 133.897 42.5786 132.824 44.9824C131.701 47.459 131.128 50.7075 131.079 54.7183V68.7056L129.553 69.2972V70.0096H137.313V69.3692L136.251 68.7047V53.8966C136.349 48.0746 137.606 42.6879 140.022 37.7595L141.766 34.0393V68.7056L140.716 69.3701V70.0105H148.513V69.2981L146.963 68.7065V22.9869L148.513 22.5516V21.7424H141.766Z" fill="#201600"/>
</svg>