<svg width="364" height="97" viewBox="0 0 364 97" fill="none" xmlns="http://www.w3.org/2000/svg">
    <path fill-rule="evenodd" clip-rule="evenodd" d="M12.0846 40.2491V26.7128L12.9933 26.2824V25.579H6.32007V26.2824L7.65669 26.7128V66.408L6.32007 66.8386V67.5423H12.993V66.8386L12.0844 66.408V47.6945C13.0245 49.2173 14.3611 50.299 16.1156 50.9606V66.408L15.2069 66.8386V67.5423H21.8905V66.8386L20.5646 66.408V51.2966C20.9299 51.2125 21.2955 51.0866 21.6504 50.8974L21.2222 50.0362C20.4702 50.2776 19.6767 50.4038 18.841 50.4038C17.0447 50.4038 15.4888 49.8049 14.1626 48.5871C12.826 47.4844 12.1262 46.0249 12.0844 44.2183C12.1262 42.1288 12.826 40.5007 14.1626 39.3246C15.4888 38.1381 17.0447 37.55 18.841 37.55C19.7183 37.55 20.5121 37.6968 21.2222 38.0119L21.6504 37.1719C21.3371 36.9723 20.9717 36.8463 20.5646 36.8043V26.7128L21.8905 26.2824V25.579H15.2072V26.2824L16.1158 26.7128V37.0462C14.3614 37.729 13.0245 38.8 12.0846 40.2491ZM34.9761 51.1182C34.9761 49.5533 34.6836 47.5686 34.0885 45.1741L32.2819 37.9283C32.0314 36.9937 31.8955 36.2691 31.8955 35.7753C31.8643 35.2295 32.0418 34.9141 32.4489 34.8302V34.3471C30.966 34.5047 29.692 35.0717 28.6269 36.0379C27.499 37.046 26.6009 38.3482 25.9324 39.9444C24.5643 43.2735 23.8853 46.9067 23.8853 50.8451C23.8853 52.914 24.2195 55.2557 24.8985 57.86L26.6844 65.0953C26.8618 65.7781 26.9455 66.3242 26.9455 66.7336C26.9455 67.3636 26.7574 67.6998 26.392 67.7416V68.172C28.1465 67.7623 29.5665 66.9959 30.6526 65.8617C31.77 64.759 32.6472 63.415 33.2843 61.8292C34.4539 58.4272 35.0177 54.8567 34.9761 51.1182ZM29.2635 36.6052C29.0546 37.267 28.9606 38.0754 28.9606 39.0414C28.9606 39.766 29.0232 40.4383 29.1383 41.0787L31.7697 52.4414C32.0727 53.817 32.2397 55.7281 32.2816 58.1646C32.2816 59.5403 32.0727 60.9476 31.6447 62.386C31.2061 63.8667 30.496 65.0535 29.5143 65.9356C29.7648 65.2531 29.8903 64.5179 29.8903 63.7094C29.8903 62.9533 29.7021 61.7351 29.3261 60.0443L27.1957 50.9609C26.7675 48.8711 26.5586 46.7288 26.5586 44.5549C26.5588 41.1837 27.4675 38.5377 29.2635 36.6052ZM44.0511 34.778V36.0382C43.2887 35.0722 42.2029 34.5891 40.7929 34.5891C40.041 34.5891 39.3204 34.8726 38.6521 35.4187C37.8586 35.9543 37.4511 36.8576 37.4511 38.1282C37.4511 38.7057 37.6182 39.2097 37.9524 39.6406C38.2657 40.1234 38.6519 40.3756 39.1011 40.3756C40.2187 40.3335 40.8033 39.7665 40.8348 38.6848C40.8033 37.5087 40.2811 36.931 39.2786 36.931C38.6521 36.9731 38.2865 37.2145 38.2132 37.666L38.0254 37.603C38.3491 36.1853 39.289 35.4607 40.8345 35.4187C41.8055 35.4187 42.589 35.6917 43.2154 36.2271C43.7689 36.8155 44.0508 37.5293 44.0508 38.3801C44.0508 39.2936 43.7585 39.987 43.184 40.4385C42.5994 40.9109 41.7741 41.352 40.7405 41.7617C39.8944 42.0243 39.1635 42.4233 38.5263 42.9589C37.8165 43.5575 37.4509 44.534 37.4509 45.8783C37.4509 46.6661 37.6702 47.4327 38.0984 48.1886C38.5058 48.9869 39.2575 49.3859 40.3333 49.3859C41.3568 49.3859 42.14 49.1653 42.6622 48.7138C43.2157 48.325 43.6751 47.7685 44.0511 47.0546C43.1637 51.2972 41.0751 53.4395 37.7645 53.4813C37.514 53.4813 37.2737 53.3974 37.0229 53.2399L36.8454 53.8805L37.4511 54.3109V66.65L36.3442 67.0492V67.5428H41.5447V67.1125L40.8348 66.6502V53.5445C42.234 52.8516 43.2994 51.6332 44.0511 49.9108V66.65L43.3412 67.1122V67.5425H48.1241V67.049L47.4142 66.6497V53.5338C48.8135 52.8406 49.8786 51.6329 50.6305 49.9105V66.6497L49.9207 67.049V67.5425H55.0588V67.049L54.0142 66.6497V35.6499L55.0588 35.2506V34.778H49.9207V35.2718L50.6305 35.6708V47.0546C50.1085 49.6589 49.0432 51.4965 47.4142 52.5571V35.6708L48.1241 35.2718V34.778H44.0511ZM44.0511 41.0157V45.0482C43.9991 45.605 43.811 46.1508 43.4665 46.6865C43.0175 47.3164 42.5581 47.6315 42.088 47.6315C41.8375 47.6739 41.566 47.5581 41.2841 47.2642C40.9915 47.0016 40.8351 46.508 40.8351 45.7939V45.2374C40.8351 44.3132 41.0544 43.6202 41.4826 43.1476C41.8897 42.6961 42.4224 42.255 43.0803 41.8244C43.508 41.5725 43.8318 41.3099 44.0511 41.0157ZM60.8231 47.0541V35.6703L61.5332 35.2713V34.7774H56.3951V35.2713L57.4605 35.6703V66.6494L56.3951 67.0487V67.5423H61.5332V67.0487L60.8231 66.6494V49.4483L64.0397 43.9139V66.6494L63.3295 67.0487V67.5423H68.4572V67.0487L67.4233 66.6494V35.6705L68.4572 35.2715V34.7777H63.3295V35.2715L64.0397 35.6705V41.4463L60.8231 47.0541ZM76.8639 51.1603L76.6757 51.7798L77.3129 52.2101V61.4723C76.9265 60.9366 76.5505 60.4535 76.1849 60.0232C75.7985 59.6135 75.454 59.1306 75.1614 58.5741C74.8795 58.0384 74.6394 57.3139 74.4201 56.3897C74.2109 55.5078 74.0963 54.3315 74.0963 52.8511V38.1071C74.0963 37.393 74.2111 36.7525 74.4201 36.2064C74.5975 35.6708 75.0047 35.3978 75.673 35.3978C76.4666 35.3978 76.947 35.692 77.1141 36.259C77.2396 36.8996 77.3126 37.8447 77.3126 39.0945V40.2914L76.728 40.5752V41.0055H81.2289V40.5752L80.6965 40.3022V38.979C80.6965 37.6874 80.3413 36.6269 79.6314 35.7868C78.848 34.9889 77.574 34.5896 75.7988 34.5896C73.9503 34.5896 72.6344 35.0307 71.8513 35.9128C71.0574 36.7951 70.6921 38.013 70.7337 39.5779V52.7988C70.7337 54.731 71.2037 56.2959 72.1644 57.5036C73.0834 58.8163 74.2111 60.024 75.5584 61.1054C76.1849 61.6202 76.6027 62.0821 76.8114 62.4916C76.9681 62.9222 77.0515 63.4265 77.0515 63.9935C77.0096 65.9469 76.1745 66.9445 74.5346 66.9865C73.8141 66.9865 73.1562 66.7451 72.5401 66.2724C72.2686 66.031 72.0389 65.7475 71.8299 65.4428C71.6629 65.2014 71.548 64.9281 71.4643 64.6449H71.5795C71.6943 65.0964 72.0389 65.3378 72.603 65.3799C73.5639 65.3799 74.0648 64.7917 74.0963 63.6261C74.0648 62.5446 73.4802 61.9776 72.3733 61.9353C71.9243 61.9353 71.5376 62.1349 71.2243 62.5548C70.8901 63.0275 70.7334 63.5736 70.7334 64.1826C70.7334 65.3796 71.1824 66.262 72.0911 66.8394C72.8743 67.4798 73.7619 67.795 74.7435 67.795C76.9366 67.7529 78.4925 67.1229 79.3908 65.9152C80.2576 64.718 80.6963 63.2373 80.6963 61.4731V52.2109L81.2915 51.7173L81.0515 51.1608H76.8639V51.1603ZM90.1371 51.1603L89.9489 51.7798L90.5861 52.2101V61.4723C90.1997 60.9366 89.8237 60.4535 89.4581 60.0232C89.0717 59.6135 88.7272 59.1306 88.4346 58.5741C88.1527 58.0384 87.9126 57.3139 87.6933 56.3897C87.4841 55.5078 87.3695 54.3315 87.3695 52.8511V38.1071C87.3695 37.393 87.4844 36.7525 87.6933 36.2064C87.8707 35.6708 88.2782 35.3978 88.9465 35.3978C89.74 35.3978 90.2205 35.692 90.3876 36.259C90.5131 36.8996 90.5861 37.8447 90.5861 39.0945V40.2914L90.0014 40.5752V41.0055H94.5024V40.5752L93.97 40.3022V38.979C93.97 37.6874 93.6148 36.6269 92.9049 35.7868C92.1215 34.9889 90.8478 34.5896 89.0723 34.5896C87.2237 34.5896 85.9076 35.0307 85.1247 35.9128C84.3309 36.7951 83.9656 38.013 84.0072 39.5779V52.7988C84.0072 54.731 84.4772 56.2959 85.4379 57.5036C86.3569 58.8163 87.4846 60.024 88.8319 61.1054C89.4584 61.6202 89.8762 62.0821 90.0848 62.4916C90.2415 62.9222 90.3249 63.4265 90.3249 63.9935C90.2831 65.9469 89.448 66.9445 87.8081 66.9865C87.0876 66.9865 86.4297 66.7451 85.8136 66.2724C85.542 66.031 85.3121 65.7475 85.1034 65.4428C84.9364 65.2014 84.8215 64.9281 84.7378 64.6449H84.853C84.9678 65.0964 85.3123 65.3378 85.8765 65.3799C86.8371 65.3799 87.3383 64.7917 87.3698 63.6261C87.3383 62.5446 86.7537 61.9776 85.6468 61.9353C85.1978 61.9353 84.8111 62.1349 84.4977 62.5548C84.1638 63.0275 84.0069 63.5736 84.0069 64.1826C84.0069 65.3796 84.4559 66.262 85.3646 66.8394C86.1477 67.4798 87.0353 67.795 88.017 67.795C90.2101 67.7529 91.766 67.1229 92.6643 65.9152C93.5311 64.718 93.9697 63.2373 93.9697 61.4731V52.2109L94.565 51.7173L94.3249 51.1608H90.1371V51.1603ZM100.643 47.0541V35.6703L101.353 35.2713V34.7774H96.2148V35.2713L97.2798 35.6703V66.6494L96.2148 67.0487V67.5423H101.353V67.0487L100.643 66.6494V49.4483L103.859 43.9139V66.6494L103.149 67.0487V67.5423H108.277V67.0487L107.243 66.6494V35.6705L108.277 35.2715V34.7777H103.149V35.2715L103.859 35.6705V41.4463L100.643 47.0541ZM121.143 51.1182C121.143 49.5533 120.85 47.5686 120.255 45.1741L118.448 37.9283C118.198 36.9937 118.062 36.2691 118.062 35.7753C118.031 35.2295 118.208 34.9141 118.615 34.8302V34.3471C117.132 34.5047 115.858 35.0717 114.793 36.0379C113.665 37.046 112.767 38.3482 112.099 39.9444C110.731 43.2735 110.052 46.9067 110.052 50.8451C110.052 52.914 110.386 55.2557 111.065 57.86L112.851 65.0953C113.028 65.7781 113.112 66.3242 113.112 66.7336C113.112 67.3636 112.924 67.6998 112.558 67.7416V68.172C114.313 67.7623 115.733 66.9959 116.819 65.8617C117.936 64.759 118.814 63.415 119.451 61.8292C120.621 58.4272 121.184 54.8567 121.143 51.1182ZM115.43 36.6052C115.221 37.267 115.127 38.0754 115.127 39.0414C115.127 39.766 115.19 40.4383 115.305 41.0787L117.936 52.4414C118.239 53.817 118.407 55.7281 118.448 58.1646C118.448 59.5403 118.239 60.9476 117.811 62.386C117.373 63.8667 116.662 65.0535 115.681 65.9356C115.931 65.2531 116.057 64.5179 116.057 63.7094C116.057 62.9533 115.869 61.7351 115.493 60.0443L113.362 50.9609C112.934 48.8711 112.725 46.7288 112.725 44.5549C112.725 41.1837 113.634 38.5377 115.43 36.6052ZM127.189 35.6705L127.899 35.2715V34.7777H122.761V35.2715L123.826 35.6705V66.6497L122.761 67.049V67.5425H127.899V67.049L127.189 66.6497V43.9142L130.406 49.4486V66.6497L129.696 67.049V67.5425H134.823V67.049L133.789 66.6497V35.6705L134.823 35.2715V34.7777H129.696V35.2715L130.406 35.6705V47.0544L127.189 41.4466V35.6705ZM140.462 35.6705L141.172 35.2715V34.7777H136.034V35.2715L137.099 35.6705V66.6497L136.034 67.049V67.5425H141.172V67.049L140.462 66.6497V43.9142L143.679 49.4486V66.6497L142.969 67.049V67.5425H148.096V67.049L147.063 66.6497V35.6705L148.096 35.2715V34.7777H142.969V35.2715L143.679 35.6705V47.0544L140.462 41.4466V35.6705ZM156.952 34.778V36.0382C156.19 35.0722 155.114 34.5891 153.704 34.5891C152.952 34.5891 152.232 34.8726 151.564 35.4187C150.77 35.9543 150.373 36.8576 150.373 38.1282C150.373 38.7057 150.53 39.2097 150.864 39.6406C151.177 40.1234 151.564 40.3756 152.013 40.3756C153.12 40.3335 153.705 39.7665 153.736 38.6848C153.705 37.5087 153.182 36.931 152.18 36.931C151.553 36.9731 151.188 37.2145 151.115 37.666L150.926 37.603C151.25 36.1853 152.19 35.4607 153.736 35.4187C154.707 35.4187 155.49 35.6917 156.117 36.2271C156.67 36.8155 156.952 37.5293 156.952 38.3801C156.952 39.2936 156.66 39.987 156.096 40.4385C155.501 40.9109 154.686 41.352 153.642 41.7617C152.806 42.0243 152.075 42.4233 151.438 42.9589C150.728 43.5575 150.373 44.534 150.373 45.8783C150.373 46.6661 150.582 47.4327 151.01 48.1886C151.417 48.9869 152.159 49.3859 153.245 49.3859C154.268 49.3859 155.041 49.1653 155.574 48.7138C156.117 48.325 156.576 47.7685 156.952 47.0546C156.075 51.2972 153.976 53.4395 150.676 53.4813C150.425 53.4813 150.185 53.3974 149.945 53.2399L149.757 53.88L150.373 54.3103V66.6494L149.255 67.0487V67.5423H154.446V67.1119L153.736 66.6497V53.544C155.135 52.8511 156.2 51.6327 156.952 49.9102V66.6494L156.242 67.1117V67.542H161.37V67.0484L160.336 66.6492V35.6076L161.37 35.2715V34.7777H156.952V34.778ZM156.952 40.9632V44.9852C156.9 45.5206 156.712 46.0667 156.367 46.6232C155.918 47.2532 155.459 47.5788 154.989 47.5788C154.738 47.6208 154.467 47.4946 154.185 47.2007C153.893 46.9381 153.736 46.4445 153.736 45.7304V45.1739C153.736 44.2497 153.955 43.5567 154.383 43.0841C154.791 42.6326 155.323 42.1918 155.981 41.7609C156.409 41.5093 156.733 41.2467 156.952 40.9632ZM170.226 52.0946V66.6494L169.515 67.0487V67.5423H174.643V67.0487L173.609 66.6494V38.9892C173.64 36.1328 171.959 34.6729 168.534 34.5891C167.04 34.5891 165.871 34.9251 165.004 35.6078C164.095 36.3217 163.646 37.3721 163.646 38.7477V40.2494C163.646 41.0897 163.792 41.7719 164.106 42.2762C164.304 42.7698 164.586 43.1687 164.962 43.4839C165.349 43.7253 165.766 43.9142 166.215 44.0404C166.643 44.198 167.04 44.4185 167.406 44.6811C168.158 45.0485 168.836 45.6157 169.421 46.3719C169.954 47.1281 170.226 48.0522 170.226 49.1442C170.184 50.6562 169.661 51.8851 168.659 52.8093C167.625 53.7227 166.393 54.1847 164.962 54.1847C164.346 54.1847 163.73 54.0904 163.093 53.8803L162.79 54.5628C163.072 54.7203 163.354 54.8042 163.646 54.8042V66.6497L162.581 67.049V67.5425H167.719V67.049L167.009 66.6497V54.6153C168.408 54.0794 169.474 53.2393 170.226 52.0946ZM170.226 46.2979C170.006 45.7835 169.724 45.3633 169.39 45.0377C169.025 44.7017 168.67 44.3866 168.325 44.0822C167.5 43.5048 167.062 42.6856 167.009 41.6146V37.4664C167.009 36.9728 167.103 36.5741 167.27 36.2694C167.395 35.9752 167.552 35.7756 167.719 35.6499C168.085 35.4819 168.419 35.3978 168.711 35.3978C169.077 35.3978 169.432 35.4819 169.776 35.6499C170.069 35.8913 170.225 36.5004 170.225 37.4664V46.2979H170.226ZM302.237 25.5788V27.1329C301.318 25.8411 299.93 25.2216 298.07 25.2634C297.151 25.2634 296.211 25.6206 295.251 26.3344C294.29 27.1013 293.789 28.2457 293.747 29.779C293.747 30.5352 293.977 31.197 294.447 31.7536C294.854 32.3835 295.345 32.6986 295.93 32.6986C297.371 32.6357 298.133 31.9007 298.237 30.4829C298.196 29.0126 297.527 28.246 296.233 28.2042C295.439 28.2463 294.99 28.5927 294.864 29.2227L294.687 29.1597C294.812 28.3197 295.23 27.6477 295.94 27.1332C296.619 26.6393 297.392 26.3875 298.279 26.3875C299.355 26.3875 300.295 26.7339 301.099 27.4062C301.809 28.1099 302.196 28.9392 302.237 29.9055C302.196 32.2999 301.736 34.3056 300.859 35.9018C299.919 37.4664 298.864 38.9892 297.705 40.4908C296.546 41.9297 295.501 43.6937 294.582 45.7837C293.621 47.9365 293.13 50.7613 293.089 54.2476V66.4083L291.783 66.923V67.5425H298.425V66.986L297.516 66.4083V53.5338C297.6 48.4721 298.676 43.7885 300.743 39.5039L302.237 36.2694V66.4083L301.339 66.986V67.5425H308.012V66.923L306.686 66.4083V26.6603L308.012 26.2822V25.5788H302.237ZM317.098 34.778V36.0382C316.336 35.0722 315.26 34.5891 313.85 34.5891C313.098 34.5891 312.378 34.8726 311.709 35.4187C310.916 35.9543 310.519 36.8576 310.519 38.1282C310.519 38.7057 310.676 39.2097 311.01 39.6406C311.323 40.1234 311.71 40.3756 312.159 40.3756C313.266 40.3335 313.851 39.7665 313.882 38.6848C313.851 37.5087 313.328 36.931 312.326 36.931C311.699 36.9731 311.334 37.2145 311.26 37.666L311.072 37.603C311.396 36.1853 312.336 35.4607 313.881 35.4187C314.853 35.4187 315.636 35.6917 316.263 36.2271C316.816 36.8155 317.098 37.5293 317.098 38.3801C317.098 39.2936 316.805 39.987 316.242 40.4385C315.647 40.9109 314.832 41.352 313.787 41.7617C312.952 42.0243 312.221 42.4233 311.584 42.9589C310.874 43.5575 310.519 44.534 310.519 45.8783C310.519 46.6661 310.727 47.4327 311.156 48.1886C311.563 48.9869 312.304 49.3859 313.39 49.3859C314.414 49.3859 315.186 49.1653 315.719 48.7138C316.262 48.325 316.722 47.7685 317.098 47.0546C316.221 51.2972 314.122 53.4395 310.822 53.4813C310.571 53.4813 310.331 53.3974 310.091 53.2399L309.902 53.8805L310.519 54.3109V66.65L309.401 67.0492V67.5428H314.592V67.1125L313.881 66.6502V53.5445C315.281 52.8516 316.346 51.6332 317.098 49.9108V66.65L316.388 67.1122V67.5425H321.516V67.049L320.482 66.6497V35.6076L321.516 35.2715V34.7777H317.098V34.778ZM317.098 40.9632V44.9852C317.046 45.5206 316.858 46.0667 316.513 46.6232C316.064 47.2532 315.605 47.5788 315.135 47.5788C314.884 47.6208 314.613 47.4946 314.331 47.2007C314.038 46.9381 313.882 46.4445 313.882 45.7304V45.1739C313.882 44.2497 314.101 43.5567 314.529 43.0841C314.936 42.6326 315.469 42.1918 316.127 41.7609C316.555 41.5093 316.879 41.2467 317.098 40.9632ZM334.789 67.5423V67.0592L333.755 66.6706V54.8146C334.026 54.8146 334.319 54.7305 334.611 54.5732L334.277 53.8905C333.671 54.1005 333.044 54.1951 332.418 54.1951C330.987 54.1951 329.776 53.7329 328.784 52.809C327.698 51.8953 327.155 50.6664 327.155 49.1546C327.155 48.0624 327.478 47.1382 328.105 46.3821C328.638 45.6259 329.264 45.0589 329.985 44.6913C330.455 44.4182 330.893 44.2081 331.301 44.0401C331.729 43.9139 332.126 43.7355 332.491 43.4836C332.857 43.1789 333.18 42.7799 333.442 42.2864C333.651 41.7716 333.755 41.0999 333.755 40.2491V38.7475C333.671 36.017 332.043 34.6309 328.857 34.5888C325.442 34.6727 323.75 36.1429 323.792 38.9889V66.6703L322.727 67.0589V67.542H334.789V67.5423ZM327.155 52.0946C327.907 53.2498 328.982 54.0901 330.371 54.6255V66.7339H327.155V52.0946ZM327.155 46.3084V37.4661C327.155 36.4999 327.353 35.8911 327.74 35.6496C328.053 35.4816 328.366 35.3975 328.669 35.3975C329.056 35.3975 329.421 35.4816 329.787 35.6496C330.131 35.8911 330.319 36.5001 330.371 37.4661V41.6248C330.371 42.1813 330.257 42.6435 330.048 43.0109C329.828 43.3997 329.547 43.7566 329.181 44.0927C328.836 44.3973 328.492 44.7122 328.157 45.0479C327.75 45.374 327.416 45.7939 327.155 46.3084ZM340.428 46.2559V35.6705L341.138 35.2715V34.7777H336V35.2715L337.065 35.6705V66.6497L336 67.049V67.5425H341.138V67.049L340.428 66.6497V52.0424C341.18 53.2291 342.255 54.0904 343.644 54.6257V66.65L342.934 67.1122V67.5425H348.062V67.049L347.028 66.6497V54.8042C347.3 54.8042 347.592 54.7203 347.885 54.5628L347.55 53.8803C346.944 54.0904 346.318 54.1954 345.691 54.1954C344.261 54.1954 343.049 53.7332 342.057 52.8093C340.971 51.8851 340.428 50.6667 340.428 49.1442C340.428 47.6634 340.971 46.4453 342.057 45.4895C343.049 44.5653 344.261 44.1034 345.691 44.1034C346.401 44.1454 347.017 44.2609 347.55 44.471L347.885 43.8515C347.634 43.7253 347.341 43.6307 347.028 43.5468V35.7338L348.062 35.3664V34.7782H342.934V35.2721L343.644 35.734V43.7256C342.255 44.2186 341.18 45.0589 340.428 46.2559ZM356.918 34.778V36.0382C356.155 35.0722 355.08 34.5891 353.67 34.5891C352.918 34.5891 352.197 34.8726 351.529 35.4187C350.735 35.9543 350.338 36.8576 350.338 38.1282C350.338 38.7057 350.495 39.2097 350.829 39.6406C351.142 40.1234 351.529 40.3756 351.978 40.3756C353.085 40.3335 353.67 39.7665 353.701 38.6848C353.67 37.5087 353.148 36.931 352.145 36.931C351.518 36.9731 351.153 37.2145 351.08 37.666L350.892 37.603C351.216 36.1853 352.156 35.4607 353.701 35.4187C354.672 35.4187 355.456 35.6917 356.082 36.2271C356.636 36.8155 356.918 37.5293 356.918 38.3801C356.918 39.2936 356.625 39.987 356.061 40.4385C355.466 40.9109 354.651 41.352 353.607 41.7617C352.772 42.0243 352.041 42.4233 351.404 42.9589C350.693 43.5575 350.338 44.534 350.338 45.8783C350.338 46.6661 350.547 47.4327 350.976 48.1886C351.383 48.9869 352.124 49.3859 353.211 49.3859C354.234 49.3859 355.007 49.1653 355.539 48.7138C356.083 48.325 356.542 47.7685 356.918 47.0546C356.041 51.2972 353.942 53.4395 350.642 53.4813C350.391 53.4813 350.151 53.3974 349.911 53.2399L349.723 53.8805L350.339 54.3109V66.65L349.221 67.0492V67.5428H354.411V67.1125L353.701 66.6502V53.5445C355.101 52.8516 356.166 51.6332 356.918 49.9108V66.65L356.208 67.1122V67.5425H361.335V67.049L360.301 66.6497V35.6076L361.335 35.2715V34.7777H356.918V34.778ZM356.918 40.9632V44.9852C356.865 45.5206 356.678 46.0667 356.333 46.6232C355.884 47.2532 355.424 47.5788 354.955 47.5788C354.704 47.6208 354.432 47.4946 354.15 47.2007C353.858 46.9381 353.701 46.4445 353.701 45.7304V45.1739C353.701 44.2497 353.921 43.5567 354.349 43.0841C354.756 42.6326 355.289 42.1918 355.947 41.7609C356.375 41.5093 356.698 41.2467 356.918 40.9632Z" fill="#231F20"/>
    <path fill-rule="evenodd" clip-rule="evenodd" d="M115.319 85.3367C115.119 85.3597 114.906 85.3801 114.68 85.3954C114.452 85.4106 114.219 85.4181 113.98 85.4181C113.491 85.4181 113.03 85.3364 112.599 85.1711C112.168 85.0079 111.793 84.7582 111.471 84.4219C111.15 84.088 110.896 83.6676 110.711 83.163C110.524 82.6587 110.432 82.0647 110.432 81.3843C110.432 80.7372 110.524 80.1536 110.711 79.6338C110.896 79.1164 111.157 78.6756 111.497 78.3138C111.836 77.9545 112.242 77.6769 112.711 77.4832C113.182 77.2894 113.701 77.1924 114.269 77.1924C114.429 77.1924 114.604 77.1975 114.794 77.2104C114.984 77.2232 115.159 77.2436 115.318 77.2742V76.0306H117.432V77.3122C117.632 77.2715 117.847 77.2436 118.083 77.2232C118.318 77.2026 118.554 77.1924 118.792 77.1924C119.286 77.1924 119.75 77.2792 120.183 77.4526C120.617 77.6284 120.992 77.8856 121.308 78.2246C121.625 78.566 121.874 78.9891 122.058 79.4936C122.241 79.9979 122.332 80.5815 122.332 81.2415C122.332 81.9141 122.231 82.5079 122.025 83.0277C121.818 83.5473 121.544 83.983 121.199 84.3372C120.857 84.689 120.457 84.9591 120.001 85.1427C119.547 85.326 119.066 85.4179 118.561 85.4179C118.473 85.4179 118.376 85.4155 118.275 85.4104C118.174 85.4053 118.07 85.4002 117.966 85.3927C117.862 85.3852 117.763 85.3723 117.669 85.3595C117.576 85.3442 117.497 85.3289 117.431 85.3136V86.733H115.318V85.3367H115.319ZM118.258 78.8897C118.113 78.8897 117.962 78.8948 117.805 78.9049C117.645 78.9154 117.495 78.9358 117.351 78.9636V83.6906C117.44 83.711 117.554 83.7212 117.693 83.7212C117.833 83.7212 117.964 83.7212 118.093 83.7212C118.377 83.7212 118.643 83.6729 118.897 83.5786C119.148 83.4843 119.368 83.3391 119.556 83.1378C119.743 82.9366 119.893 82.6818 120.002 82.3707C120.111 82.0598 120.167 81.6877 120.167 81.2571C120.167 80.5081 119.994 79.9269 119.652 79.5143C119.485 79.3079 119.282 79.1498 119.044 79.0453C118.805 78.9408 118.544 78.8897 118.258 78.8897ZM114.561 83.7212C114.604 83.7212 114.662 83.7212 114.731 83.7188C114.799 83.7161 114.876 83.7113 114.954 83.7059C115.032 83.7008 115.113 83.693 115.194 83.6831C115.276 83.6756 115.349 83.6625 115.415 83.6472V78.9358C115.301 78.9205 115.174 78.9076 115.04 78.8998C114.903 78.8923 114.766 78.8897 114.627 78.8897C114.351 78.8897 114.09 78.9382 113.844 79.0352C113.598 79.1319 113.382 79.2798 113.195 79.481C113.005 79.682 112.858 79.9395 112.749 80.253C112.64 80.5639 112.584 80.936 112.584 81.3691C112.584 82.1284 112.767 82.7118 113.126 83.1172C113.312 83.3208 113.524 83.4739 113.765 83.5733C114.008 83.6729 114.272 83.7212 114.561 83.7212ZM124.469 76.3216H131.84V78.2018H126.6V80.4036H131.433V82.2839H126.6V84.5618H131.909V86.4423H124.469V76.3216ZM143.363 88.2314H141.857L141.619 86.4425H135.087L134.856 88.2314H133.348V84.5618H134.367C134.415 84.4932 134.486 84.3659 134.578 84.1847C134.668 84.0036 134.77 83.759 134.879 83.4511C134.988 83.1402 135.097 82.7656 135.206 82.3222C135.315 81.8787 135.411 81.364 135.495 80.7779C135.578 80.1895 135.642 79.5269 135.685 78.7878C135.726 78.0491 135.736 77.2259 135.711 76.3213H141.99V84.5618H143.363V88.2314H143.363ZM139.853 84.562V78.2018H137.661C137.648 78.6758 137.618 79.1906 137.578 79.7461C137.535 80.3042 137.471 80.8672 137.385 81.4382C137.296 82.0089 137.182 82.562 137.038 83.1022C136.896 83.6421 136.716 84.129 136.503 84.562H139.853ZM145.071 76.3216H152.442V78.2018H147.202V80.4036H152.034V82.2839H147.202V84.5618H152.511V86.4423H145.071V76.3216ZM155.022 76.4312C155.455 76.3494 155.926 76.2881 156.436 76.2476C156.943 76.2045 157.457 76.1838 157.984 76.1838C158.265 76.1838 158.554 76.197 158.848 76.2248C159.142 76.2527 159.431 76.2958 159.712 76.3599C159.993 76.4213 160.262 76.5051 160.516 76.612C160.766 76.719 160.995 76.854 161.197 77.0124C161.539 77.2825 161.813 77.6263 162.021 78.0494C162.228 78.4725 162.332 78.9767 162.332 79.5654C162.332 80.1925 162.216 80.7303 161.985 81.1759C161.752 81.6244 161.44 81.9915 161.053 82.2742C160.665 82.5572 160.219 82.7662 159.717 82.8961C159.213 83.0285 158.696 83.0947 158.161 83.0947C158.111 83.0947 158.04 83.0923 157.949 83.0896C157.857 83.0872 157.763 83.0845 157.665 83.0794C157.563 83.0743 157.467 83.0692 157.373 83.0615C157.28 83.054 157.206 83.0438 157.15 83.036V86.4425H155.022V76.4312H155.022ZM158.116 78.0644C157.908 78.0644 157.723 78.0694 157.563 78.0823C157.404 78.0949 157.264 78.1129 157.15 78.1308V81.14C157.191 81.1501 157.249 81.1603 157.325 81.1678C157.404 81.1783 157.482 81.1885 157.566 81.196C157.652 81.2035 157.733 81.2088 157.812 81.2112C157.89 81.2136 157.954 81.2136 157.997 81.2136C158.281 81.2136 158.547 81.1909 158.795 81.1421C159.046 81.0963 159.264 81.0097 159.454 80.89C159.641 80.7678 159.791 80.6019 159.902 80.3958C160.014 80.1892 160.07 79.9267 160.07 79.6083C160.07 79.3152 160.019 79.0681 159.918 78.8693C159.816 78.6705 159.677 78.5126 159.502 78.3929C159.325 78.2731 159.119 78.189 158.881 78.138C158.643 78.0898 158.39 78.0644 158.116 78.0644ZM168.513 84.2868L169.42 86.4425H171.675L167.258 76.2449H165.692L161.291 86.4425H163.422L164.334 84.2868H168.513ZM165.054 82.5899L165.946 80.4926L166.405 79.1729H166.466L166.917 80.48L167.801 82.5899H165.054ZM179.695 78.2018H177.052C177.002 79.1217 176.946 79.95 176.885 80.6863C176.822 81.4229 176.741 82.0829 176.639 82.6662C176.538 83.2498 176.409 83.7694 176.254 84.2255C176.097 84.6815 175.905 85.0869 175.672 85.446C175.512 85.6652 175.337 85.8463 175.147 85.9889C174.957 86.1341 174.764 86.2461 174.569 86.3303C174.374 86.412 174.179 86.4677 173.989 86.5012C173.799 86.5342 173.622 86.5494 173.459 86.5494C173.262 86.5494 173.077 86.5315 172.909 86.4932C172.74 86.4575 172.577 86.4018 172.42 86.3252L172.648 84.539C172.752 84.5749 172.876 84.5926 173.021 84.5926C173.183 84.5926 173.348 84.5543 173.51 84.4779C173.675 84.3988 173.817 84.274 173.941 84.1006C174.096 83.8916 174.235 83.5861 174.362 83.1885C174.486 82.7911 174.597 82.2788 174.691 81.652C174.785 81.025 174.861 80.271 174.921 79.3942C174.98 78.5151 175.02 77.4907 175.041 76.3213H181.819V86.4425H179.696V78.2018H179.695ZM184.862 76.3216H186.993V79.9194C187.041 79.9092 187.123 79.8991 187.237 79.8862C187.351 79.8736 187.477 79.8607 187.617 79.8481C187.754 79.8353 187.898 79.8254 188.042 79.8176C188.189 79.8098 188.321 79.8071 188.441 79.8071C188.664 79.8071 188.904 79.82 189.165 79.8455C189.424 79.8682 189.685 79.909 189.943 79.9677C190.204 80.0237 190.457 80.1 190.706 80.1919C190.952 80.2838 191.175 80.3958 191.372 80.5309C191.565 80.6609 191.742 80.8136 191.904 80.9896C192.064 81.1651 192.203 81.364 192.32 81.5858C192.436 81.8074 192.525 82.047 192.591 82.3069C192.654 82.5644 192.687 82.842 192.687 83.1402C192.687 83.7236 192.588 84.2231 192.391 84.6435C192.191 85.0642 191.892 85.4232 191.491 85.7215C191.096 86.0194 190.622 86.2386 190.075 86.3761C189.525 86.5114 188.889 86.58 188.167 86.58C188.027 86.58 187.822 86.5773 187.553 86.5698C187.282 86.5623 186.991 86.5495 186.677 86.5318C186.362 86.5141 186.043 86.4908 185.719 86.4605C185.395 86.4299 185.111 86.3919 184.862 86.3407V76.3216ZM188.202 84.6998C188.491 84.6998 188.767 84.6767 189.039 84.6333C189.307 84.5875 189.545 84.5084 189.751 84.3937C189.956 84.2791 190.121 84.1236 190.245 83.9275C190.369 83.7314 190.43 83.4816 190.43 83.1783C190.43 82.8648 190.367 82.6126 190.237 82.4189C190.108 82.2255 189.938 82.0749 189.728 81.9679C189.518 81.8613 189.279 81.7873 189.013 81.7466C188.745 81.7083 188.476 81.6879 188.202 81.6879C188.129 81.6879 188.03 81.6903 187.906 81.6981C187.782 81.7059 187.66 81.7158 187.539 81.7287C187.417 81.7415 187.305 81.7544 187.201 81.7697C187.098 81.7849 187.026 81.7975 186.994 81.8077V84.6336C187.052 84.6437 187.128 84.6512 187.219 84.659C187.31 84.6665 187.412 84.6743 187.523 84.6818C187.634 84.6896 187.751 84.6949 187.868 84.6973C187.987 84.6998 188.098 84.6998 188.202 84.6998ZM201.493 82.2686H197.038V86.4425H194.917V76.3216H197.038V80.3883H201.493V76.3216H203.624V86.4425H201.493V82.2686ZM212.701 84.2868H208.523L207.611 86.4425H205.479L209.881 76.2449H211.447L215.864 86.4425H213.608L212.701 84.2868ZM209.242 82.5899H211.989L211.105 80.48L210.654 79.1729H210.593L210.134 80.4926L209.242 82.5899ZM225.508 86.4425H223.384V82.4905L221.945 82.7579L219.124 86.4425H216.578L219.226 83.1376L219.917 82.3833C219.705 82.3299 219.471 82.2356 219.216 82.1006C218.962 81.9653 218.724 81.7871 218.504 81.5604C218.283 81.3337 218.098 81.0582 217.951 80.7324C217.802 80.4063 217.728 80.0212 217.728 79.5778C217.728 79.2466 217.769 78.9384 217.85 78.6528C217.931 78.3701 218.045 78.1126 218.187 77.8781C218.331 77.6437 218.504 77.4347 218.706 77.2541C218.912 77.0732 219.134 76.9151 219.383 76.7801C219.58 76.6705 219.798 76.5788 220.037 76.5049C220.275 76.4312 220.526 76.3698 220.789 76.3216C221.055 76.2755 221.327 76.2398 221.605 76.2171C221.887 76.1943 222.168 76.1836 222.449 76.1836C222.621 76.1836 222.834 76.1863 223.088 76.1911C223.341 76.1964 223.607 76.2093 223.889 76.2294C224.172 76.2473 224.454 76.2752 224.735 76.3058C225.019 76.339 225.275 76.3797 225.508 76.4309V86.4425H225.508ZM222.1 78.0644C221.823 78.0644 221.557 78.0823 221.302 78.1206C221.048 78.1587 220.825 78.2326 220.637 78.3473C220.45 78.462 220.293 78.6123 220.171 78.7983C220.047 78.9843 219.984 79.2286 219.984 79.532C219.984 79.8227 220.044 80.0697 220.163 80.2761C220.283 80.4824 220.442 80.6429 220.645 80.7627C220.853 80.8875 221.091 80.9744 221.357 81.0199C221.626 81.0684 221.907 81.0912 222.204 81.0912H223.384V78.1147C223.326 78.1072 223.242 78.097 223.138 78.0893C223.034 78.0818 222.923 78.0764 222.799 78.074C222.675 78.0713 222.55 78.0689 222.427 78.0665C222.302 78.0644 222.193 78.0644 222.1 78.0644ZM241.105 85.6703C240.801 85.8463 240.491 85.994 240.172 86.1162C239.853 86.2359 239.539 86.3378 239.23 86.4171C238.921 86.4959 238.621 86.5545 238.338 86.5902C238.054 86.6234 237.793 86.6414 237.554 86.6414C237.227 86.6414 236.886 86.6285 236.531 86.6004C236.173 86.5725 235.821 86.5189 235.469 86.4348C235.117 86.353 234.777 86.2386 234.448 86.0883C234.118 85.9407 233.817 85.7418 233.538 85.4996C233.287 85.2804 233.057 85.0307 232.849 84.7528C232.641 84.4725 232.461 84.1644 232.314 83.8227C232.165 83.4814 232.051 83.1068 231.967 82.6989C231.886 82.2911 231.845 81.8452 231.845 81.3637C231.845 80.6019 231.972 79.9009 232.228 79.2643C232.484 78.6271 232.869 78.0539 233.384 77.5416C233.629 77.2969 233.905 77.0855 234.207 76.9073C234.509 76.7262 234.831 76.5812 235.173 76.4663C235.512 76.3516 235.872 76.265 236.244 76.209C236.617 76.1504 237 76.1222 237.392 76.1222C238.021 76.1222 238.626 76.1884 239.209 76.321C239.795 76.4534 240.375 76.66 240.955 76.9451L240.339 78.7696C239.868 78.5175 239.397 78.3262 238.925 78.1962C238.452 78.0662 237.967 78.0025 237.473 78.0025C237.022 78.0025 236.587 78.0587 236.166 78.1734C235.745 78.2881 235.375 78.5022 235.053 78.8157C234.767 79.0984 234.537 79.4601 234.362 79.8961C234.189 80.3345 234.103 80.8235 234.103 81.3664C234.103 81.9347 234.192 82.4495 234.374 82.9106C234.554 83.3744 234.807 83.7413 235.134 84.014C235.322 84.1746 235.512 84.3018 235.702 84.3988C235.892 84.4958 236.092 84.5695 236.3 84.6231C236.508 84.674 236.728 84.7099 236.964 84.7303C237.199 84.7507 237.453 84.7608 237.724 84.7608C237.962 84.7608 238.203 84.7405 238.446 84.6973C238.687 84.6563 238.93 84.5979 239.168 84.5216C239.409 84.4476 239.642 84.3586 239.868 84.2565C240.093 84.1545 240.304 84.0451 240.501 83.9254L241.105 85.6703ZM243.482 76.3216H250.853V78.2018H245.613V80.4036H250.445V82.2839H245.613V84.5618H250.921V86.4423H243.482V76.3216ZM261.686 78.2018H258.196V86.4425H256.065V78.2018H252.584V76.3216H261.686V78.2018H261.686ZM263.764 76.3216H265.895V79.9194C265.943 79.9092 266.024 79.8991 266.138 79.8862C266.252 79.8736 266.379 79.8607 266.518 79.8481C266.655 79.8353 266.8 79.8254 266.944 79.8176C267.091 79.8098 267.223 79.8071 267.342 79.8071C267.565 79.8071 267.806 79.82 268.067 79.8455C268.325 79.8682 268.586 79.909 268.845 79.9677C269.105 80.0237 269.359 80.1 269.607 80.1919C269.853 80.2838 270.076 80.3958 270.274 80.5309C270.466 80.6609 270.644 80.8136 270.806 80.9896C270.965 81.1651 271.105 81.364 271.221 81.5858C271.338 81.8074 271.427 82.047 271.493 82.3069C271.556 82.5644 271.589 82.842 271.589 83.1402C271.589 83.7236 271.49 84.2231 271.293 84.6435C271.093 85.0642 270.793 85.4232 270.393 85.7215C269.998 86.0194 269.524 86.2386 268.976 86.3761C268.426 86.5114 267.791 86.58 267.068 86.58C266.929 86.58 266.724 86.5773 266.455 86.5698C266.184 86.5623 265.893 86.5495 265.578 86.5318C265.264 86.5141 264.945 86.4908 264.62 86.4605C264.296 86.4299 264.012 86.3919 263.764 86.3407V76.3216H263.764ZM267.103 84.6998C267.393 84.6998 267.669 84.6767 267.94 84.6333C268.208 84.5875 268.447 84.5084 268.652 84.3937C268.857 84.2791 269.022 84.1236 269.146 83.9275C269.27 83.7314 269.331 83.4816 269.331 83.1783C269.331 82.8648 269.268 82.6126 269.139 82.4189C269.009 82.2255 268.84 82.0749 268.629 81.9679C268.419 81.8613 268.181 81.7873 267.915 81.7466C267.646 81.7083 267.378 81.6879 267.104 81.6879C267.03 81.6879 266.932 81.6903 266.807 81.6981C266.683 81.7059 266.562 81.7158 266.44 81.7287C266.318 81.7415 266.207 81.7544 266.103 81.7697C265.999 81.7849 265.928 81.7975 265.895 81.8077V84.6336C265.953 84.6437 266.029 84.6512 266.12 84.659C266.212 84.6665 266.313 84.6743 266.424 84.6818C266.536 84.6896 266.652 84.6949 266.769 84.6973C266.888 84.6998 267 84.6998 267.103 84.6998Z" fill="#231F20"/>
    <path fill-rule="evenodd" clip-rule="evenodd" d="M47.4224 81.3881H100.585V82.9286H47.4224V81.3881ZM278.123 81.3881H331.284V82.9286H278.123V81.3881Z" fill="#231F20"/>
    <path fill-rule="evenodd" clip-rule="evenodd" d="M213.552 17.587V37.4278C213.552 39.8356 213.76 42.1701 214.359 44.3598C214.954 46.5345 215.937 48.5796 217.487 50.4295C218.334 51.44 219.302 52.3462 220.335 53.1766C221.371 54.0092 222.482 54.7704 223.608 55.4869C225.656 56.7911 227.794 57.9832 229.924 59.1711L231.006 59.7756L232.085 59.1735C234.217 57.9846 236.356 56.7914 238.405 55.4867C239.531 54.7707 240.642 54.0089 241.678 53.1764C242.711 52.346 243.679 51.4395 244.525 50.4293C246.076 48.5793 247.058 46.5343 247.653 44.3595C248.253 42.1698 248.461 39.8354 248.461 37.4275V17.587C245.348 17.9758 242.426 17.8914 239.59 17.2965C236.665 16.6837 233.841 15.5294 231.007 13.7938C228.172 15.5294 225.348 16.6835 222.423 17.2965C219.588 17.8914 216.664 17.9758 213.552 17.587Z" fill="#F48120"/>
    <path fill-rule="evenodd" clip-rule="evenodd" d="M233.822 12.0789C239.115 14.9755 244.538 15.6639 251.345 14.139V37.4278C251.404 52.8955 242.746 56.4146 231.006 63.099V61.0141L232.607 60.1188C234.756 58.9203 236.912 57.7182 238.979 56.4026C240.124 55.6734 241.265 54.8905 242.348 54.0202C243.433 53.1474 244.452 52.193 245.347 51.1249C247.006 49.1455 248.056 46.9622 248.69 44.6433C249.32 42.3397 249.54 39.9139 249.54 37.4278V16.3437L248.924 16.4319C245.703 16.8949 242.704 16.8442 239.809 16.2371C237.542 15.7622 235.333 14.9439 233.124 13.7625C230.407 12.3086 229.598 8.5352 232.712 6.69916C233.306 6.34868 233.964 6.17343 234.625 6.15977C236.545 6.11609 238.053 7.79725 237.965 9.46768C237.883 11.0232 236.334 12.2389 234.78 11.7362C233.59 11.3528 232.951 9.97948 234.337 9.31709C234.726 9.1322 234.636 8.55154 234.184 8.33396C232.722 7.63165 231.194 10.6411 233.822 12.0789ZM232.032 7.8495C234.279 5.83393 238.344 7.53438 236.726 10.748C237.919 9.88569 237.693 8.18498 236.492 7.30608C235.182 6.34627 233.005 6.63512 232.032 7.8495Z" fill="#231F20"/>
    <path fill-rule="evenodd" clip-rule="evenodd" d="M228.19 12.0789C222.897 14.9755 217.474 15.6639 210.668 14.139V37.4278C210.608 52.8955 219.267 56.4146 231.006 63.099L231.397 61.9297L231.006 61.0141L229.405 60.1188C227.257 58.9203 225.101 57.7182 223.034 56.4026C221.888 55.6734 220.748 54.8905 219.664 54.0202C218.579 53.1474 217.561 52.193 216.665 51.1249C215.007 49.1455 213.957 46.9622 213.322 44.6433C212.692 42.3397 212.473 39.9139 212.473 37.4278V16.3437L213.088 16.4319C216.31 16.8949 219.309 16.8442 222.204 16.2371C224.471 15.7622 226.68 14.9439 228.888 13.7625C231.606 12.3086 232.415 8.5352 229.301 6.69916C228.706 6.34868 228.049 6.17343 227.388 6.15977C225.468 6.11609 223.96 7.79725 224.048 9.46768C224.13 11.0232 225.679 12.2389 227.233 11.7362C228.423 11.3528 229.062 9.97948 227.675 9.31709C227.286 9.1322 227.377 8.55154 227.829 8.33396C229.29 7.63165 230.819 10.6411 228.19 12.0789ZM229.98 7.8495C227.734 5.83393 223.669 7.53438 225.286 10.748C224.094 9.88569 224.32 8.18498 225.521 7.30608C226.831 6.34627 229.007 6.63512 229.98 7.8495Z" fill="#231F20"/>
    <path fill-rule="evenodd" clip-rule="evenodd" d="M264.077 52.1112C268.589 50.7238 270.854 46.9633 270.319 42.8552C269.875 39.4468 266.578 39.904 267.305 42.4638C268.444 46.4732 266.579 49.9566 264.077 52.1112ZM257.397 14.7477C254.734 18.1103 256.275 21.8266 259.189 25.1519C262.476 28.9038 267.189 32.9551 265.624 39.629C264.117 32.8015 257.754 31.9122 254.69 28.1734C251.17 23.8767 252.464 17.2909 257.397 14.7477ZM254.178 19.9445C251.774 26.861 260.345 30.23 264.221 34.6486C260.478 28.8776 252.989 27.1629 254.178 19.9445ZM262.561 31.2597C261.553 28.9545 256.009 25.1222 255.173 23.2256C255.64 26.0892 260.114 28.7085 262.561 31.2597ZM245.255 55.4186C248.316 53.5869 251.899 52.484 254.84 51.0737C259.594 48.7953 264.033 44.2583 262.647 40.0508C262.161 38.5771 261.094 37.0928 259.612 36.3696C257.07 35.1285 253.65 35.5577 252.328 38.0001C251.122 40.2287 251.688 43.4801 254.694 44.4233C250.755 42.7438 252.021 37.2852 255.325 36.9747C253.896 37.9841 252.728 40.371 253.951 41.9222C253.105 39.5253 255.669 35.8243 258.714 37.7887C253.377 39.2914 256.61 46.1264 259.196 43.8394C257.8 43.8389 256.902 41.9903 257.428 40.8335C257.901 39.793 259.123 39.3346 260.158 39.8102C262.031 40.6714 261.639 43.2087 260.373 44.4458C258.15 46.6195 253.084 46.1401 251.229 42.941C247.866 37.1395 253.83 31.1793 259.682 33.309C265.7 35.499 268.181 46.0316 262.528 52.6764C264.297 52.6032 265.689 53.1418 265.689 53.1418C260.596 59.7343 248.997 57.2372 242.236 60.7102C245.945 59.48 252.192 58.6987 255.276 60.9613C254.639 61.214 254.257 61.2847 253.937 61.2871C254.107 61.4728 254.265 61.677 254.411 61.9007C254.84 62.5596 255.081 63.2871 255.148 64.0192C255.34 66.1457 253.612 67.8142 251.777 67.7175C250.067 67.6267 248.62 65.9115 249.052 64.1912C249.383 62.8734 250.838 62.1665 251.668 63.7011C251.972 64.2665 252.799 64.2148 253.008 63.6403C253.207 63.0921 252.823 62.046 251.774 61.4996C249.047 60.077 241.898 60.5735 237.753 65.3059C238.484 60.9511 241.593 57.6083 245.255 55.4186ZM244.558 58.2C250.863 55.3112 258.221 55.4226 260.966 51.433C255.654 55.4516 249.829 54.2945 244.558 58.2ZM243.448 57.9749C247.003 54.8299 251.806 53.6981 255.671 51.999C259.67 50.2409 263.061 48.0576 264.239 42.9691C263.819 48.3786 260.215 50.835 256.251 52.6303C252.187 54.4703 247.35 55.4425 243.448 57.9749ZM261.365 54.5687C259.634 55.5815 256.335 55.9301 253.407 56.4232C250.801 56.8626 246.21 57.4197 243.054 59.6719C245.806 58.1381 250.186 57.6764 253.521 57.1145C255.217 56.8289 259.828 55.8964 261.365 54.5687ZM260.537 42.9011C261.648 41.7036 260.623 39.7282 258.989 40.0053C258.438 40.0988 257.991 40.4463 257.749 40.9075C257.998 40.6384 258.334 40.4466 258.723 40.3809C259.663 40.221 260.554 40.8584 260.712 41.803C260.777 42.1942 260.708 42.576 260.537 42.9011ZM259.371 34.4468C257.088 33.0196 253.22 34.1697 252.099 36.4197C253.73 34.2914 256.819 33.8259 259.371 34.4468ZM263.108 38.4951C261.647 34.9111 256.603 33.8302 253.989 35.5454C257.623 34.4347 261.143 35.7067 263.108 38.4951ZM268.048 63.3469C267.576 64.1741 266.064 64.4321 265.454 63.5771C265.198 66.1604 270.751 65.1553 269.33 61.2287C271.85 62.2354 270.728 65.4235 268.907 65.9528C270.381 66.0243 271.317 64.2657 271.305 62.949C272.56 65.1087 269.805 68.2698 267.067 66.59C270.253 69.0064 274.387 64.2708 271.139 61.3879C270.008 60.3852 268.34 59.894 266.142 59.8474C261.912 59.7568 256.078 60.2635 251.754 59.2528C260.675 58.9323 271.072 54.0673 272.691 44.6254C274.822 45.6688 274.924 47.9434 274.546 49.6945C275.296 49.321 276.025 49.288 276.025 49.288C276.141 52.7281 273.719 54.1506 271.159 55.0204C272.421 55.0826 273.7 55.3693 275 55.9588C277.998 57.3176 280.255 60.1724 280.634 63.6277C275.827 63.3174 275.351 61.8755 274.244 60.3461C273.498 59.3147 272.447 58.4052 271.284 57.9149C275.527 57.5966 278.627 61.7442 278.627 61.7442C276.197 57.6091 272.43 56.1842 268.163 57.7678C270.569 57.596 273.49 59.7035 273.811 62.2499C274.148 64.9072 272.202 67.8059 269.48 68.0651C267.652 68.2382 265.768 67.1492 264.89 65.5787C264.183 64.3153 264.129 62.4125 265.295 61.3983C266.013 60.774 266.979 60.7761 267.601 61.2038C268.237 61.643 268.514 62.5261 268.048 63.3469ZM265.609 58.9077C268.437 58.8447 271.713 60.0601 272.753 63.1435C271.755 59.5473 268.553 58.1335 265.609 58.9077ZM265.129 62.3112C265.262 62.0409 265.482 61.8118 265.773 61.6684C266.476 61.323 267.325 61.6151 267.669 62.3225C267.812 62.6148 267.846 62.9321 267.786 63.2287C267.977 62.845 267.993 62.3796 267.792 61.9645C267.447 61.2568 266.599 60.9648 265.895 61.311C265.483 61.5135 265.212 61.8908 265.129 62.3112ZM273.05 64.6826C274.332 62.4664 272.094 58.7359 269.634 58.4406C271.763 59.3769 273.8 62.1711 273.05 64.6826ZM261.383 58.8846C265.314 57.1094 271.732 55.0609 275.904 57.2161C271.281 53.9915 264.787 56.9135 261.383 58.8846ZM267.407 54.4031C270.709 52.9609 273.769 51.055 273.543 46.832C274.671 50.9196 270.809 53.7605 267.407 54.4031ZM263.019 57.1177C265.136 55.9125 266.699 55.309 268.004 54.8878C271.589 53.7289 273.844 53.2088 275.422 50.0517C274.735 53.4199 271.531 54.3002 267.975 55.2908C266.73 55.6378 265.202 56.1276 263.019 57.1177ZM253.185 61.2164L253.161 61.214C255.45 63.7135 253.89 68.1208 250.282 66.3459C251.316 67.6653 253.159 67.4161 254.032 66.0859C254.964 64.6658 254.523 62.3238 253.185 61.2164ZM268.86 41.9262C270.297 43.8823 269.745 47.2859 267.82 49.1691C269.217 47.1069 269.627 44.2971 268.86 41.9262Z" fill="#231F20"/>
    <path fill-rule="evenodd" clip-rule="evenodd" d="M197.936 52.1112C193.423 50.7238 191.158 46.9633 191.693 42.8552C192.137 39.4468 195.434 39.904 194.706 42.4638C193.568 46.4732 195.433 49.9566 197.936 52.1112ZM204.615 14.7477C207.278 18.1103 205.737 21.8266 202.823 25.1519C199.535 28.9038 194.824 32.9551 196.388 39.629C197.895 32.8015 204.259 31.9122 207.322 28.1734C210.842 23.8767 209.549 17.2909 204.615 14.7477ZM207.834 19.9445C210.239 26.861 201.668 30.23 197.791 34.6486C201.534 28.8776 209.023 27.1629 207.834 19.9445ZM199.451 31.2597C200.46 28.9545 206.004 25.1222 206.839 23.2256C206.373 26.0892 201.899 28.7085 199.451 31.2597ZM216.758 55.4186C213.697 53.5869 210.114 52.484 207.172 51.0737C202.419 48.7953 197.979 44.2583 199.365 40.0508C199.851 38.5771 200.918 37.0928 202.4 36.3696C204.943 35.1285 208.363 35.5577 209.685 38.0001C210.89 40.2287 210.325 43.4801 207.319 44.4233C211.258 42.7438 209.991 37.2852 206.687 36.9747C208.116 37.9841 209.284 40.371 208.062 41.9222C208.908 39.5253 206.343 35.8243 203.298 37.7887C208.636 39.2914 205.402 46.1264 202.817 43.8394C204.213 43.8389 205.111 41.9903 204.585 40.8335C204.112 39.793 202.889 39.3346 201.855 39.8102C199.981 40.6714 200.374 43.2087 201.64 44.4458C203.863 46.6195 208.929 46.1401 210.783 42.941C214.147 37.1395 208.181 31.1793 202.329 33.309C196.312 35.499 193.831 46.0316 199.484 52.6764C197.715 52.6032 196.323 53.1418 196.323 53.1418C201.417 59.7343 213.015 57.2372 219.777 60.7102C216.067 59.48 209.82 58.6987 206.736 60.9613C207.374 61.214 207.756 61.2847 208.075 61.2871C207.905 61.4728 207.747 61.677 207.601 61.9007C207.173 62.5596 206.931 63.2871 206.865 64.0192C206.673 66.1457 208.401 67.8142 210.236 67.7175C211.945 67.6267 213.393 65.9115 212.96 64.1912C212.629 62.8734 211.175 62.1665 210.345 63.7011C210.04 64.2665 209.213 64.2148 209.004 63.6403C208.805 63.0921 209.19 62.046 210.239 61.4996C212.965 60.077 220.115 60.5735 224.26 65.3059C223.529 60.9511 220.42 57.6083 216.758 55.4186ZM217.455 58.2C211.149 55.3112 203.79 55.4226 201.046 51.433C206.359 55.4516 212.184 54.2945 217.455 58.2ZM218.565 57.9749C215.009 54.8299 210.206 53.6981 206.342 51.999C202.342 50.2409 198.952 48.0576 197.774 42.9691C198.193 48.3786 201.798 50.835 205.761 52.6303C209.826 54.4703 214.663 55.4425 218.565 57.9749ZM200.648 54.5687C202.378 55.5815 205.677 55.9301 208.605 56.4232C211.212 56.8626 215.803 57.4197 218.958 59.6719C216.207 58.1381 211.827 57.6764 208.492 57.1145C206.795 56.8289 202.184 55.8964 200.648 54.5687ZM201.475 42.9011C200.364 41.7036 201.389 39.7282 203.024 40.0053C203.575 40.0988 204.021 40.4463 204.263 40.9075C204.014 40.6384 203.678 40.4466 203.288 40.3809C202.349 40.221 201.459 40.8584 201.3 41.803C201.235 42.1942 201.304 42.576 201.475 42.9011ZM202.642 34.4468C204.924 33.0196 208.792 34.1697 209.913 36.4197C208.283 34.2914 205.194 33.8259 202.642 34.4468ZM198.904 38.4951C200.366 34.9111 205.41 33.8302 208.024 35.5454C204.39 34.4347 200.87 35.7067 198.904 38.4951ZM193.965 63.3469C194.436 64.1741 195.949 64.4321 196.558 63.5771C196.815 66.1604 191.261 65.1553 192.682 61.2287C190.162 62.2354 191.284 65.4235 193.106 65.9528C191.632 66.0243 190.696 64.2657 190.708 62.949C189.453 65.1087 192.206 68.2698 194.946 66.59C191.759 69.0064 187.625 64.2708 190.874 61.3879C192.004 60.3852 193.672 59.894 195.871 59.8474C200.101 59.7568 205.934 60.2635 210.258 59.2528C201.338 58.9323 190.94 54.0673 189.322 44.6254C187.19 45.6688 187.089 47.9434 187.465 49.6945C186.717 49.321 185.987 49.288 185.987 49.288C185.871 52.7281 188.294 54.1506 190.854 55.0204C189.591 55.0826 188.312 55.3693 187.013 55.9588C184.015 57.3176 181.758 60.1724 181.379 63.6277C186.184 63.3174 186.661 61.8755 187.769 60.3461C188.515 59.3147 189.565 58.4052 190.728 57.9149C186.486 57.5966 183.385 61.7442 183.385 61.7442C185.816 57.6091 189.581 56.1842 193.849 57.7678C191.443 57.596 188.523 59.7035 188.201 62.2499C187.865 64.9072 189.811 67.8059 192.533 68.0651C194.361 68.2382 196.244 67.1492 197.123 65.5787C197.829 64.3153 197.884 62.4125 196.718 61.3983C195.999 60.774 195.033 60.7761 194.412 61.2038C193.776 61.643 193.498 62.5261 193.965 63.3469ZM196.404 58.9077C193.575 58.8447 190.299 60.0601 189.259 63.1435C190.258 59.5473 193.46 58.1335 196.404 58.9077ZM196.884 62.3112C196.75 62.0409 196.53 61.8118 196.239 61.6684C195.536 61.323 194.687 61.6151 194.344 62.3225C194.201 62.6148 194.167 62.9321 194.226 63.2287C194.036 62.845 194.019 62.3796 194.221 61.9645C194.565 61.2568 195.414 60.9648 196.117 61.311C196.529 61.5135 196.801 61.8908 196.884 62.3112ZM188.963 64.6826C187.68 62.4664 189.919 58.7359 192.378 58.4406C190.249 59.3769 188.212 62.1711 188.963 64.6826ZM200.63 58.8846C196.699 57.1094 190.281 55.0609 186.109 57.2161C190.731 53.9915 197.225 56.9135 200.63 58.8846ZM194.604 54.4031C191.304 52.9609 188.244 51.055 188.47 46.832C187.34 50.9196 191.205 53.7605 194.604 54.4031ZM198.994 57.1177C196.877 55.9125 195.314 55.309 194.009 54.8878C190.423 53.7289 188.169 53.2088 186.591 50.0517C187.277 53.4199 190.482 54.3002 194.037 55.2908C195.283 55.6378 196.81 56.1276 198.994 57.1177ZM208.827 61.2164L208.852 61.214C206.563 63.7135 208.123 68.1208 211.731 66.3459C210.697 67.6653 208.853 67.4161 207.981 66.0859C207.048 64.6658 207.489 62.3238 208.827 61.2164ZM193.152 41.9262C191.715 43.8823 192.266 47.2859 194.193 49.1691C192.795 47.1069 192.385 44.2971 193.152 41.9262Z" fill="#231F20"/>
    <path fill-rule="evenodd" clip-rule="evenodd" d="M223.37 30.4559V20.7106L224.024 20.4008V19.8941H219.22V20.4008L220.182 20.7106V49.2886L219.22 49.5986V50.1051H224.024V49.5986L223.37 49.2886V35.8161C224.047 36.9123 225.009 37.6907 226.272 38.1674V49.2886L225.618 49.5986V50.1051H230.43V49.5986L229.475 49.2886V38.4091C229.738 38.3488 230.001 38.2579 230.257 38.1221L229.949 37.502C229.408 37.6762 228.836 37.7668 228.235 37.7668C226.942 37.7668 225.821 37.3359 224.867 36.4589C223.904 35.6649 223.4 34.614 223.37 33.3136C223.4 31.8093 223.904 30.6373 224.867 29.7905C225.821 28.9363 226.942 28.5126 228.235 28.5126C228.866 28.5126 229.438 28.6188 229.949 28.8454L230.257 28.2407C230.031 28.097 229.768 28.0062 229.475 27.9759V20.7106L230.43 20.4008V19.8941H225.618V20.4008L226.272 20.7106V28.1501C225.009 28.6415 224.047 29.4124 223.37 30.4559ZM239.084 19.8941V21.0134C238.422 20.0833 237.422 19.6371 236.084 19.6674C235.422 19.6674 234.745 19.9244 234.054 20.4386C233.362 20.9906 233.001 21.8146 232.971 22.9185C232.971 23.4628 233.136 23.9392 233.475 24.34C233.768 24.7937 234.121 25.0204 234.542 25.0204C235.58 24.9748 236.129 24.4459 236.204 23.4252C236.174 22.3665 235.693 21.8146 234.76 21.7843C234.189 21.8146 233.866 22.0643 233.775 22.5177L233.648 22.4724C233.738 21.8676 234.039 21.3834 234.55 21.0134C235.039 20.6578 235.595 20.4764 236.234 20.4764C237.008 20.4764 237.685 20.7261 238.264 21.2098C238.775 21.7162 239.053 22.3135 239.083 23.0091C239.053 24.7329 238.722 26.1769 238.091 27.3259C237.414 28.4526 236.655 29.5486 235.82 30.63C234.986 31.6654 234.234 32.9358 233.572 34.4404C232.881 35.9902 232.527 38.024 232.497 40.5339V49.2889L231.557 49.6592V50.1051H236.339V49.7047L235.685 49.2889V40.02C235.745 36.3761 236.519 33.0039 238.008 29.9194L239.083 27.5906V49.2889L238.437 49.7047V50.1051H243.241V49.6592L242.286 49.2889V20.6728L243.241 20.4008V19.8941H239.084Z" fill="white"/>
    <path fill-rule="evenodd" clip-rule="evenodd" d="M222.147 29.5526V19.8076L222.801 19.4978V18.9911H217.997V19.4978L218.959 19.8076V48.3856L217.997 48.6954V49.2018H222.801V48.6954L222.147 48.3856V34.913C222.824 36.0093 223.786 36.7879 225.05 37.2644V48.3856L224.395 48.6954V49.2018H229.207V48.6954L228.252 48.3856V37.506C228.515 37.4458 228.778 37.3549 229.034 37.2191L228.726 36.599C228.185 36.7732 227.613 36.8635 227.012 36.8635C225.719 36.8635 224.599 36.4326 223.644 35.5556C222.681 34.7616 222.178 33.7107 222.148 32.4103C222.178 30.906 222.681 29.734 223.644 28.8872C224.599 28.033 225.719 27.6094 227.012 27.6094C227.643 27.6094 228.215 27.7155 228.726 27.9422L229.034 27.3374C228.809 27.1938 228.546 27.1029 228.252 27.0727V19.8076L229.207 19.4978V18.9911H224.395V19.4978L225.05 19.8076V27.2471C223.786 27.7383 222.824 28.5094 222.147 29.5526ZM237.861 18.9911V20.1104C237.2 19.1803 236.199 18.7341 234.861 18.7644C234.2 18.7644 233.523 19.0214 232.831 19.5356C232.14 20.0876 231.779 20.9115 231.749 22.0155C231.749 22.5597 231.914 23.0359 232.252 23.437C232.546 23.8907 232.899 24.1174 233.32 24.1174C234.357 24.0718 234.906 23.5426 234.982 22.5222C234.952 21.4635 234.47 20.9115 233.538 20.8813C232.967 20.9115 232.643 21.1613 232.553 21.6147L232.425 21.5694C232.515 20.9646 232.816 20.4804 233.327 20.1104C233.816 19.7548 234.372 19.5734 235.012 19.5734C235.786 19.5734 236.462 19.8231 237.041 20.3068C237.553 20.8132 237.831 21.4105 237.861 22.1061C237.831 23.8299 237.5 25.2739 236.869 26.4229C236.192 27.5496 235.433 28.6456 234.598 29.727C233.763 30.7627 233.012 32.0328 232.35 33.5374C231.658 35.0872 231.305 37.121 231.275 39.6309V48.3859L230.335 48.7562V49.2021H235.117V48.8015L234.463 48.3856V39.1167C234.523 35.4728 235.297 32.1006 236.786 29.0161L237.861 26.6873V48.3856L237.214 48.8015V49.2021H242.018V48.7562L241.063 48.3859V19.7698L242.018 19.4978V18.9911H237.861Z" fill="#231F20"/>
</svg>