<svg width="32" height="32" viewBox="0 0 32 32" fill="none" xmlns="http://www.w3.org/2000/svg">
    <g clip-path="url(#clip0)">
        <path d="M30.5402 9.68195L29.6241 9.0994C30.8931 8.18727 31.7219 6.6995 31.7219 5.02096C31.7219 2.2524 29.4695 -1.52588e-05 26.7009 -1.52588e-05C24.2463 -1.52588e-05 22.1989 1.77089 21.7657 4.10186L16.6433 0.843998C16.1209 0.51191 15.4454 0.51191 14.923 0.844061L1.02615 9.68195C0.409411 10.0741 0.142798 10.7809 0.347015 11.4826C0.550415 12.1817 1.15081 12.634 1.87783 12.6374V13.9962C1.87783 14.4747 2.2671 14.864 2.74559 14.864H3.3086V25.88C2.78537 25.9537 2.38114 26.4026 2.38114 26.945V27.8832C1.65539 27.9801 1.09363 28.6027 1.09363 29.3545V30.5151C1.09363 31.3339 1.75976 31.9999 2.57845 31.9999H24.4529C24.7133 31.9999 24.9242 31.7889 24.9242 31.5287C24.9242 31.2684 24.7133 31.0574 24.4529 31.0574H2.57845C2.27941 31.0574 2.03617 30.8141 2.03617 30.5151V29.3545C2.03617 29.0556 2.27941 28.8123 2.57845 28.8123H29.4434C29.7424 28.8123 29.9856 29.0556 29.9856 29.3545V30.5151C29.9856 30.8141 29.7424 31.0574 29.4434 31.0574H26.5894C26.329 31.0574 26.1181 31.2684 26.1181 31.5287C26.1181 31.7889 26.329 31.9999 26.5894 31.9999H29.4434C30.2621 31.9999 30.9282 31.3339 30.9282 30.5151V29.3545C30.9282 28.5358 30.2621 27.8697 29.4434 27.8697H29.2834V26.945C29.2834 26.3891 28.8594 25.9303 28.3173 25.8741V14.864H28.8207C29.2992 14.864 29.6885 14.4747 29.6885 13.9962V12.6374C30.4155 12.634 31.0159 12.1817 31.2192 11.4826C31.4235 10.7809 31.1569 10.0741 30.5402 9.68195ZM26.7009 0.942525C28.9497 0.942525 30.7793 2.77212 30.7793 5.02096C30.7793 7.26986 28.9497 9.0994 26.7009 9.0994C24.452 9.0994 22.6225 7.2698 22.6225 5.02096C22.6225 2.77212 24.452 0.942525 26.7009 0.942525ZM7.26734 14.864V25.8682H4.25121V14.864H7.26734ZM8.21691 27.8698H3.32375V26.945C3.32375 26.871 3.3847 26.8108 3.4596 26.8108H8.08043C8.15565 26.8108 8.21691 26.871 8.21691 26.945V27.8698ZM19.1692 27.8698H12.4955V21.4829C12.4955 20.7644 12.9199 20.1574 13.4221 20.1574H18.2426C18.7449 20.1574 19.1692 20.7645 19.1692 21.4829V27.8698ZM28.341 27.8698H23.4479V26.945C23.4479 26.871 23.5088 26.8108 23.5837 26.8108H28.2052C28.28 26.8108 28.341 26.871 28.341 26.945V27.8698ZM27.3749 25.8683H24.3587V14.864H27.3749V25.8683ZM30.3143 11.2194C30.2474 11.4494 30.0456 11.6952 29.6803 11.6952H11.98C11.7197 11.6952 11.5088 11.9062 11.5088 12.1665C11.5088 12.4268 11.7197 12.6378 11.98 12.6378H28.7459V13.9215H21.3112C21.0509 13.9215 20.8399 14.1325 20.8399 14.3928C20.8399 14.653 21.0509 14.864 21.3112 14.864H23.4162V25.8826C22.9011 25.9634 22.5053 26.4084 22.5053 26.9451V27.8698H20.1118V21.4829C20.1118 20.2323 19.2732 19.2149 18.2426 19.2149H13.4221C12.3915 19.2149 11.553 20.2323 11.553 21.4829V27.8698H9.15945V26.9451C9.15945 26.3951 8.74392 25.941 8.20988 25.8768V14.864H19.1748C19.4351 14.864 19.646 14.653 19.646 14.3927C19.646 14.1324 19.4351 13.9214 19.1748 13.9214H2.82043V12.6377H9.84361C10.1039 12.6377 10.3149 12.4267 10.3149 12.1664C10.3149 11.9062 10.1039 11.6952 9.84361 11.6952H1.88606C1.52073 11.6952 1.31903 11.4493 1.25204 11.2193C1.18512 10.9892 1.22345 10.6734 1.53191 10.4773L15.4287 1.6395C15.6441 1.50258 15.9224 1.50265 16.1375 1.63944L21.6836 5.16668C21.7612 7.86794 23.9812 10.0419 26.7008 10.0419C27.41 10.0419 28.0848 9.89333 28.6971 9.62697L30.0343 10.4774C30.3429 10.6734 30.3812 10.9893 30.3143 11.2194Z" fill="#DB7D43"/>
        <path d="M16.0109 4.06163C14.1515 4.06163 12.6387 5.57441 12.6387 7.43385C12.6387 9.29329 14.1515 10.8061 16.0109 10.8061C17.8704 10.8061 19.3832 9.29329 19.3832 7.43385C19.3832 5.57441 17.8704 4.06163 16.0109 4.06163ZM16.0109 9.8636C14.6712 9.8636 13.5812 8.77364 13.5812 7.43391C13.5812 6.09419 14.6712 5.00423 16.0109 5.00423C17.3506 5.00423 18.4406 6.09419 18.4406 7.43391C18.4406 8.77364 17.3506 9.8636 16.0109 9.8636Z" fill="#DB7D43"/>
        <path d="M26.7008 8.11237C28.4054 8.11237 29.7922 6.72558 29.7922 5.0209C29.7922 3.31628 28.4054 1.92949 26.7008 1.92949C24.9962 1.92949 23.6094 3.31628 23.6094 5.0209C23.6094 6.72558 24.9962 8.11237 26.7008 8.11237ZM26.7008 2.87209C27.8857 2.87209 28.8496 3.83606 28.8496 5.02096C28.8496 6.20586 27.8857 7.16989 26.7008 7.16989C25.5159 7.16989 24.5519 6.20592 24.5519 5.02096C24.5519 3.83606 25.5159 2.87209 26.7008 2.87209Z" fill="#DB7D43"/>
    </g>
    <defs>
        <clipPath id="clip0">
            <rect width="32" height="32" fill="white"/>
        </clipPath>
    </defs>
</svg>