<svg width="32" height="32" viewBox="0 0 32 32" fill="none" xmlns="http://www.w3.org/2000/svg">
    <path d="M21.7006 19.7788C21.6759 19.6654 21.6073 19.5665 21.5099 19.5037C21.4124 19.4409 21.294 19.4192 21.1806 19.4435L20.3821 19.6158C20.3253 19.6272 20.2714 19.6499 20.2234 19.6824C20.1754 19.7148 20.1344 19.7565 20.1027 19.805C20.071 19.8535 20.0492 19.9078 20.0386 19.9648C20.028 20.0217 20.0289 20.0802 20.0411 20.1369C20.0533 20.1935 20.0767 20.2471 20.1098 20.2947C20.1429 20.3422 20.1851 20.3827 20.234 20.4138C20.2829 20.4449 20.3375 20.4659 20.3946 20.4758C20.4517 20.4856 20.5101 20.484 20.5666 20.471L21.3654 20.2988C21.4788 20.2743 21.5778 20.2057 21.6407 20.1082C21.7035 20.0107 21.7251 19.8922 21.7006 19.7788Z" fill="#DB7D43"/>
    <path d="M18.8595 19.944L16.6458 20.4215C16.589 20.433 16.5351 20.4556 16.4871 20.4881C16.4391 20.5206 16.3981 20.5623 16.3663 20.6108C16.3346 20.6592 16.3128 20.7135 16.3023 20.7705C16.2917 20.8275 16.2925 20.886 16.3048 20.9426C16.317 20.9992 16.3403 21.0529 16.3734 21.1004C16.4066 21.1479 16.4488 21.1884 16.4977 21.2195C16.5466 21.2506 16.6011 21.2717 16.6582 21.2815C16.7153 21.2913 16.7738 21.2897 16.8303 21.2767L19.044 20.7992C19.1562 20.7735 19.2536 20.7047 19.3153 20.6076C19.3771 20.5105 19.3981 20.393 19.3738 20.2806C19.3496 20.1681 19.282 20.0698 19.1857 20.0068C19.0895 19.9438 18.9723 19.9212 18.8595 19.944Z" fill="#DB7D43"/>
    <path d="M11.9358 22.9418C11.4028 23.0566 10.9158 23.3269 10.5365 23.7184C10.1571 24.11 9.90239 24.6053 9.80453 25.1417C9.70667 25.678 9.77007 26.2314 9.98671 26.7317C10.2033 27.232 10.5635 27.6569 11.0216 27.9525C11.4797 28.2481 12.0152 28.4013 12.5603 28.3926C13.1055 28.3839 13.6358 28.2137 14.0842 27.9035C14.5326 27.5934 14.879 27.1573 15.0796 26.6503C15.2801 26.1433 15.3258 25.5882 15.2108 25.0552C15.056 24.3411 14.6243 23.7175 14.0103 23.3213C13.3964 22.9251 12.6503 22.7886 11.9358 22.9418ZM12.9136 27.475C12.5498 27.5535 12.1709 27.5224 11.8249 27.3856C11.4788 27.2487 11.1811 27.0124 10.9694 26.7063C10.7576 26.4003 10.6414 26.0384 10.6354 25.6663C10.6293 25.2942 10.7338 24.9287 10.9355 24.616C11.1372 24.3033 11.4271 24.0574 11.7686 23.9094C12.11 23.7615 12.4877 23.7181 12.8538 23.7848C13.2199 23.8515 13.558 24.0252 13.8254 24.2841C14.0927 24.5429 14.2773 24.8752 14.3558 25.239C14.4604 25.7267 14.3673 26.236 14.0969 26.6551C13.8265 27.0743 13.401 27.3691 12.9136 27.475Z" fill="#DB7D43"/>
    <path d="M30.8504 21.6823L30.4771 19.9513C30.465 19.8951 30.442 19.8418 30.4093 19.7946C30.3766 19.7473 30.3349 19.7069 30.2867 19.6758C30.2384 19.6446 30.1844 19.6233 30.1279 19.613C30.0713 19.6027 30.0133 19.6036 29.9571 19.6158L28.3089 19.9713L25.3611 6.3C25.3366 6.18668 25.2681 6.08773 25.1706 6.02488C25.0732 5.96202 24.9548 5.9404 24.8414 5.96475L16.0754 7.85475L11.1699 8.91275L9.5679 1.4845C9.54677 1.38675 9.4928 1.29918 9.41497 1.23636C9.33715 1.17355 9.24016 1.13928 9.14015 1.13925H1.57715C1.51969 1.13922 1.46278 1.15051 1.40969 1.17249C1.35659 1.19446 1.30835 1.22669 1.26772 1.26732C1.22708 1.30795 1.19486 1.35619 1.17288 1.40929C1.15091 1.46238 1.13962 1.51929 1.13965 1.57675V3.3475C1.13965 3.46353 1.18574 3.57481 1.26779 3.65686C1.34984 3.73891 1.46112 3.785 1.57715 3.785H7.3574L10.9931 20.644C10.0406 20.9342 9.19094 21.4906 8.54424 22.2478C7.89755 23.0049 7.48081 23.9312 7.34318 24.9173C7.20554 25.9035 7.35274 26.9085 7.76742 27.8138C8.1821 28.719 8.84697 29.4869 9.68364 30.0267C10.5203 30.5666 11.4939 30.856 12.4896 30.8608C13.4853 30.8656 14.4617 30.5856 15.3035 30.0538C16.1454 29.5221 16.8176 28.7607 17.241 27.8594C17.6644 26.9582 17.8213 25.9547 17.6931 24.9673L30.5149 22.202C30.6283 22.1776 30.7274 22.1091 30.7903 22.0116C30.8532 21.9141 30.8748 21.7957 30.8504 21.6823ZM13.6796 20.55L12.1254 13.3465L16.6034 12.3808L17.2606 15.425C17.2786 15.5088 17.3208 15.5854 17.382 15.6454C17.4433 15.7054 17.5208 15.746 17.6049 15.7623C17.6323 15.7676 17.6602 15.7703 17.6881 15.7703C17.7597 15.7702 17.8302 15.7527 17.8934 15.7191C17.9566 15.6856 18.0106 15.637 18.0506 15.5778L19.2271 13.8378L20.8754 14.9538C20.9477 15.0027 21.0329 15.0288 21.1202 15.0289C21.2075 15.029 21.2928 15.0029 21.3651 14.9541C21.4375 14.9054 21.4936 14.836 21.5263 14.7551C21.5589 14.6742 21.5666 14.5853 21.5484 14.5L20.8919 11.4558L25.3699 10.49L27.4546 20.1558L16.6729 22.4808C15.9306 21.508 14.8719 20.8251 13.6796 20.55ZM19.2649 8.062L19.9444 11.212L20.4631 13.617L19.3551 12.867C19.259 12.802 19.141 12.7778 19.027 12.7998C18.913 12.8218 18.8125 12.8881 18.7474 12.9843L17.9004 14.238L16.6876 8.61775L19.2649 8.062ZM25.1854 9.63475L20.7074 10.6L20.1201 7.8775L24.5981 6.91175L25.1854 9.63475ZM15.8324 8.80225L16.4196 11.525L11.9416 12.4913L11.3544 9.768L15.8324 8.80225ZM7.7104 2.91H2.01465V2.01425H8.7869L10.4066 9.525L12.7566 20.423C12.4532 20.4083 12.149 20.4203 11.8476 20.4588L8.13815 3.25525C8.11706 3.15748 8.0631 3.06988 7.98527 3.00706C7.90743 2.94424 7.81042 2.90998 7.7104 2.91ZM13.4354 29.8873C12.5943 30.0691 11.7182 29.9975 10.9179 29.6814C10.1176 29.3653 9.42898 28.8189 8.93923 28.1113C8.44948 27.4038 8.18057 26.5669 8.16652 25.7065C8.15248 24.8462 8.39392 24.0009 8.86032 23.2778C9.32672 22.5547 9.99711 21.9861 10.7867 21.644C11.5763 21.3019 12.4496 21.2017 13.2961 21.3561C14.1427 21.5104 14.9244 21.9123 15.5425 22.511C16.1606 23.1097 16.5872 23.8783 16.7684 24.7195C17.01 25.8468 16.7947 27.0239 16.1696 27.9927C15.5446 28.9615 14.5608 29.6428 13.4341 29.8873H13.4354ZM17.5104 24.1123C17.4212 23.8218 17.3067 23.5399 17.1681 23.2695L29.7154 20.5635L29.9044 21.4385L17.5104 24.1123Z" fill="#DB7D43"/>
</svg>