<svg width="32" height="32" viewBox="0 0 32 32" fill="none" xmlns="http://www.w3.org/2000/svg">
    <g clip-path="url(#clip0)">
        <path d="M19.7637 7.35099H19.801C19.8011 7.35099 19.772 7.27787 19.7637 7.35099Z" fill="#DB7D43"/>
        <path d="M10.7344 7.35099H10.7718C10.7634 7.27787 10.7344 7.35099 10.7344 7.35099Z" fill="#DB7D43"/>
        <path d="M28.7819 9.65295C28.5721 9.31802 28.2445 9.08483 27.8594 8.99633L25.8308 8.5302L26.7674 8.26801C27.5435 8.05083 28.0111 7.22195 27.7935 6.44445C27.5763 5.66838 26.7475 5.20094 25.9699 5.41838L21.6026 6.6407C21.4889 6.43382 21.3272 6.25676 21.1325 6.12501C22.0188 4.47557 23.2957 1.6765 23.2957 0.47231C23.2957 0.178622 23.0181 -0.0486287 22.7301 0.00943392C20.9969 0.35956 19.3809 0.521122 17.7919 0.50381C16.1585 0.485872 14.1257 0.282997 12.8484 0.0104964C12.4535 -0.0737537 12.1367 0.368122 12.3449 0.715248C12.6562 1.234 12.8469 1.7825 12.9517 2.33531C11.3486 2.38444 9.68616 2.19019 8.42791 1.561C8.08897 1.3915 7.6889 1.68806 7.7509 2.061C8.14665 4.43519 8.94503 5.8272 9.74547 6.87888H9.72772C8.91191 6.87888 8.24815 7.54264 8.24815 8.35845C8.24815 9.10876 8.80972 9.72995 9.53447 9.82502C9.00616 10.7099 8.25166 11.5495 7.4589 12.4305C5.77309 14.304 3.86227 16.4275 3.21939 19.8562C2.91177 21.4967 2.92202 23.0318 3.24996 24.4188C3.55608 25.7137 4.13915 26.8857 4.98284 27.9024C6.10278 29.2519 7.64147 30.2989 9.55609 31.0147C11.2808 31.6594 13.256 32.0001 15.2682 32.0001C17.2805 32.0001 19.2557 31.6594 20.9804 31.0147C22.895 30.2989 24.4337 29.2518 25.5536 27.9024C26.3973 26.8857 26.9804 25.7137 27.2865 24.4188C27.6144 23.0318 27.6247 21.4967 27.3171 19.8562C26.6742 16.4275 24.7634 14.304 23.0776 12.4305C22.5053 11.7945 21.9608 11.188 21.5043 10.5725L27.1968 11.8804C27.7998 12.019 28.4424 11.7551 28.7756 11.234C29.0804 10.7569 29.0823 10.1322 28.7819 9.65295ZM17.7815 1.44812C19.2354 1.464 20.7069 1.33687 22.2612 1.05987C21.9762 2.22506 21.0611 4.29744 20.193 5.87613C19.5914 5.92145 19.0893 6.32782 18.9032 6.87882H17.5922C17.5625 6.81501 17.5297 6.74507 17.4932 6.66738C17.0878 5.80563 16.2442 4.0125 16.2442 2.487C16.2442 2.19375 15.9672 1.96638 15.6794 2.024C15.1299 2.13394 14.5253 2.22288 13.8962 2.27863C13.8303 1.88463 13.728 1.49 13.5792 1.10187C14.848 1.29825 16.4462 1.43344 17.7815 1.44812ZM20.8402 7.35095V9.3657C20.8402 9.66077 20.6002 9.90089 20.3051 9.90089C20.0099 9.90089 19.7699 9.66083 19.7699 9.3657V7.35095C19.7699 7.05582 20.0099 6.81576 20.3051 6.81576C20.6002 6.81576 20.8402 7.05589 20.8402 7.35095ZM8.85166 2.75669C10.0322 3.15963 11.4843 3.33832 13.0527 3.28319L13.9885 3.22407C14.43 3.18357 14.8779 3.12525 15.329 3.04894C15.4763 4.50982 16.1437 6.01095 16.5492 6.87882H13.405H12.4116H10.9506C10.94 6.86226 10.9287 6.84601 10.9158 6.83051C10.126 5.88032 9.32459 4.78126 8.85166 2.75669ZM22.3756 13.0621C23.9784 14.8432 25.7948 16.862 26.3889 20.03C26.9356 22.9458 26.4101 25.3914 24.8269 27.299C22.8747 29.6512 19.3014 31.0556 15.2683 31.0556C11.2352 31.0556 7.66178 29.6512 5.70965 27.2991C4.12646 25.3915 3.60096 22.9459 4.14758 20.0301C4.74165 16.862 6.55821 14.8432 8.16097 13.0621C9.11928 11.997 10.0247 10.9896 10.6049 9.83795H11.7582C12.019 9.83795 12.2304 9.62652 12.2304 9.36577C12.2304 9.10495 12.019 8.89358 11.7582 8.89358H9.72766C9.43253 8.89358 9.19247 8.65351 9.19247 8.35839C9.19247 8.06326 9.43253 7.8232 9.72766 7.8232H18.8254V8.89351H14.0089C13.748 8.89351 13.5367 9.10495 13.5367 9.3657C13.5367 9.62645 13.7481 9.83789 14.0089 9.83789H18.9031C19.1007 10.4228 19.6542 10.8453 20.305 10.8453C20.3802 10.8453 20.4539 10.8395 20.5262 10.8287C21.0532 11.591 21.6956 12.3065 22.3756 13.0621ZM21.7847 7.57045L26.2244 6.32788C26.5055 6.24907 26.8055 6.41845 26.884 6.69901C26.9626 6.9802 26.7936 7.28007 26.5129 7.35857L23.9756 8.0687C23.9549 8.07451 23.9352 8.08201 23.916 8.09033L21.7847 7.60064V7.57045ZM28.0496 10.5581C27.9835 10.8457 27.6963 11.026 27.4082 10.9598L21.755 9.66095C21.7744 9.56552 21.7846 9.46677 21.7846 9.36564V8.56951L27.6478 9.91664C27.932 9.98195 28.1149 10.2736 28.0496 10.5581Z" fill="#DB7D43"/>
        <path d="M18.2887 19.4079C18.9657 19.4079 19.5165 18.8572 19.5165 18.1802V17.4247C19.5165 15.6579 18.1987 14.1933 16.4943 13.9622V13.1434C16.4943 12.4664 15.9436 11.9156 15.2666 11.9156C14.5897 11.9156 14.0389 12.4664 14.0389 13.1434V14.0247C12.289 14.415 11.0167 15.9706 11.0167 17.8024C11.0167 19.9375 12.7537 21.6745 14.8888 21.6745H15.6443C16.4254 21.6745 17.0609 22.3099 17.0609 23.0911C17.0609 23.8723 16.4254 24.5078 15.6443 24.5078H14.511C13.9381 24.5078 13.4721 24.0417 13.4721 23.4689C13.4721 22.7919 12.9214 22.2411 12.2444 22.2411C11.5674 22.2411 11.0166 22.7919 11.0166 23.4689C11.0166 25.2356 12.3344 26.7003 14.0387 26.9314V27.7502C14.0387 28.4271 14.5895 28.978 15.2665 28.978C15.9434 28.978 16.4942 28.4272 16.4942 27.7502V26.8689C18.244 26.4786 19.5163 24.923 19.5163 23.0911C19.5163 20.9561 17.7793 19.2191 15.6443 19.2191H14.8888C14.1077 19.2191 13.4722 18.5836 13.4722 17.8024C13.4722 17.0212 14.1077 16.3858 14.8888 16.3858H16.0221C16.595 16.3858 17.061 16.8519 17.061 17.4247V18.1802C17.061 18.8571 17.6118 19.4079 18.2887 19.4079ZM16.0222 15.4414H14.8889C13.587 15.4414 12.5279 16.5006 12.5279 17.8024C12.5279 19.1043 13.587 20.1634 14.8889 20.1634H15.6444C17.2587 20.1634 18.572 21.4768 18.572 23.0911C18.572 24.5848 17.4533 25.8354 15.97 26.0002C15.7309 26.0268 15.55 26.2289 15.55 26.4695V27.7502C15.55 27.9064 15.4229 28.0335 15.2667 28.0335C15.1105 28.0335 14.9834 27.9064 14.9834 27.7502V26.491C14.9834 26.2302 14.772 26.0188 14.5112 26.0188C13.1051 26.0188 11.9613 24.8749 11.9613 23.4689C11.9613 23.3128 12.0884 23.1856 12.2446 23.1856C12.4008 23.1856 12.5279 23.3128 12.5279 23.4689C12.5279 24.5625 13.4176 25.4522 14.5112 25.4522H15.6445C16.9463 25.4522 18.0055 24.3931 18.0055 23.0912C18.0055 21.7893 16.9463 20.7302 15.6445 20.7302H14.889C13.2746 20.7302 11.9613 19.4168 11.9613 17.8025C11.9613 16.3088 13.08 15.0582 14.5633 14.8934C14.8024 14.8669 14.9834 14.6647 14.9834 14.4241V13.1434C14.9834 12.9872 15.1105 12.8601 15.2667 12.8601C15.4229 12.8601 15.55 12.9872 15.55 13.1434V14.4026C15.55 14.6634 15.7614 14.8748 16.0222 14.8748C17.4282 14.8748 18.572 16.0187 18.572 17.4247V18.1802C18.572 18.3364 18.4449 18.4635 18.2887 18.4635C18.1325 18.4635 18.0054 18.3364 18.0054 18.1802V17.4247C18.0054 16.3311 17.1157 15.4414 16.0222 15.4414Z" fill="#DB7D43"/>
    </g>
    <defs>
        <clipPath id="clip0">
            <rect width="32" height="32" fill="white"/>
        </clipPath>
    </defs>
</svg>