<svg width="200" height="200" viewBox="0 0 200 200" fill="none" xmlns="http://www.w3.org/2000/svg">
<path d="M5.85938 23.8281H41.7969C45.0272 23.8281 47.6562 26.4572 47.6562 29.6875C47.6562 30.1926 46.9147 23.3353 58.8226 130.513C52.2934 133.081 47.6562 139.444 47.6562 146.875C47.6562 156.567 55.542 164.449 65.2344 164.449H72.1008C71.4508 166.283 71.0938 168.259 71.0938 170.312C71.0938 180.005 78.9795 187.891 88.6719 187.891C98.3643 187.891 106.25 180.005 106.25 170.312C106.25 168.259 105.893 166.283 105.243 164.449H142.415C141.763 166.283 141.406 168.259 141.406 170.312C141.406 180.005 149.292 187.891 158.984 187.891C168.677 187.891 176.562 180.005 176.562 170.312C176.562 160.62 168.677 152.734 158.984 152.734H65.2344C62.0041 152.734 59.375 150.105 59.375 146.875C59.375 143.645 62.0041 141.016 65.2344 141.016H172.495C181.123 141.016 188.416 134.839 189.833 126.328L199.921 65.8066C200.203 64.1083 199.725 62.3703 198.611 61.0565C197.498 59.7427 195.863 58.9844 194.141 58.9844H176.562V29.6875C176.562 26.4511 173.94 23.8281 170.703 23.8281H123.828C120.592 23.8281 117.969 26.4511 117.969 29.6875V35.5469H88.6719C85.4355 35.5469 82.8125 38.1699 82.8125 41.4062V58.9844H62.6663L59.3719 29.3304C59.1797 19.8029 51.3702 12.1094 41.7969 12.1094H5.85938C2.62299 12.1094 0 14.7324 0 17.9688C0 21.2051 2.62299 23.8281 5.85938 23.8281ZM94.5312 170.312C94.5312 173.543 91.9022 176.172 88.6719 176.172C85.4416 176.172 82.8125 173.543 82.8125 170.312C82.8125 167.082 85.4416 164.449 88.6719 164.449C91.9022 164.449 94.5312 167.082 94.5312 170.312ZM158.984 176.172C155.754 176.172 153.125 173.543 153.125 170.312C153.125 167.072 155.754 164.453 158.984 164.453C162.215 164.453 164.844 167.082 164.844 170.312C164.844 173.543 162.215 176.172 158.984 176.172ZM129.688 35.5469H164.844V58.9844H129.688V35.5469ZM94.5312 47.2656H117.969V58.9844H94.5312V47.2656ZM187.224 70.7031L178.275 124.4C177.802 127.238 175.371 129.297 172.495 129.297H70.4788L63.9679 70.7031H187.224Z" fill="#E5E5E5"/>
<path d="M88.6719 117.578C91.9083 117.578 94.5313 114.955 94.5313 111.719V88.2812C94.5313 85.0449 91.9083 82.4219 88.6719 82.4219C85.4355 82.4219 82.8125 85.0449 82.8125 88.2812V111.719C82.8125 114.955 85.4355 117.578 88.6719 117.578Z" fill="#E5E5E5"/>
<path d="M123.828 117.578C127.065 117.578 129.688 114.955 129.688 111.719V88.2812C129.688 85.0449 127.065 82.4219 123.828 82.4219C120.592 82.4219 117.969 85.0449 117.969 88.2812V111.719C117.969 114.955 120.592 117.578 123.828 117.578Z" fill="#E5E5E5"/>
<path d="M158.984 117.578C162.221 117.578 164.844 114.955 164.844 111.719V88.2812C164.844 85.0449 162.221 82.4219 158.984 82.4219C155.748 82.4219 153.125 85.0449 153.125 88.2812V111.719C153.125 114.955 155.748 117.578 158.984 117.578Z" fill="#E5E5E5"/>
</svg>
