<svg width="54" height="42" viewBox="0 0 54 42" fill="none" xmlns="http://www.w3.org/2000/svg">
<path d="M54 21C54 32.598 44.598 42 33 42C21.402 42 12 32.598 12 21C12 9.40202 21.402 0 33 0C44.598 0 54 9.40202 54 21Z" fill="#DB7D43"/>
<path d="M16.5 9L32.5215 42H0.478516L16.5 9Z" fill="#DB7D43"/>
<g clip-path="url(#clip0)">
<rect width="20" height="20" transform="translate(23 11)" fill="#DB7D43"/>
<path d="M36.3566 13.2885C33.3056 10.2375 28.3398 10.2375 25.2888 13.2885C22.2384 16.3402 22.2384 21.3053 25.2888 24.357C28.0058 27.0734 32.2374 27.3644 35.2864 25.2433C35.3506 25.5469 35.4974 25.8365 35.7335 26.0727L40.1768 30.5159C40.8243 31.1621 41.8706 31.1621 42.5148 30.5159C43.1617 29.8691 43.1617 28.8228 42.5148 28.1779L38.0716 23.7333C37.8368 23.4992 37.5464 23.3517 37.2429 23.2875C39.3653 20.2378 39.0743 16.0069 36.3566 13.2885ZM34.9538 22.9542C32.6759 25.232 28.9688 25.232 26.6916 22.9542C24.415 20.6763 24.415 16.9699 26.6916 14.692C28.9688 12.4148 32.6759 12.4148 34.9538 14.692C37.2316 16.9699 37.2316 20.6763 34.9538 22.9542Z" fill="white"/>
</g>
<defs>
<clipPath id="clip0">
<rect width="20" height="20" fill="white" transform="translate(23 11)"/>
</clipPath>
</defs>
</svg>
