<svg width="24" height="24" viewBox="0 0 24 24" fill="none" xmlns="http://www.w3.org/2000/svg">
    <path d="M0.423911 11.5713L5.95399 13.6353L8.09447 20.5191C8.23143 20.96 8.77055 21.1229 9.12839 20.8304L12.211 18.3174C12.5341 18.0541 12.9943 18.041 13.332 18.2861L18.8918 22.3227C19.2746 22.6009 19.817 22.3912 19.913 21.9286L23.9858 2.33732C24.0906 1.83203 23.5942 1.41051 23.113 1.59659L0.417431 10.3519C-0.142649 10.5679 -0.137769 11.3608 0.423911 11.5713ZM7.74951 12.5366L18.5574 5.88004C18.7516 5.76076 18.9514 6.0234 18.7846 6.17812L9.86503 14.4693C9.55151 14.7612 9.34927 15.1517 9.29199 15.5756L8.98815 17.8273C8.94791 18.128 8.52559 18.1578 8.44263 17.8668L7.27407 13.7608C7.14023 13.2925 7.33527 12.7923 7.74951 12.5366Z" fill="#DB7D43"/>
</svg>